<svg width="72" height="90" viewBox="0 0 72 90" fill="none" xmlns="http://www.w3.org/2000/svg">
<path d="M35.578 89.9998C52.4313 89.9998 66.0936 76.3376 66.0936 59.4843C66.0936 42.631 52.4313 28.9688 35.578 28.9688C18.7248 28.9688 5.0625 42.631 5.0625 59.4843C5.0625 76.3376 18.7248 89.9998 35.578 89.9998Z" fill="#FDBF5E"/>
<path d="M41.4844 1.40631C38.2501 1.40631 35.5781 5.34377 35.5781 8.71874V56.5313C35.5781 53.297 38.2499 49.3594 41.4844 49.3594H69.75V1.40631H41.4844Z" fill="white"/>
<path d="M69.7501 0H41.4843C37.4062 0 34.1719 4.64062 34.1719 8.71875V56.5313C34.1719 57.3752 34.7344 57.9376 35.5782 57.9376C36.422 57.9376 36.9845 57.3752 36.9845 56.5313C36.9845 54 39.0938 50.7657 41.4845 50.7657H69.7501C70.5939 50.7657 71.1564 50.2032 71.1564 49.3594V1.40633C71.1562 0.703163 70.5937 0 69.7501 0ZM68.3437 47.9531H41.4843C39.7968 47.9531 38.25 48.7969 36.9843 49.9219V8.71875C36.9843 6.04695 39.0937 2.81247 41.4843 2.81247H68.3437V47.9531Z" fill="#193651"/>
<path d="M40.7812 7.31242C40.7812 6.89059 41.0626 6.60925 41.4844 6.60925H64.5469V44.0156H41.4844C41.2031 44.0156 41.0626 44.0156 40.7812 44.0156V7.31242Z" fill="#E1E6E9"/>
<path d="M29.672 1.40631H1.40625V49.2189H29.6718C32.9061 49.2189 35.5781 53.1563 35.5781 56.3908V8.57807C35.5781 5.34377 32.9063 1.40631 29.672 1.40631Z" fill="white"/>
<path d="M35.5782 57.9375C34.7343 57.9375 34.1719 57.375 34.1719 56.5311C34.1719 53.9998 32.0625 50.7655 29.6719 50.7655H1.40633C0.562495 50.7655 0 50.203 0 49.3592V1.40633C0.000181274 0.562494 0.562676 0 1.40633 0H29.6719C33.7502 0 36.9845 4.64062 36.9845 8.71875V56.5313C36.9845 57.2343 36.422 57.9375 35.5782 57.9375ZM2.81265 47.9531H29.6721C31.3596 47.9531 32.9064 48.7969 34.172 49.9219V8.71875C34.172 6.04695 32.0627 2.81247 29.6721 2.81247H2.81265V47.9531Z" fill="#193651"/>
<path d="M30.375 44.1563C30.0936 44.1563 29.9532 44.1563 29.6718 44.1563H6.60938V6.74994H29.6718C30.0937 6.74994 30.375 7.03128 30.375 7.4531V44.1563V44.1563Z" fill="#E1E6E9"/>
<path d="M12.7968 34.875H9.98438V37.5468H12.7968V34.875Z" fill="#193651"/>
<path d="M19.8279 34.875H17.0154V37.5468H19.8279V34.875Z" fill="#193651"/>
<path d="M26.9997 34.875H24.1873V37.5468H26.9997V34.875Z" fill="#193651"/>
<path d="M60.4684 10.8281H44.9998V13.6405H60.4684V10.8281Z" fill="#193651"/>
<path d="M60.4684 17.1562H44.9998V19.9687H60.4684V17.1562Z" fill="#193651"/>
<path d="M60.4684 23.3438H44.9998V26.1563H60.4684V23.3438Z" fill="#193651"/>
<path d="M26.2968 10.8281H10.8281V13.6405H26.2968V10.8281Z" fill="#193651"/>
<path d="M26.2968 17.1562H10.8281V19.9687H26.2968V17.1562Z" fill="#193651"/>
<path d="M26.2968 23.3438H10.8281V26.1563H26.2968V23.3438Z" fill="#193651"/>
<path d="M60.4684 29.5312H44.9998V32.3437H60.4684V29.5312Z" fill="#193651"/>
<path d="M60.4684 35.8593H44.9998V38.6718H60.4684V35.8593Z" fill="#193651"/>
<path d="M35.5777 83.9531C34.7339 83.9531 34.1714 83.3906 34.1714 82.5467V56.5313C34.1714 55.6875 34.7339 55.125 35.5777 55.125C36.4215 55.125 36.984 55.6875 36.984 56.5313V82.5469C36.984 83.2501 36.4215 83.9531 35.5777 83.9531Z" fill="#193651"/>
<path d="M53.9996 59.7656C45.9841 58.9218 40.0778 64.828 40.9216 72.8436C48.937 73.6875 54.8433 67.9218 53.9996 59.7656Z" fill="#4FBF9F"/>
<path d="M42.469 74.3907C41.9065 74.3907 41.344 74.3907 40.7815 74.25C40.0783 74.25 39.6565 73.6875 39.5158 72.9843C39.094 68.9062 40.219 65.1094 42.7501 62.4374C45.5626 59.3436 49.6407 57.9375 54.2813 58.3593C54.9845 58.3593 55.4063 58.9218 55.547 59.625C55.9688 63.7031 54.8438 67.4999 52.3127 70.1719C49.7814 72.8437 46.2658 74.3907 42.469 74.3907ZM42.1876 71.5782H42.3283C45.4221 71.5782 48.0939 70.4532 50.0627 68.3439C51.7502 66.5157 52.594 63.9846 52.594 61.1719C49.3597 61.1719 46.5471 62.2969 44.7191 64.4062C43.0315 66.2344 42.1876 68.7655 42.1876 71.5782Z" fill="#193651"/>
<path d="M17.1564 59.7656C25.172 58.9218 31.0783 64.828 30.2345 72.8436C22.2189 73.6875 16.3128 67.9218 17.1564 59.7656Z" fill="#4FBF9F"/>
<path d="M28.6872 74.3907C24.7497 74.3907 21.3748 72.9843 18.8435 70.1719C16.3121 67.3594 15.1872 63.7031 15.6092 59.625C15.6092 58.9218 16.1717 58.5 16.8748 58.3593C21.5154 57.9375 25.5936 59.3436 28.406 62.4374C30.9374 65.2499 32.0624 68.9062 31.6403 72.9843C31.6403 73.6875 31.0779 74.1093 30.3747 74.25C29.8122 74.3907 29.2497 74.3907 28.6872 74.3907ZM18.4216 61.1719C18.4216 63.9844 19.2655 66.5157 20.9529 68.3439C22.9218 70.4532 25.7342 71.5782 28.8279 71.5782C28.8279 68.7657 27.984 66.2344 26.2966 64.4062C24.4686 62.1563 21.6559 61.0313 18.4216 61.1719Z" fill="#193651"/>
</svg>
