<svg width="90" height="90" viewBox="0 0 90 90" fill="none" xmlns="http://www.w3.org/2000/svg">
<path d="M44.9999 89.9998C69.8527 89.9998 89.9998 69.8527 89.9998 44.9999C89.9998 20.1472 69.8527 0 44.9999 0C20.1472 0 0 20.1472 0 44.9999C0 69.8527 20.1472 89.9998 44.9999 89.9998Z" fill="#FDBF5E"/>
<path d="M67.2187 11.6719H64.4062V14.4843H67.2187V11.6719Z" fill="#193651"/>
<path d="M84.7969 11.6719H81.9844V14.4843H84.7969V11.6719Z" fill="#193651"/>
<path d="M75.9375 20.5313H73.125V23.3438H75.9375V20.5313Z" fill="#193651"/>
<path d="M75.9375 2.95312H73.125V5.7656H75.9375V2.95312Z" fill="#193651"/>
<path d="M80.7808 21.4163L82.7695 19.4276L80.7808 17.4389L78.7921 19.4276L80.7808 21.4163Z" fill="#193651"/>
<path d="M68.3316 8.87993L70.3203 6.89124L68.3316 4.90254L66.3429 6.89123L68.3316 8.87993Z" fill="#193651"/>
<path d="M80.7245 8.9363L82.7129 6.94733L80.7239 4.95891L78.7355 6.94789L80.7245 8.9363Z" fill="#193651"/>
<path d="M68.388 21.3756L70.3765 19.3866L68.3875 17.3982L66.3991 19.3872L68.388 21.3756Z" fill="#193651"/>
<path d="M52.031 76.7813L35.5778 55.9688V31.7814H23.6247V55.9688L6.89039 76.7813C4.64041 79.7344 6.60905 83.9532 10.406 83.9532H48.656C52.3123 83.9531 54.4216 79.7344 52.031 76.7813Z" fill="white"/>
<path d="M48.656 85.3594H10.406C8.15601 85.3594 6.18719 84.0937 5.20287 82.1251C4.21855 80.0158 4.49971 77.6251 5.90604 75.9377L22.2186 55.4063V31.7812C22.2186 30.9374 22.781 30.3749 23.6249 30.3749H35.5779C36.4218 30.3749 36.9843 30.9374 36.9843 31.7812V55.4062L53.1561 75.9375C54.5624 77.7656 54.8436 80.0156 53.8593 82.1249C52.8748 84.0937 50.9059 85.3594 48.656 85.3594ZM24.8904 33.1875V55.9688C24.8904 56.2502 24.7497 56.5313 24.609 56.8127L8.01534 77.6249C7.31218 78.6093 7.17151 79.7343 7.59352 80.8593C8.15601 81.9842 9.14033 82.5467 10.2653 82.5467H48.5153C49.6403 82.5467 50.7653 81.8436 51.1871 80.8593C51.7496 79.7343 51.6089 78.6093 50.7653 77.6249L34.4528 56.8125C34.3121 56.5311 34.1714 56.25 34.1714 55.9686V33.1875H24.8904Z" fill="#193651"/>
<path d="M25.3124 62.7188L12.9375 78.3281H46.1248L33.75 62.7188H25.3124Z" fill="#E1E6E9"/>
<path d="M37.4063 25.0312H21.5156V31.7812H37.4063V25.0312Z" fill="white"/>
<path d="M37.5469 33.1875H21.5157C20.6719 33.1875 20.1094 32.625 20.1094 31.7812V25.0313C20.1094 24.1874 20.6719 23.6249 21.5157 23.6249H37.4064C38.2502 23.6249 38.8127 24.1874 38.8127 25.0313V31.7812C38.9532 32.625 38.25 33.1875 37.5469 33.1875ZM22.9218 30.3751H35.9999V26.4376H22.9218V30.3751Z" fill="#193651"/>
<path d="M59.2031 44.2969V77.6251C59.2031 81.1408 62.0156 83.9532 65.5312 83.9532C69.0469 83.9532 71.8593 81.1408 71.8593 77.6251V44.2969H59.2031Z" fill="white"/>
<path d="M65.5313 85.3594C61.3125 85.3594 57.7969 81.9844 57.7969 77.625V44.297C57.7969 43.4531 58.3594 42.8906 59.2032 42.8906H71.7187C72.5626 42.8906 73.1251 43.4531 73.1251 44.297V77.6251C73.1251 81.9844 69.7501 85.3594 65.5313 85.3594ZM60.6095 45.7031V77.625C60.6095 80.2968 62.7188 82.5469 65.5315 82.5469C68.2033 82.5469 70.4534 80.4376 70.4534 77.625V45.7031H60.6095Z" fill="#193651"/>
<path d="M59.2031 65.2501V77.7656C59.2031 81.2812 62.0156 84.0937 65.5312 84.0937C69.0469 84.0937 71.8593 81.2812 71.8593 77.7656V65.2501H59.2031Z" fill="#F16051"/>
<path d="M65.5313 85.3594C61.3125 85.3594 57.7969 81.9844 57.7969 77.6249V65.1094C57.7969 64.2656 58.3594 63.7031 59.2032 63.7031C60.047 63.7031 60.6095 64.2656 60.6095 65.1094V77.6249C60.6095 80.2967 62.7188 82.5469 65.5315 82.5469C68.2033 82.5469 70.4534 80.4376 70.4534 77.6249V65.1094C70.4534 64.2656 71.0159 63.7031 71.8598 63.7031C72.7036 63.7031 73.2661 64.2656 73.2661 65.1094V77.6249C73.1251 81.9844 69.7501 85.3594 65.5313 85.3594Z" fill="#193651"/>
<path d="M73.6874 37.2656H57.0938V44.2969H73.6874V37.2656Z" fill="white"/>
<path d="M73.8282 45.703H57.0938C56.25 45.703 55.6875 45.1405 55.6875 44.2967V37.2655C55.6875 36.4216 56.25 35.8591 57.0938 35.8591H73.6875C74.5313 35.8591 75.0938 36.4216 75.0938 37.2655V44.2967C75.2343 45.1405 74.5313 45.703 73.8282 45.703ZM58.5 42.8906H72.2812V38.6718H58.5V42.8906Z" fill="#193651"/>
<path d="M30.5156 49.2187C31.4476 49.2187 32.2031 48.4631 32.2031 47.5312C32.2031 46.5992 31.4476 45.8437 30.5156 45.8437C29.5836 45.8437 28.8281 46.5992 28.8281 47.5312C28.8281 48.4631 29.5836 49.2187 30.5156 49.2187Z" fill="#E1E6E9"/>
<path d="M28.4062 41.7656C29.3382 41.7656 30.0937 41.0101 30.0937 40.0781C30.0937 39.1461 29.3382 38.3906 28.4062 38.3906C27.4743 38.3906 26.7188 39.1461 26.7188 40.0781C26.7188 41.0101 27.4743 41.7656 28.4062 41.7656Z" fill="#E1E6E9"/>
<path d="M67.0779 62.4375C68.0098 62.4375 68.7654 61.682 68.7654 60.75C68.7654 59.818 68.0098 59.0625 67.0779 59.0625C66.1459 59.0625 65.3904 59.818 65.3904 60.75C65.3904 61.682 66.1459 62.4375 67.0779 62.4375Z" fill="#F16051"/>
<path d="M63.8437 54C64.7757 54 65.5312 53.2445 65.5312 52.3125C65.5312 51.3806 64.7757 50.6251 63.8437 50.6251C62.9118 50.6251 62.1562 51.3806 62.1562 52.3125C62.1562 53.2445 62.9118 54 63.8437 54Z" fill="#F16051"/>
<path d="M29.1094 58.922C30.1968 58.922 31.0783 58.0405 31.0783 56.9531C31.0783 55.8658 30.1968 54.9843 29.1094 54.9843C28.0221 54.9843 27.1406 55.8658 27.1406 56.9531C27.1406 58.0405 28.0221 58.922 29.1094 58.922Z" fill="#E1E6E9"/>
<path d="M48.094 44.8594C45.1408 44.8594 42.6095 42.4688 42.6095 39.375V19.8282C42.6095 16.4532 39.9377 13.7812 36.5625 13.7812C33.1874 13.7812 30.5156 16.453 30.5156 19.8282V25.0313H27.7031V19.8282C27.7031 14.9062 31.6406 10.9688 36.5625 10.9688C41.4845 10.9688 45.422 14.9062 45.422 19.8282V39.375C45.422 40.7813 46.547 42.0468 48.0938 42.0468C49.5001 42.0468 50.7656 40.9218 50.7656 39.375V27.7031C50.7656 23.2031 54.4219 19.6875 58.7812 19.6875C63.2811 19.6875 66.7968 23.3438 66.7968 27.7031V37.2657H63.9846V27.7031C63.9846 24.75 61.594 22.5 58.7815 22.5C55.9691 22.5 53.5784 24.8906 53.5784 27.7031V39.375C53.5784 42.3281 51.1878 44.8594 48.094 44.8594Z" fill="#193651"/>
<path d="M9.70318 9.56261C11.7225 9.56261 13.3595 7.92562 13.3595 5.9063C13.3595 3.88698 11.7225 2.25 9.70318 2.25C7.68386 2.25 6.04688 3.88698 6.04688 5.9063C6.04688 7.92562 7.68386 9.56261 9.70318 9.56261Z" fill="white"/>
<path d="M9.70308 11.1094C6.8906 11.1094 4.64062 8.85942 4.64062 6.04694C4.64062 3.23447 6.8906 0.984314 9.70308 0.984314C12.5155 0.984314 14.7655 3.23429 14.7655 6.04676C14.7657 8.71875 12.5155 11.1094 9.70308 11.1094ZM9.70308 3.6563C8.43742 3.6563 7.31243 4.64062 7.31243 5.90628C7.31243 7.17193 8.29675 8.15625 9.56241 8.15625C10.8281 8.15625 11.8124 7.17193 11.8124 5.90628C11.9531 4.64062 10.9687 3.6563 9.70308 3.6563Z" fill="#193651"/>
<path d="M18.8438 19.4063C20.5525 19.4063 21.9376 18.0212 21.9376 16.3125C21.9376 14.6038 20.5525 13.2187 18.8438 13.2187C17.1351 13.2187 15.75 14.6038 15.75 16.3125C15.75 18.0212 17.1351 19.4063 18.8438 19.4063Z" fill="white"/>
<path d="M18.8437 20.8125C16.3124 20.8125 14.3438 18.8436 14.3438 16.3125C14.3438 13.7814 16.3126 11.8126 18.8437 11.8126C21.3748 11.8126 23.3437 13.7814 23.3437 16.3125C23.3437 18.8436 21.3748 20.8125 18.8437 20.8125ZM18.8437 14.625C17.8594 14.625 17.1562 15.3282 17.1562 16.3125C17.1562 17.2968 17.8594 18 18.8437 18C19.828 18 20.5312 17.2968 20.5312 16.3125C20.5312 15.4687 19.828 14.625 18.8437 14.625Z" fill="#193651"/>
</svg>
