<svg width="88" height="90" viewBox="0 0 88 90" fill="none" xmlns="http://www.w3.org/2000/svg">
<path d="M50.999 73.125C71.1919 73.125 87.5615 56.7554 87.5615 36.5625C87.5615 16.3696 71.1919 0 50.999 0C30.8061 0 14.4365 16.3696 14.4365 36.5625C14.4365 56.7554 30.8061 73.125 50.999 73.125Z" fill="#FDBF5E"/>
<path d="M68.9991 88.7344H1.3584L7.26468 69.6094H62.9522L68.9991 88.7344Z" fill="white"/>
<path d="M68.9988 90H1.35806C0.936231 90 0.514224 89.8593 0.233068 89.4375C-0.0482699 89.1561 -0.0482699 88.7343 0.092399 88.3125L5.99868 69.3282C6.13935 68.7657 6.70184 68.3439 7.26434 68.3439H62.9518C63.5143 68.3439 64.0768 68.7657 64.2175 69.3282L70.1237 88.1718C70.2644 88.3125 70.2644 88.5936 70.2644 88.7343C70.2644 89.4375 69.7019 90 68.9988 90ZM3.18621 87.328H67.1706L62.1082 71.0155H8.24884L3.18621 87.328Z" fill="#193651"/>
<path d="M60.5615 79.4531L58.874 73.5469H11.4834L9.65527 79.4531H60.5615Z" fill="#CFD0D1"/>
<path d="M28.2177 81.2812L27.374 85.2187H42.9834L41.9989 81.2812H28.2177Z" fill="#E1E6E9"/>
<path d="M62.9521 32.0625H7.26465V69.6093H62.9521V32.0625Z" fill="#E1E6E9"/>
<path d="M62.9522 71.0157H7.26468C6.56152 71.0157 5.99902 70.4532 5.99902 69.75V32.0625C5.99902 31.3594 6.56152 30.7969 7.26468 30.7969H62.9522C63.6553 30.7969 64.2178 31.3594 64.2178 32.0625V69.6094C64.3585 70.3125 63.796 71.0157 62.9522 71.0157ZM8.67101 68.3437H61.6867V33.4687H8.67101V68.3437Z" fill="#193651"/>
<path d="M57.0458 36.2812H13.1709V65.3906H57.0458V36.2812Z" fill="white"/>
<path d="M74.0614 13.6406H27.9365C26.5302 13.6406 25.5459 14.7656 25.5459 16.0313V24.3282H76.4521V16.0313C76.4521 14.6251 75.3271 13.6406 74.0614 13.6406Z" fill="white"/>
<path d="M74.0613 12.2344H27.9364C25.8271 12.2344 24.1396 13.9219 24.1396 16.0312V25.5938H77.7178V16.0312C77.7176 13.9219 76.0302 12.2344 74.0613 12.2344ZM75.1863 23.0624H26.8115V16.0312C26.8115 15.4687 27.3739 14.9062 27.9364 14.9062H74.0615C74.624 14.9062 75.1865 15.4687 75.1865 16.0312V23.0624H75.1863Z" fill="#193651"/>
<path d="M25.5459 24.3281V57.2343C25.5459 58.6406 26.6709 59.625 27.9365 59.625H74.0614C75.4678 59.625 76.4521 58.5 76.4521 57.2343V24.3281H25.5459Z" fill="#2EA2DB"/>
<path d="M74.0613 60.8907H27.9364C25.8271 60.8907 24.1396 59.2032 24.1396 57.0939V23.0625H77.7178V57.2344C77.7176 59.2032 76.0302 60.8907 74.0613 60.8907ZM26.8115 25.5938V57.2344C26.8115 57.7968 27.3739 58.3593 27.9364 58.3593H74.0615C74.624 58.3593 75.1865 57.7968 75.1865 57.2344V25.5938H26.8115Z" fill="#193651"/>
<path d="M71.5303 29.1094H30.3271V54.7031H71.5303V29.1094Z" fill="white"/>
<path d="M71.1076 20.5311C71.9619 20.5311 72.6544 19.8386 72.6544 18.9843C72.6544 18.13 71.9619 17.4375 71.1076 17.4375C70.2533 17.4375 69.5608 18.13 69.5608 18.9843C69.5608 19.8386 70.2533 20.5311 71.1076 20.5311Z" fill="#F16051"/>
<path d="M66.1862 20.5311C67.0405 20.5311 67.733 19.8386 67.733 18.9843C67.733 18.13 67.0405 17.4375 66.1862 17.4375C65.3319 17.4375 64.6394 18.13 64.6394 18.9843C64.6394 19.8386 65.3319 20.5311 66.1862 20.5311Z" fill="#F16051"/>
<path d="M61.2641 20.5311C62.1184 20.5311 62.8109 19.8386 62.8109 18.9843C62.8109 18.13 62.1184 17.4375 61.2641 17.4375C60.4098 17.4375 59.7173 18.13 59.7173 18.9843C59.7173 19.8386 60.4098 20.5311 61.2641 20.5311Z" fill="#F16051"/>
<path d="M65.6239 32.9062H36.2334V35.5781H65.6239V32.9062Z" fill="#193651"/>
<path d="M65.6239 40.0781H36.2334V42.7499H65.6239V40.0781Z" fill="#193651"/>
<path d="M52.8273 47.2502H50.1555V49.6409H52.8273V47.2502Z" fill="#193651"/>
<path d="M59.2958 47.2502H56.624V49.6409H59.2958V47.2502Z" fill="#193651"/>
<path d="M65.9054 47.2502H63.2336V49.6409H65.9054V47.2502Z" fill="#193651"/>
</svg>
