<svg width="90" height="87" viewBox="0 0 90 87" fill="none" xmlns="http://www.w3.org/2000/svg">
<path d="M51.1875 86.5406C72.623 86.5406 89.9999 69.1637 89.9999 47.7281C89.9999 26.2926 72.623 8.91565 51.1875 8.91565C29.7519 8.91565 12.375 26.2926 12.375 47.7281C12.375 69.1637 29.7519 86.5406 51.1875 86.5406Z" fill="#FDBF5E"/>
<path d="M4.78125 42.3843H12.5157C12.5157 57.5718 10.8282 79.7906 8.71889 79.7906C6.46873 79.65 4.78125 57.4311 4.78125 42.3843Z" fill="#F16051"/>
<path d="M8.57807 80.9157C7.31242 80.9157 5.90627 80.9157 4.64061 66.7125C3.93745 59.2594 3.51562 49.8375 3.51562 42.2437C3.51562 41.5405 4.07812 40.978 4.78128 40.978H12.5157C13.2189 40.978 13.7814 41.5405 13.7814 42.2437C13.7814 49.8375 13.3595 59.2594 12.6564 66.7125C11.2501 80.9157 9.84373 80.9157 8.57807 80.9157ZM6.04694 43.65C6.18761 57.4312 7.45327 71.9156 8.57826 76.9782C9.84391 71.9158 11.1096 57.4314 11.1096 43.65H6.04694V43.65Z" fill="#193651"/>
<path d="M8.57804 25.9313C10.6874 25.9313 12.3748 27.1969 12.3748 42.2438H4.78125C4.78125 27.1968 6.46873 25.9313 8.57804 25.9313Z" fill="white"/>
<path d="M12.5155 43.65H4.78128C4.07812 43.65 3.51562 43.0875 3.51562 42.3843C3.51562 27.3375 5.20311 24.8062 8.71874 24.8062C12.2344 24.8062 13.7812 27.478 13.9219 42.2437C13.9219 42.3843 13.9219 42.3843 13.9219 42.525C13.7812 43.0875 13.2187 43.65 12.5155 43.65ZM6.04694 41.1187H11.1094C10.9687 27.3375 9.28124 27.3375 8.57807 27.3375C7.87491 27.3375 6.18743 27.3375 6.04694 41.1187Z" fill="#193651"/>
<path d="M8.57805 30.0092C12.6562 30.0092 15.8905 26.7749 15.8905 22.6968C15.8905 18.6187 7.87489 15.2437 8.57805 7.50928C8.57805 7.50928 1.26562 18.6187 1.26562 22.6968C1.26563 26.6343 4.64059 30.0092 8.57805 30.0092Z" fill="#2EA2DB"/>
<path d="M8.57808 31.2749C3.79679 31.2749 0 27.4781 0 22.6968C0 18.3375 6.74993 7.93109 7.59376 6.8061C7.8751 6.24361 8.4376 6.10294 9.00009 6.24361C9.56259 6.52495 9.98441 7.08744 9.84392 7.64994C9.42192 11.5874 11.8126 14.3999 13.9219 16.7905C15.6094 18.6187 17.1562 20.4468 17.1562 22.5561C17.2968 27.3374 13.3594 31.2749 8.57808 31.2749ZM7.73443 11.4467C5.20312 15.5249 2.67198 20.5873 2.67198 22.6968C2.67198 26.0718 5.34379 28.7437 8.71893 28.7437C12.0941 28.7437 14.7659 26.0719 14.7659 22.6968C14.7659 21.5718 13.6409 20.1655 12.2346 18.6187C10.4062 16.65 8.57808 14.3999 7.73443 11.4467Z" fill="#193651"/>
<path d="M12.5155 22.6968C12.3748 22.1343 11.2498 20.8686 10.4062 19.8843C9.42187 18.7593 8.43737 17.6343 7.45305 16.0875C5.90624 19.0407 4.78125 21.572 4.78125 22.5563C4.78125 24.6656 6.46873 26.3531 8.57804 26.3531C10.6875 26.4938 12.375 24.8061 12.5155 22.6968Z" fill="white"/>
<path d="M58.0783 16.2281C49.7814 13.6967 41.7658 20.5873 42.8908 29.1656C44.0158 37.4625 39.3751 45.4781 31.7814 48.7124L28.6876 49.9781C21.2345 53.0719 18.9845 62.6343 24.3283 68.6812C32.4845 77.8218 45.5626 82.1813 58.219 78.2437C73.6877 73.4624 83.3909 57.5718 80.5783 41.6812C78.3283 29.1656 69.3282 19.7437 58.0783 16.2281Z" fill="#CFD0D1"/>
<path d="M48.6562 80.9156C38.9531 80.9156 29.8123 76.6968 23.3437 69.525C20.5313 66.2907 19.4063 62.0719 20.3906 57.9938C21.3749 53.775 24.1874 50.4 28.125 48.8532L31.2188 47.5876C38.3908 44.4938 42.6094 37.0407 41.6251 29.3064C41.0626 25.5096 42.1876 21.8533 44.7189 18.9002C48.0938 14.9627 53.5783 13.4157 58.5001 14.9627C70.7345 18.7595 79.7344 28.8846 81.8439 41.4001C84.797 58.1345 74.8126 74.447 58.6407 79.369C55.4061 80.4936 52.0311 80.9156 48.6562 80.9156ZM54.5624 17.0718C51.4686 17.0718 48.6562 18.3375 46.5468 20.7281C44.578 22.9781 43.5937 25.9313 44.0155 29.0251C45.1405 37.8845 40.2187 46.4626 32.0625 49.9782L28.9687 51.2439C25.7344 52.6502 23.4842 55.322 22.7812 58.697C22.0781 62.0719 22.9219 65.4469 25.1719 67.9782C31.0782 74.7282 39.6562 78.5251 48.5157 78.5251C51.6095 78.5251 54.7031 78.1033 57.7969 77.1188C72.7031 72.4782 81.9844 57.4313 79.3126 41.9626C77.2032 30.2907 69.047 21.0095 57.6562 17.4938C56.6717 17.2125 55.6874 17.0718 54.5624 17.0718Z" fill="#193651"/>
<path d="M63.1405 70.7905C61.1717 72.0562 59.0624 72.8998 56.9531 73.603C46.5468 76.8373 35.2968 73.603 28.125 65.4467C26.7187 63.8999 26.1562 61.9311 26.4375 59.8218C26.7189 57.7125 27.9844 56.025 29.6718 54.8998C29.9532 54.7591 30.375 54.478 30.6562 54.3373L33.75 53.0717C34.875 52.6498 35.9999 52.0873 36.9843 51.3842C44.8592 46.4622 49.078 37.4623 47.8123 28.3217C47.3905 25.0874 49.2186 22.5561 51.0466 21.4311C52.7341 20.3061 54.8434 20.1655 56.8122 20.728C66.7966 23.8218 74.1091 32.1185 75.9372 42.3843C77.7655 53.4937 72.7031 64.8842 63.1405 70.7905Z" fill="white"/>
<path d="M37.702 66.976C40.6532 66.976 43.0456 64.5836 43.0456 61.6324C43.0456 58.6812 40.6532 56.2888 37.702 56.2888C34.7508 56.2888 32.3584 58.6812 32.3584 61.6324C32.3584 64.5836 34.7508 66.976 37.702 66.976Z" fill="#E1E6E9"/>
<path d="M52.4525 70.2393C55.4037 70.2393 57.7961 67.8469 57.7961 64.8957C57.7961 61.9445 55.4037 59.5521 52.4525 59.5521C49.5013 59.5521 47.1089 61.9445 47.1089 64.8957C47.1089 67.8469 49.5013 70.2393 52.4525 70.2393Z" fill="#4FBF9F"/>
<path d="M65.2342 61.0697C68.1854 61.0697 70.5778 58.6772 70.5778 55.7261C70.5778 52.7749 68.1854 50.3824 65.2342 50.3824C62.283 50.3824 59.8906 52.7749 59.8906 55.7261C59.8906 58.6772 62.283 61.0697 65.2342 61.0697Z" fill="#FDBF5E"/>
<path d="M67.0726 46.1689C70.0238 46.1689 72.4162 43.7765 72.4162 40.8253C72.4162 37.8741 70.0238 35.4817 67.0726 35.4817C64.1214 35.4817 61.729 37.8741 61.729 40.8253C61.729 43.7765 64.1214 46.1689 67.0726 46.1689Z" fill="#2EA2DB"/>
<path d="M56.3749 35.926C59.326 35.926 61.7185 33.5336 61.7185 30.5824C61.7185 27.6312 59.326 25.2388 56.3749 25.2388C53.4237 25.2388 51.0312 27.6312 51.0312 30.5824C51.0312 33.5336 53.4237 35.926 56.3749 35.926Z" fill="#F16051"/>
<path d="M53.2451 42.6269L54.5654 40.4672L52.2857 39.0735L50.9654 41.2332L53.2451 42.6269Z" fill="#193651"/>
<path d="M49.4112 48.7511L50.7324 46.5923L48.4536 45.1976L47.1324 47.3564L49.4112 48.7511Z" fill="#193651"/>
<path d="M45.7009 54.9599L47.0212 52.8002L44.7415 51.4065L43.4212 53.5662L45.7009 54.9599Z" fill="#193651"/>
<path d="M41.4843 10.6031C37.2655 10.6031 32.3437 9.47812 27.1406 6.24382C21.6563 2.86868 17.1562 1.74369 13.9219 3.15001C10.6876 4.41567 9.84373 7.79064 9.84373 7.79064C9.70306 8.4938 8.9999 8.91563 8.29692 8.77496C7.59394 8.63429 7.17193 7.93113 7.3126 7.22814C7.3126 7.08747 8.43759 2.58752 12.9375 0.759367C16.875 -0.928116 22.0781 0.196873 28.4062 4.13433C44.2969 13.8374 56.3906 2.58752 56.9531 2.16551C57.5156 1.74369 58.2188 1.74369 58.7813 2.16551C59.2031 2.72801 59.2031 3.43117 58.7813 3.99366C58.3593 4.275 51.6093 10.6031 41.4843 10.6031Z" fill="#193651"/>
</svg>
