<svg width="79" height="90" viewBox="0 0 79 90" fill="none" xmlns="http://www.w3.org/2000/svg">
<path d="M39.3135 78.627C61.0258 78.627 78.627 61.0258 78.627 39.3135C78.627 17.6013 61.0258 0 39.3135 0C17.6013 0 0 17.6013 0 39.3135C0 61.0258 17.6013 78.627 39.3135 78.627Z" fill="#FDBF5E"/>
<path d="M51.3883 78.2059H26.3963C24.0093 78.2059 21.9033 80.1716 21.9033 82.6988V88.8766H55.7411V82.6988C55.8814 80.1716 53.9157 78.2059 51.3883 78.2059Z" fill="white"/>
<path d="M51.3883 76.8017H26.3963C23.167 76.8017 20.6396 79.3291 20.6396 82.5583V89.9998H57.1451V82.5583C57.2853 79.4695 54.6177 76.8017 51.3883 76.8017ZM54.6177 87.4726H23.3073V82.6988C23.3073 81.0139 24.7114 79.6098 26.3963 79.6098H51.3885C53.0733 79.6098 54.4774 81.0139 54.4774 82.6988V87.4726H54.6177Z" fill="#193651"/>
<path d="M38.8922 73.9936C35.6629 73.9936 32.4335 73.5725 29.3445 72.5895C28.6424 72.449 28.2213 71.6067 28.502 70.9046C28.6424 70.2026 29.4848 69.7814 30.1868 70.0621C32.9949 70.9046 36.0839 71.3258 39.0324 71.3258C56.5832 71.3258 70.9045 57.0045 70.9045 39.4538C70.9045 21.903 56.5833 7.58188 39.0326 7.58188C36.0841 7.58188 33.1355 8.00304 30.187 8.84556C29.4849 8.98601 28.7829 8.70511 28.5022 8.00304C28.3617 7.30098 28.6426 6.59891 29.3447 6.31819C32.4337 5.47568 35.6629 4.91406 38.8923 4.91406C57.9875 4.91406 73.432 20.3586 73.432 39.4538C73.4318 58.4086 57.9873 73.9936 38.8922 73.9936Z" fill="#193651"/>
<path d="M38.8924 66.131C53.6257 66.131 65.5695 54.1873 65.5695 39.454C65.5695 24.7206 53.6257 12.7769 38.8924 12.7769C24.1591 12.7769 12.2153 24.7206 12.2153 39.454C12.2153 54.1873 24.1591 66.131 38.8924 66.131Z" fill="white"/>
<path d="M38.8922 67.3947C23.4477 67.3947 10.811 54.7583 10.811 39.3136C10.811 23.8688 23.4477 11.2325 38.8922 11.2325C54.3368 11.2325 66.9734 23.869 66.9734 39.3137C66.9734 54.7585 54.4772 67.3947 38.8922 67.3947ZM38.8922 14.0406C24.8516 14.0406 13.4788 25.4134 13.4788 39.454C13.4788 53.4946 24.8516 64.8674 38.8922 64.8674C52.9328 64.8674 64.3056 53.4946 64.3056 39.454C64.3056 25.4134 52.9328 14.0406 38.8922 14.0406Z" fill="#193651"/>
<path d="M38.8919 61.2178C50.9112 61.2178 60.6548 51.4742 60.6548 39.4549C60.6548 27.4355 50.9112 17.6919 38.8919 17.6919C26.8725 17.6919 17.1289 27.4355 17.1289 39.4549C17.1289 51.4742 26.8725 61.2178 38.8919 61.2178Z" fill="#2EA2DB"/>
<path d="M36.6458 35.8034C36.6458 35.8034 35.9437 36.9266 39.5943 36.9266C39.5943 36.9266 40.4368 36.365 40.7175 39.0326H41.8407C41.8407 39.0326 42.5428 40.9984 43.5256 40.1558C43.5256 40.1558 44.0872 39.4538 45.07 40.8579C45.07 40.8579 47.4569 41.56 47.4569 38.1903C47.4569 38.1903 50.4054 36.0843 46.7548 33.4165L45.07 32.0123V28.7831C45.07 28.7831 44.2275 28.6426 44.6488 27.2387C44.6488 27.2387 43.5256 26.1154 44.3679 24.1497C44.3679 24.1497 43.2447 20.9204 40.9982 21.9032L41.7003 22.7457L41.4194 24.1499H42.4022L41.7001 25.554L42.4022 25.9752C42.4022 25.9752 38.7516 26.1156 38.7516 29.3449C38.7516 29.3449 40.296 30.8893 37.7688 30.6086C37.7688 30.6086 36.5051 30.6086 36.6456 33.5571C36.6456 33.5571 35.5223 34.6803 35.6628 35.2419C35.8032 35.8034 36.6458 35.8034 36.6458 35.8034Z" fill="#E1E6E9"/>
<path d="M19.2354 48.4398C21.2012 48.1589 20.4991 45.4913 20.4991 45.4913C21.3416 43.8064 23.5881 46.3338 23.5881 46.3338C24.4306 44.5085 26.5366 46.4743 26.5366 46.4743C31.5912 49.0016 32.4337 44.3682 32.4337 44.3682C34.961 41.8409 32.4337 38.4712 32.4337 38.4712C30.8893 36.3652 28.7831 39.1732 28.7831 39.1732C27.2387 37.3479 26.2557 37.9096 26.2557 37.9096C26.2557 37.9096 26.2557 37.9096 26.5366 36.9268C26.8175 35.944 24.8518 34.5399 24.8518 33.9782C24.8518 33.4166 27.3791 32.0125 25.4134 30.3277C23.5881 28.6428 24.2901 27.5196 24.2901 27.5196C24.2901 27.5196 22.886 26.2559 22.0437 25.6943C18.9547 29.4851 17.1294 34.259 17.1294 39.5944C17.2697 42.6832 17.9717 45.7722 19.2354 48.4398Z" fill="#E1E6E9"/>
<path d="M55.3198 43.5257C55.3198 43.5257 55.3198 43.5257 54.1966 41.2793C53.0733 39.0328 51.5289 41.7004 52.0905 42.8237C52.5117 43.9469 51.5289 45.6317 49.0016 45.0701C46.3339 44.5085 47.5974 45.4913 45.351 48.4398C43.1045 51.3884 41.7004 49.1419 40.9985 50.8267C40.2964 52.5116 39.7348 55.741 42.4026 53.7753C45.0704 51.8095 44.7895 52.652 42.4026 55.741C40.0157 58.83 43.947 55.1794 48.1592 55.3198C49.9845 55.3198 50.5461 56.5835 50.8269 57.8472C52.9329 56.5835 54.7582 54.8987 56.3028 52.9329C56.7239 51.6693 57.0048 50.1249 57.5665 47.8784C58.1279 44.2278 55.3198 43.5257 55.3198 43.5257Z" fill="#E1E6E9"/>
<path d="M38.8921 14.0406C38.19 14.0406 37.6284 13.479 37.6284 12.7769V6.31825C37.6284 5.61618 38.19 5.05457 38.8921 5.05457C39.5942 5.05457 40.1558 5.61618 40.1558 6.31825V12.7769C40.2962 13.479 39.7346 14.0406 38.8921 14.0406Z" fill="#193651"/>
<path d="M38.8921 79.4695C38.19 79.4695 37.6284 78.9079 37.6284 78.2058V66.131C37.6284 65.4289 38.19 64.8673 38.8921 64.8673C39.5942 64.8673 40.1558 65.4289 40.1558 66.131V78.2058C40.2962 78.9079 39.7346 79.4695 38.8921 79.4695Z" fill="#193651"/>
<path d="M33.1354 82.1372H30.4678V84.8048H33.1354V82.1372Z" fill="#193651"/>
<path d="M40.2961 82.1372H37.6284V84.8048H40.2961V82.1372Z" fill="#193651"/>
<path d="M47.4567 82.1372H44.7891V84.8048H47.4567V82.1372Z" fill="#193651"/>
</svg>
