<svg width="82" height="90" viewBox="0 0 82 90" fill="none" xmlns="http://www.w3.org/2000/svg">
<path d="M40.9157 89.8594C63.5129 89.8594 81.8315 69.7751 81.8315 44.9999C81.8315 20.2248 63.5129 0.140503 40.9157 0.140503C18.3186 0.140503 0 20.2248 0 44.9999C0 69.7751 18.3186 89.8594 40.9157 89.8594Z" fill="#FDBF5E"/>
<path d="M64.7725 12.0937V8.29694H17.0591V12.0937C17.0591 24.8906 24.37 36.2812 37.068 44.9999C24.2417 53.7187 17.0591 65.9531 17.0591 78.6093V81.7031H64.901V78.6093C64.901 65.8124 57.5901 53.7187 44.8921 44.9999C57.4616 36.2812 64.7725 24.7499 64.7725 12.0937Z" fill="white"/>
<path d="M64.7725 83.1094H17.0591C16.2894 83.1094 15.7764 82.5469 15.7764 81.7031V78.6093C15.7764 66.0937 22.7025 53.8594 34.7592 44.9999C22.3178 36 15.7764 24.6095 15.7764 12.0937V8.29695C15.7764 7.45312 16.2894 6.89062 17.0591 6.89062H64.901C65.6706 6.89062 66.1837 7.45312 66.1837 8.29695V12.0937C66.1837 24.6093 59.6422 36 47.2009 44.9999C59.2575 53.8594 66.1837 66.0937 66.1837 78.6093V81.7031C66.0552 82.5469 65.5422 83.1094 64.7725 83.1094ZM18.3416 80.297H63.6181V78.6095C63.6181 66.5157 56.5636 54.5625 44.1223 46.1251C43.7375 45.9844 43.4809 45.4219 43.4809 45.0001C43.4809 44.5783 43.7375 44.0158 44.1223 43.8751C56.8202 35.1564 63.6181 24.1876 63.6181 12.0939V9.7031H18.3416V12.0937C18.3416 24.1875 25.0112 35.1562 37.8374 43.8749C38.2222 44.1563 38.4788 44.5781 38.4788 44.9999C38.4788 45.4218 38.2222 45.9843 37.8374 46.1249C25.5242 54.5623 18.3416 66.3749 18.3416 78.6093C18.3416 78.6093 18.3416 80.297 18.3416 80.297Z" fill="#193651"/>
<path d="M67.7226 1.40631H14.1089V8.29691H67.7226V1.40631Z" fill="#CFD0D1"/>
<path d="M67.7226 9.70307H14.1089C13.3392 9.70307 12.8262 9.14058 12.8262 8.29675V1.40633C12.8263 0.562494 13.3394 0 14.1089 0H67.7226C68.4922 0 69.0053 0.562494 69.0053 1.40633V8.29693C69.0051 8.99991 68.4921 9.70307 67.7226 9.70307ZM15.3916 6.8906H66.44V2.81247H15.3916V6.8906Z" fill="#193651"/>
<path d="M17.572 18C19.4959 28.4062 26.2939 37.6875 37.0679 44.9999H44.7635C55.5376 37.6875 62.3355 28.4062 64.2594 18C64.2594 18 17.572 18 17.572 18Z" fill="#E1E6E9"/>
<path d="M18.0852 70.5937C17.4438 73.2655 17.0591 75.9375 17.0591 78.75V81.8438H64.901V78.75C64.901 75.9375 64.5163 73.2655 63.8749 70.5937H18.0852V70.5937Z" fill="#E1E6E9"/>
<path d="M67.7226 81.7031H14.1089V88.5937H67.7226V81.7031Z" fill="#CFD0D1"/>
<path d="M67.7226 90H14.1089C13.3392 90 12.8262 89.4375 12.8262 88.5937V81.7031C12.8262 80.8592 13.3392 80.2968 14.1089 80.2968H67.7226C68.4922 80.2968 69.0053 80.8592 69.0053 81.7031V88.5937C69.0051 89.4375 68.4921 90 67.7226 90ZM15.3916 87.1875H66.44V83.1094H15.3916V87.1875Z" fill="#193651"/>
<path d="M64.7725 83.1094H17.0591C16.2894 83.1094 15.7764 82.5469 15.7764 81.7031V78.6093C15.7764 66.0937 22.7025 53.8594 34.7592 44.9999C22.3178 36 15.7764 24.6095 15.7764 12.0937V8.29695C15.7764 7.45312 16.2894 6.89062 17.0591 6.89062H64.901C65.6706 6.89062 66.1837 7.45312 66.1837 8.29695V12.0937C66.1837 24.6093 59.6422 36 47.2009 44.9999C59.2575 53.8594 66.1837 66.0937 66.1837 78.6093V81.7031C66.0552 82.5469 65.5422 83.1094 64.7725 83.1094ZM18.3416 80.297H63.6181V78.6095C63.6181 66.5157 56.5636 54.5625 44.1223 46.1251C43.7375 45.9844 43.4809 45.4219 43.4809 45.0001C43.4809 44.5783 43.7375 44.0158 44.1223 43.8751C56.8202 35.1564 63.6181 24.1876 63.6181 12.0939V9.7031H18.3416V12.0937C18.3416 24.1875 25.0112 35.1562 37.8374 43.8749C38.2222 44.1563 38.4788 44.5781 38.4788 44.9999C38.4788 45.4218 38.2222 45.9843 37.8374 46.1249C25.5242 54.5623 18.3416 66.3749 18.3416 78.6093C18.3416 78.6093 18.3416 80.297 18.3416 80.297Z" fill="#193651"/>
<path d="M40.5307 54.1407C41.6641 54.1407 42.5829 53.1334 42.5829 51.8907C42.5829 50.6481 41.6641 49.6407 40.5307 49.6407C39.3973 49.6407 38.4785 50.6481 38.4785 51.8907C38.4785 53.1334 39.3973 54.1407 40.5307 54.1407Z" fill="#E1E6E9"/>
<path d="M45.7895 61.7343C46.9229 61.7343 47.8417 60.727 47.8417 59.4843C47.8417 58.2417 46.9229 57.2344 45.7895 57.2344C44.6561 57.2344 43.7373 58.2417 43.7373 59.4843C43.7373 60.727 44.6561 61.7343 45.7895 61.7343Z" fill="#E1E6E9"/>
<path d="M38.4784 67.5001C39.6118 67.5001 40.5306 66.4927 40.5306 65.2501C40.5306 64.0075 39.6118 63.0001 38.4784 63.0001C37.3451 63.0001 36.4263 64.0075 36.4263 65.2501C36.4263 66.4927 37.3451 67.5001 38.4784 67.5001Z" fill="#E1E6E9"/>
<path d="M69.6463 36H67.0811V38.8125H69.6463V36Z" fill="#193651"/>
<path d="M69.6463 43.5938H67.0811V46.4062H69.6463V43.5938Z" fill="#193651"/>
<path d="M69.6463 51.1875H67.0811V54H69.6463V51.1875Z" fill="#193651"/>
<path d="M14.7503 36H12.1851V38.8125H14.7503V36Z" fill="#193651"/>
<path d="M14.7503 43.5938H12.1851V46.4062H14.7503V43.5938Z" fill="#193651"/>
<path d="M14.7503 51.1875H12.1851V54H14.7503V51.1875Z" fill="#193651"/>
</svg>
