<svg width="90" height="90" viewBox="0 0 90 90" fill="none" xmlns="http://www.w3.org/2000/svg">
<path d="M44.9297 89.8594C69.7437 89.8594 89.8594 69.7437 89.8594 44.9297C89.8594 20.1157 69.7437 0 44.9297 0C20.1157 0 0 20.1157 0 44.9297C0 69.7437 20.1157 89.8594 44.9297 89.8594Z" fill="#FDBF5E"/>
<path d="M44.926 80.4296C64.5446 80.4296 80.4486 64.5256 80.4486 44.9069C80.4486 25.2883 64.5446 9.38428 44.926 9.38428C25.3074 9.38428 9.40332 25.2883 9.40332 44.9069C9.40332 64.5256 25.3074 80.4296 44.926 80.4296Z" fill="white"/>
<path d="M44.9298 81.8564C31.3105 81.8564 18.9548 74.415 12.4961 62.6208C2.6677 44.6489 9.40728 22.1841 27.2387 12.496C32.7146 9.54745 38.752 8.00305 44.9298 8.00305C58.5492 8.00305 70.9047 15.4445 77.3634 27.2386C87.0514 45.0701 80.4524 67.5349 62.6208 77.3633C57.1451 80.3118 51.1077 81.8564 44.9298 81.8564ZM44.9298 10.8111C39.3136 10.8111 33.6972 12.2153 28.6427 15.0233C12.0749 24.0092 6.0374 44.7894 15.0234 61.3572C21.061 72.3088 32.4337 79.1886 45.0702 79.1886C50.6864 79.1886 56.3027 77.7845 61.3573 74.9764C77.925 65.9905 83.9626 45.2104 74.9767 28.6426C68.9392 17.691 57.4259 10.8111 44.9298 10.8111Z" fill="#193651"/>
<path d="M44.9263 75.2345C61.6758 75.2345 75.2539 61.6564 75.2539 44.9069C75.2539 28.1574 61.6758 14.5792 44.9263 14.5792C28.1768 14.5792 14.5986 28.1574 14.5986 44.9069C14.5986 61.6564 28.1768 75.2345 44.9263 75.2345Z" fill="#E1E6E9"/>
<path d="M50.4056 46.755C50.4056 46.755 50.4056 44.9297 46.0531 47.4571C46.0531 47.4571 45.351 48.7208 43.245 45.6318L41.8409 46.3338C41.8409 46.3338 39.5944 44.3681 39.0328 46.0529C39.0328 46.0529 38.7519 47.3166 36.7863 46.3338C36.7863 46.3338 33.4166 47.1764 35.6631 51.2481C35.6631 51.2481 33.2762 55.7411 39.5944 56.5836L42.5429 57.1452L44.649 61.2169C44.649 61.2169 45.7722 60.7958 46.1934 62.7614C46.1934 62.7614 48.2994 63.323 48.5803 66.4119C48.5803 66.4119 52.2309 69.6412 54.0562 66.8331L52.652 66.2715L52.2309 64.4462L50.9672 65.1483L50.8267 62.9018L49.7035 62.7614C49.7035 62.7614 54.056 60.0937 51.95 56.1622C51.95 56.1622 49.0014 55.3197 52.3711 53.9158C52.3711 53.9158 53.9155 53.0732 51.8095 49.5633C51.8095 49.5633 52.5116 47.4573 51.95 46.8956C51.3883 46.1934 50.4056 46.755 50.4056 46.755Z" fill="#2EA2DB"/>
<path d="M62.9018 20.6395C63.0423 22.0437 64.3059 23.1669 64.3059 23.1669C64.4464 26.1154 59.5321 24.2901 59.5321 24.2901C59.813 27.3791 55.4603 26.3961 55.4603 26.3961C46.8956 26.677 49.2825 33.5569 49.2825 33.5569C47.7381 38.7519 53.4948 41.4195 53.4948 41.4195C57.1454 43.1044 57.9877 37.7689 57.9877 37.7689C61.217 39.1731 62.1999 37.7689 62.1999 37.7689C62.1999 37.7689 62.1999 37.7689 62.6211 39.3133C63.0423 40.8577 66.5524 41.2791 66.8333 41.981C67.2545 42.8235 64.8676 46.4739 68.6586 47.3164C72.3092 48.1589 72.1687 50.4054 72.1687 50.4054C72.1687 50.4054 73.4324 50.6863 74.6961 50.967C75.9598 44.2276 75.1173 37.0669 71.6071 30.6082C69.3605 26.3961 66.412 23.1669 62.9018 20.6395Z" fill="#2EA2DB"/>
<path d="M21.9033 51.1077C21.9033 51.1077 21.9033 51.1077 24.8518 53.0735C27.8004 55.0392 27.8004 50.827 26.5367 49.7038C25.273 48.5805 25.273 45.9129 28.9236 44.7895C32.5742 43.8067 30.468 43.2451 31.1701 38.1903C32.0126 33.1358 35.2418 34.9611 34.9609 32.4337C34.68 29.9064 33.1356 25.5539 31.3103 29.7661C29.3446 33.9783 29.0639 32.7146 30.0466 27.3792C30.8892 22.0437 28.3618 29.064 23.3072 31.7317C21.0608 32.8549 19.5164 31.8721 18.393 30.3275C16.7081 33.4165 15.5849 36.6458 14.8828 40.0155C15.304 41.7003 15.8656 43.8063 16.7081 47.0358C17.972 52.0905 21.9033 51.1077 21.9033 51.1077Z" fill="#2EA2DB"/>
<path d="M74.2744 88.4554C82.1839 88.4554 88.5957 82.0435 88.5957 74.1341C88.5957 66.2246 82.1839 59.8127 74.2744 59.8127C66.365 59.8127 59.9531 66.2246 59.9531 74.1341C59.9531 82.0435 66.365 88.4554 74.2744 88.4554Z" fill="#E1E6E9"/>
<path d="M74.2743 89.8596C65.5691 89.8596 58.5488 82.8393 58.5488 74.1341C58.5488 65.429 65.5691 58.4087 74.2743 58.4087C82.9794 58.4087 89.9997 65.429 89.9997 74.1341C89.9997 82.8393 82.839 89.8596 74.2743 89.8596ZM74.2743 61.2168C67.1135 61.2168 61.3569 66.9734 61.3569 74.1341C61.3569 81.2949 67.1135 87.0515 74.2743 87.0515C81.435 87.0515 87.1916 81.2949 87.1916 74.1341C87.0512 67.1138 81.2946 61.2168 74.2743 61.2168Z" fill="#193651"/>
<path d="M74.2743 84.2433C79.8575 84.2433 84.3836 79.7173 84.3836 74.1341C84.3836 68.5509 79.8575 64.0248 74.2743 64.0248C68.6911 64.0248 64.165 68.5509 64.165 74.1341C64.165 79.7173 68.6911 84.2433 74.2743 84.2433Z" fill="white"/>
<path d="M71.747 75.819L70.7643 78.0655H68.939L73.4319 67.9562H75.2572L79.7501 78.0655H77.9248L76.6611 75.819H71.747ZM76.0997 74.2746L74.2744 70.0624L72.4491 74.2746H76.0997Z" fill="#193651"/>
<path d="M74.2744 30.0468C82.1839 30.0468 88.5957 23.6349 88.5957 15.7255C88.5957 7.81604 82.1839 1.40417 74.2744 1.40417C66.365 1.40417 59.9531 7.81604 59.9531 15.7255C59.9531 23.6349 66.365 30.0468 74.2744 30.0468Z" fill="white"/>
<path d="M74.2743 31.4509C65.5691 31.4509 58.5488 24.4306 58.5488 15.7254C58.5488 7.0203 65.5691 0 74.2743 0C82.839 0 89.8593 7.0203 89.8593 15.7254C89.8593 24.4306 82.839 31.4509 74.2743 31.4509ZM74.2743 2.80808C67.1135 2.80808 61.3569 8.5647 61.3569 15.7254C61.3569 22.8862 67.1135 28.6428 74.2743 28.6428C81.435 28.6428 87.1916 22.8862 87.1916 15.7254C87.0512 8.5647 81.2946 2.80808 74.2743 2.80808Z" fill="#193651"/>
<path d="M81.295 8.42419H67.114C66.4119 8.42419 65.9907 8.98581 65.9907 9.54743V17.8314H82.5585V9.54743C82.4182 8.98581 81.9969 8.42419 81.295 8.42419Z" fill="#E1E6E9"/>
<path d="M65.9907 17.9719V19.3761C65.9907 19.9377 66.5523 20.4993 67.114 20.4993H81.295C81.8566 20.4993 82.4182 19.9377 82.4182 19.3761V17.9719H65.9907Z" fill="#CFD0D1"/>
<path d="M77.925 22.8861H70.624L72.1684 20.4991H76.2402L77.925 22.8861Z" fill="#193651"/>
<path d="M15.7256 88.4554C23.6351 88.4554 30.0469 82.0435 30.0469 74.1341C30.0469 66.2246 23.6351 59.8127 15.7256 59.8127C7.81617 59.8127 1.4043 66.2246 1.4043 74.1341C1.4043 82.0435 7.81617 88.4554 15.7256 88.4554Z" fill="white"/>
<path d="M15.7254 89.8596C7.0203 89.8596 0 82.8393 0 74.1341C0 65.429 7.0203 58.4087 15.7254 58.4087C24.4306 58.4087 31.4509 65.429 31.4509 74.1341C31.4509 82.8393 24.4306 89.8596 15.7254 89.8596ZM15.7254 61.2168C8.5647 61.2168 2.80808 66.9734 2.80808 74.1341C2.80808 81.2949 8.5647 87.0515 15.7254 87.0515C22.8862 87.0515 28.6428 81.2949 28.6428 74.1341C28.6428 67.1138 22.886 61.2168 15.7254 61.2168Z" fill="#193651"/>
<path d="M15.7256 30.0468C23.6351 30.0468 30.0469 23.6349 30.0469 15.7255C30.0469 7.81604 23.6351 1.40417 15.7256 1.40417C7.81617 1.40417 1.4043 7.81604 1.4043 15.7255C1.4043 23.6349 7.81617 30.0468 15.7256 30.0468Z" fill="white"/>
<path d="M15.7254 31.4509C7.0203 31.4509 0 24.2901 0 15.7254C0 7.16075 7.0203 0 15.7254 0C24.4306 0 31.4509 7.0203 31.4509 15.7254C31.4509 24.4306 24.4306 31.4509 15.7254 31.4509ZM15.7254 2.80808C8.5647 2.80808 2.80808 8.5647 2.80808 15.7254C2.80808 22.8862 8.5647 28.6428 15.7254 28.6428C22.8862 28.6428 28.6428 22.8862 28.6428 15.7254C28.6428 8.5647 22.886 2.80808 15.7254 2.80808Z" fill="#193651"/>
<path d="M10.9516 68.0966H8.14355V70.7642H10.9516V68.0966Z" fill="#193651"/>
<path d="M17.1294 68.0966H14.3213V70.7642H17.1294V68.0966Z" fill="#193651"/>
<path d="M23.4475 68.0966H20.6394V70.7642H23.4475V68.0966Z" fill="#193651"/>
<path d="M23.4478 73.432H8.14355V76.0996H23.4478V73.432Z" fill="#193651"/>
<path d="M19.6569 78.908H11.9346V81.5756H19.6569V78.908Z" fill="#193651"/>
<path d="M23.3074 11.5132L19.2356 8.5647V10.1091H8.14355V12.7769H19.2356V14.4618L23.3074 11.5132Z" fill="#F16051"/>
<path d="M8.14355 19.9375L12.2153 16.9891V18.5335H23.3074V21.2012H12.2153V22.886L8.14355 19.9375Z" fill="#F16051"/>
</svg>
