<svg width="90" height="90" viewBox="0 0 90 90" fill="none" xmlns="http://www.w3.org/2000/svg">
<path d="M44.9999 89.9998C69.8527 89.9998 89.9998 69.8527 89.9998 44.9999C89.9998 20.1472 69.8527 0 44.9999 0C20.1472 0 0 20.1472 0 44.9999C0 69.8527 20.1472 89.9998 44.9999 89.9998Z" fill="#E1E6E9"/>
<path d="M88.5938 67.9219H1.40625V78.4688H88.5938V67.9219Z" fill="#FDBF5E"/>
<path d="M88.5937 79.875H1.40633C0.562494 79.875 0 79.3125 0 78.4686V67.9217C0 67.0779 0.562494 66.5154 1.40633 66.5154H88.5939C89.4377 66.5154 90.0002 67.0779 90.0002 67.9217V78.4686C90 79.172 89.4375 79.875 88.5937 79.875ZM2.81247 77.0625H87.1875V69.328H2.81247V77.0625Z" fill="#193651"/>
<path d="M84.5156 11.5312H5.48438V67.9219H84.5156V11.5312Z" fill="#2EA2DB"/>
<path d="M84.5156 69.328H5.48445C4.64062 69.328 4.07812 68.7655 4.07812 67.9217V11.5312C4.07812 10.6874 4.64062 10.1249 5.48445 10.1249H84.5156C85.3594 10.1249 85.9219 10.6874 85.9219 11.5312V67.9219C85.9219 68.625 85.2187 69.328 84.5156 69.328ZM6.8906 66.5155H83.1094V12.9375H6.8906V66.5155Z" fill="#193651"/>
<path d="M78.8344 17.2391H11.0532V62.3797H78.8344V17.2391Z" fill="white"/>
<path d="M18.7028 41.2032C18.1403 41.2032 17.5778 40.7813 17.4372 40.3593L14.2029 31.9219C13.9215 31.2188 14.3435 30.3751 15.0467 30.0938C15.7499 29.8124 16.5935 30.2344 16.8749 30.9376L18.9842 36.4221L24.7498 24.3283C25.0311 23.9065 25.4529 23.4845 26.0154 23.4845H46.6872C47.5311 23.4845 48.0936 24.047 48.0936 24.8908C48.0936 25.7347 47.5311 26.2971 46.6872 26.2971H26.7184L19.9685 40.5004C19.6871 40.7813 19.2653 41.2032 18.7028 41.2032Z" fill="#193651"/>
<path d="M30.9372 40.0782C30.3747 39.5157 30.234 38.6718 30.7965 38.1093L38.2496 29.3906C38.8121 28.8281 39.656 28.6874 40.2185 29.2499C40.7809 29.8124 40.9216 30.6562 40.3591 31.2187L32.906 39.9375C32.484 40.5 31.6402 40.6407 30.9372 40.0782Z" fill="#193651"/>
<path d="M38.2496 39.9375L30.9372 31.2187C30.3747 30.6562 30.5153 29.6719 31.0778 29.2499C31.6403 28.6874 32.6246 28.8281 33.0467 29.3906L40.3591 38.1093C40.9216 38.6718 40.7809 39.6562 40.2184 40.0782C39.6559 40.6407 38.8121 40.5 38.2496 39.9375Z" fill="#193651"/>
<path d="M71.0152 29.1094L68.6245 26.7188L66.2339 29.1094C65.6714 29.6719 64.8276 29.6719 64.2651 29.1094L61.7338 26.7188L59.3431 29.1094C59.0618 29.3906 58.6399 29.5312 58.3588 29.5312C57.937 29.5312 57.6556 29.3906 57.3745 29.1094L53.9995 25.7344C53.437 25.1719 53.437 24.3281 53.9995 23.7656C54.562 23.2031 55.4058 23.2031 55.9683 23.7656L58.359 26.1563L60.7496 23.7656C61.031 23.4843 61.3121 23.3438 61.7339 23.3438C62.1558 23.3438 62.4371 23.4845 62.7183 23.7656L65.1089 26.1563L67.4996 23.7656C68.062 23.2031 68.9059 23.2031 69.4684 23.7656L72.8433 27.1406C73.4058 27.7031 73.4058 28.5469 72.8433 29.1094C72.562 29.6719 71.5777 29.6719 71.0152 29.1094Z" fill="#193651"/>
<path d="M71.9998 37.4064H54.8436C53.9997 37.4064 53.4373 36.8439 53.4373 36.0001C53.4373 35.1562 53.9997 34.5938 54.8436 34.5938H71.9998C72.8436 34.5938 73.4061 35.1562 73.4061 36.0001C73.4059 36.8437 72.8434 37.4064 71.9998 37.4064Z" fill="#193651"/>
<path d="M71.9998 45.1405H54.8436C53.9997 45.1405 53.4373 44.578 53.4373 43.7342C53.4373 42.8904 53.9997 42.3279 54.8436 42.3279H71.9998C72.8436 42.3279 73.4061 42.8904 73.4061 43.7342C73.4059 44.4374 72.8434 45.1405 71.9998 45.1405Z" fill="#193651"/>
<path d="M57.2341 51.1875H54.4216V54H57.2341V51.1875Z" fill="#193651"/>
<path d="M64.8276 51.1875H62.0151V54H64.8276V51.1875Z" fill="#193651"/>
<path d="M72.4216 51.1875H69.6091V54H72.4216V51.1875Z" fill="#193651"/>
<path d="M47.9529 57.9374H16.8748C16.031 57.9374 15.4685 57.3749 15.4685 56.5311C15.4685 55.6873 16.031 55.1248 16.8748 55.1248H47.9529C48.7967 55.1248 49.3592 55.6873 49.3592 56.5311C49.3592 57.3749 48.656 57.9374 47.9529 57.9374Z" fill="#193651"/>
</svg>
