<svg width="90" height="90" viewBox="0 0 90 90" fill="none" xmlns="http://www.w3.org/2000/svg">
<path d="M44.9999 89.9998C69.8527 89.9998 89.9998 69.8527 89.9998 44.9999C89.9998 20.1471 69.8527 0 44.9999 0C20.1471 0 0 20.1471 0 44.9999C0 69.8527 20.1471 89.9998 44.9999 89.9998Z" fill="#FDBF5E"/>
<path d="M77.4844 66.2344C76.6406 66.2344 76.0781 65.6719 76.0781 64.828V37.6874C76.0781 34.3125 75.375 31.078 74.1093 27.9844C72.1405 28.4062 69.8905 27.5626 68.7655 25.7344C64.6874 19.547 57.7968 15.75 50.4842 15.75H39.5154C32.0623 15.75 25.3122 19.4063 21.2343 25.7344C20.1093 27.5626 17.8593 28.4062 15.8905 27.9844C14.6252 31.078 13.922 34.3125 13.922 37.6874V64.828C13.922 65.6719 13.3595 66.2344 12.5157 66.2344C11.6719 66.2344 11.1094 65.6719 11.1094 64.828V37.6874C11.1094 33.4686 11.9532 29.3905 13.7812 25.5937C13.9218 25.1719 14.203 25.0312 14.625 24.8906C15.0468 24.7499 15.4688 24.7499 15.75 25.0312C16.7343 25.5937 18.1406 25.3126 18.7031 24.3281C23.3438 17.2968 31.0782 13.078 39.3749 13.078H50.3437C58.7811 13.078 66.5155 17.2968 71.0155 24.3281C71.578 25.3124 72.9843 25.5937 73.9686 25.0312C74.25 24.8906 74.6718 24.7499 75.0936 24.8906C75.5154 25.0312 75.7968 25.3124 75.9374 25.5937C77.7656 29.3905 78.6092 33.4686 78.6092 37.6874V64.828C78.8908 65.6719 78.1876 66.2344 77.4844 66.2344Z" fill="#193651"/>
<path d="M76.2187 20.9531C70.4531 12.2344 60.8905 7.03125 50.4843 7.03125H39.5155C29.1093 7.03125 19.5467 12.2344 13.7811 20.9531C12.6561 22.6406 13.2186 24.8906 14.9061 26.0156C16.5936 27.1406 18.8435 26.5781 19.9685 24.8906C24.3278 18.2811 31.6404 14.3437 39.5153 14.3437H50.4841C58.359 14.3437 65.6716 18.2811 70.0309 24.8906C70.734 26.0156 71.859 26.5781 73.1247 26.5781C73.8279 26.5781 74.531 26.4374 75.0935 26.0156C76.7812 24.8906 77.203 22.6406 76.2187 20.9531Z" fill="#E1E6E9"/>
<path d="M16.8751 27.9845C15.8908 27.9845 14.9063 27.7031 14.0626 27.1406C11.672 25.5938 11.1095 22.5 12.5158 20.1094C18.5626 10.9688 28.6876 5.625 39.5157 5.625H50.4844C61.3125 5.625 71.4376 10.9688 77.3439 20.1094C78.047 21.2344 78.3282 22.6407 78.047 23.9062C77.7657 25.1718 76.922 26.4375 75.797 27.1405C74.9532 27.7029 73.9689 27.9843 72.9846 27.9843C71.2971 27.9843 69.6096 27.1405 68.7658 25.7343C64.6877 19.5469 57.797 15.7499 50.4844 15.7499H39.5157C32.0626 15.7499 25.172 19.4062 21.2346 25.7343C20.25 27.1406 18.7032 27.9845 16.8751 27.9845ZM39.5157 8.43747C29.5313 8.43747 20.3907 13.3594 15.0469 21.7968C14.3438 22.7812 14.6251 24.1875 15.7501 24.8907C16.7344 25.5938 18.2814 25.172 18.8439 24.1875C23.4845 17.1562 31.219 12.9374 39.5157 12.9374H50.4844C58.9219 12.9374 66.6563 17.1562 71.1562 24.1875C71.8594 25.1718 73.2656 25.4532 74.2501 24.8907C74.8125 24.6093 75.0939 24.0468 75.2344 23.4843C75.375 22.9218 75.2344 22.2187 74.953 21.7968C69.6094 13.3594 60.3282 8.43747 50.4844 8.43747H39.5157Z" fill="#193651"/>
<path d="M74.9532 47.25H72.4219C71.0156 47.25 70.0312 48.375 70.0312 49.6406V64.8282C70.0312 66.2345 71.1562 67.2188 72.4219 67.2188H74.9532C76.3595 67.2188 77.3438 66.0938 77.3438 64.8282V49.6406C77.4843 48.2343 76.3594 47.25 74.9532 47.25Z" fill="white"/>
<path d="M74.9531 68.7655H72.4218C70.3125 68.7655 68.625 67.078 68.625 64.9687V49.6405C68.625 47.5312 70.3125 45.8438 72.4218 45.8438H74.9531C77.0624 45.8438 78.7499 47.5312 78.7499 49.6405V64.8281C78.8906 66.9376 77.0624 68.7655 74.9531 68.7655ZM72.5625 48.6562C72 48.6562 71.5781 49.078 71.5781 49.6405V64.8281C71.5781 65.3906 72 65.8124 72.5625 65.8124H75.0938C75.6563 65.8124 76.0781 65.3906 76.0781 64.8281V49.6405C76.0781 49.078 75.6563 48.6562 75.0938 48.6562H72.5625Z" fill="#193651"/>
<path d="M77.4844 48.375C80.5782 48.375 83.1093 50.9063 83.1093 53.9999V60.7499C83.1093 63.8437 80.578 66.3748 77.4844 66.3748V48.375Z" fill="white"/>
<path d="M77.484 46.9688C76.6401 46.9688 76.0776 47.5312 76.0776 48.3751V66.2344C76.0776 67.0782 76.6401 67.6407 77.484 67.6407C81.2808 67.6407 84.5152 64.5469 84.5152 60.6095V53.8595C84.3747 50.0626 81.2809 46.9688 77.484 46.9688ZM81.5621 60.6095C81.5621 62.4376 80.4371 63.9844 78.7496 64.5469V49.9219C80.2964 50.4844 81.5621 52.0312 81.5621 53.8593V60.6095Z" fill="#193651"/>
<path d="M17.4376 47.25H14.9063C13.4999 47.25 12.5156 48.375 12.5156 49.6406V64.8282C12.5156 66.2345 13.6406 67.2188 14.9063 67.2188H17.4376C18.8439 67.2188 19.8282 66.0938 19.8282 64.8282V49.6406C19.9689 48.2343 18.8439 47.25 17.4376 47.25Z" fill="white"/>
<path d="M17.4375 68.7655H14.9062C12.7969 68.7655 11.1094 67.078 11.1094 64.9687V49.6405C11.1094 47.5312 12.7969 45.8438 14.9062 45.8438H17.4375C19.5468 45.8438 21.2343 47.5312 21.2343 49.6405V64.8281C21.3749 66.9376 19.6875 68.7655 17.4375 68.7655ZM15.0468 48.6562C14.4843 48.6562 14.0625 49.078 14.0625 49.6405V64.8281C14.0625 65.3906 14.4843 65.8124 15.0468 65.8124H17.5782C18.1406 65.8124 18.5625 65.3906 18.5625 64.8281V49.6405C18.5625 49.078 18.1406 48.6562 17.5782 48.6562H15.0468Z" fill="#193651"/>
<path d="M12.5156 48.375C9.42176 48.375 6.89062 50.9063 6.89062 53.9999V60.7499C6.89062 63.8437 9.42194 66.3748 12.5156 66.3748V48.375Z" fill="white"/>
<path d="M12.5156 46.9688C8.71885 46.9688 5.48438 50.0626 5.48438 54V60.75C5.48438 64.5467 8.57819 67.7812 12.5156 67.7812C13.3595 67.7812 13.922 67.2187 13.922 66.3749V48.3749C13.922 47.5312 13.3595 46.9688 12.5156 46.9688ZM11.1095 64.5469C9.56269 63.9844 8.29703 62.4376 8.29703 60.6095V53.8595C8.29703 52.0314 9.42202 50.4846 11.1095 49.9221V64.5469Z" fill="#193651"/>
<path d="M51.9302 77.6097H41.524C39.8365 77.6097 38.4302 76.2034 38.4302 74.5159C38.4302 72.8284 39.8365 71.4221 41.524 71.4221H51.9302C53.6177 71.4221 55.024 72.8284 55.024 74.5159C55.024 76.2034 53.6177 77.6097 51.9302 77.6097Z" fill="#E1E6E9"/>
<path d="M44.9999 61.8749C53.8537 61.8749 61.0311 54.6975 61.0311 45.8437C61.0311 36.9899 53.8537 29.8125 44.9999 29.8125C36.1462 29.8125 28.9688 36.9899 28.9688 45.8437C28.9688 54.6975 36.1462 61.8749 44.9999 61.8749Z" fill="#2EA2DB"/>
<path d="M45 63.2813C35.2969 63.2813 27.5625 55.4064 27.5625 45.8438C27.5625 36.2812 35.2969 28.2656 45 28.2656C54.5626 28.2656 62.4375 36.1405 62.4375 45.7031C62.4375 55.2657 54.5626 63.2813 45 63.2813ZM45 31.0781C36.9844 31.0781 30.375 37.6875 30.375 45.7031C30.375 53.8594 36.9844 60.4688 45 60.4688C53.0156 60.4688 59.625 53.8594 59.625 45.8438C59.625 37.6875 53.0158 31.0781 45 31.0781Z" fill="#193651"/>
<path d="M45 56.9532C51.1356 56.9532 56.1094 51.9793 56.1094 45.8438C56.1094 39.7082 51.1356 34.7344 45 34.7344C38.8645 34.7344 33.8906 39.7082 33.8906 45.8438C33.8906 51.9793 38.8645 56.9532 45 56.9532Z" fill="white"/>
<path d="M41.7656 40.6406V50.9062L50.9062 45.8437L41.7656 40.6406Z" fill="#F16051"/>
<path d="M39.7968 21.0938H36.9844V23.4844H39.7968V21.0938Z" fill="#193651"/>
<path d="M46.4062 21.0938H43.5938V23.4844H46.4062V21.0938Z" fill="#193651"/>
<path d="M53.0156 21.0938H50.2031V23.4844H53.0156V21.0938Z" fill="#193651"/>
</svg>
