<svg width="90" height="90" viewBox="0 0 90 90" fill="none" xmlns="http://www.w3.org/2000/svg">
<path d="M44.9999 89.9998C69.8527 89.9998 89.9998 69.8527 89.9998 44.9999C89.9998 20.1471 69.8527 0 44.9999 0C20.1471 0 0 20.1471 0 44.9999C0 69.8527 20.1471 89.9998 44.9999 89.9998Z" fill="#FDBF5E"/>
<path d="M60.0468 60.047C66.6562 55.4064 70.8748 47.6719 70.8748 39.0939C70.8748 24.4688 58.6404 12.6564 43.7342 13.3594C30.3749 14.0626 19.5468 25.3125 19.4061 38.6718C19.2655 47.5313 23.6249 55.2655 30.2342 60.0468C31.781 61.1718 32.6248 63 32.6248 64.9688H57.6561C57.6561 63 58.4998 61.172 60.0468 60.047Z" fill="#FDBF5E"/>
<path d="M57.6563 66.375H32.625C31.7812 66.375 31.2187 65.8125 31.2187 64.9687C31.2187 63.4219 30.5155 62.0156 29.3905 61.3124C22.0781 56.1093 17.8593 47.6719 18 38.8125C18.2813 24.6093 29.5312 12.7969 43.7344 12.0937C59.3438 11.2499 72.2813 23.6249 72.2813 39.0936C72.2813 47.8124 68.0625 56.1093 60.8908 61.1717C59.7658 62.0156 59.0626 63.4217 59.0626 64.828C59.0624 65.6719 58.3593 66.375 57.6563 66.375ZM33.8907 63.5624H56.3906C56.672 61.7342 57.797 60.0468 59.3438 58.9218C65.6719 54.4218 69.6093 46.9687 69.6093 39.0938C69.6093 25.1719 57.9375 14.0625 43.8749 14.7657C31.2187 15.4689 21.0936 26.0158 20.8125 38.672C20.6718 46.6876 24.4688 54.2813 31.078 58.9219C32.4844 60.0469 33.6093 61.7344 33.8907 63.5624Z" fill="#193651"/>
<path d="M45.1406 18.5625C44.7187 18.5625 44.4374 18.5625 44.0156 18.5625C33.4687 19.125 24.6092 28.2656 24.4688 38.8125C24.3281 45.5624 27.5626 52.0312 33.1875 55.9686C35.2968 57.5155 36.5625 60.0468 36.5625 62.7186V63.7029H53.7187V62.7186C53.7187 60.0468 54.8436 57.5155 57.0936 55.9686C62.5781 52.0312 65.8124 45.8436 65.8124 39.2343C65.8126 27.7031 56.5313 18.5625 45.1406 18.5625Z" fill="white"/>
<path d="M38.25 79.1719C38.25 82.4062 40.7813 84.9375 44.0156 84.9375H46.4063C49.6406 84.9375 52.1719 82.4062 52.1719 79.1719H38.25Z" fill="white"/>
<path d="M52.0313 77.7656H38.2501C37.4062 77.7656 36.8438 78.3281 36.8438 79.172C36.8438 83.1094 40.078 86.3439 44.0157 86.3439H46.4063C50.3438 86.3439 53.5783 83.1096 53.5783 79.172C53.4376 78.3281 52.8751 77.7656 52.0313 77.7656ZM46.2657 83.5312H43.875C42.0469 83.5312 40.3594 82.2656 39.7969 80.5781H50.3438C49.7813 82.2656 48.2345 83.5312 46.2657 83.5312Z" fill="#193651"/>
<path d="M32.625 64.9688V76.6407C32.625 78.047 33.75 79.172 35.1563 79.172H54.9845C56.3908 79.172 57.5158 78.047 57.5158 76.6407V64.9688H32.625Z" fill="white"/>
<path d="M57.6563 63.5624H32.6251C31.7812 63.5624 31.2188 64.1249 31.2188 64.9687V76.6406C31.2188 78.8906 33.0469 80.5781 35.1562 80.5781H54.9844C57.2343 80.5781 58.9218 78.7499 58.9218 76.6406V64.9687C59.0625 64.1249 58.3593 63.5624 57.6563 63.5624ZM56.25 76.6406C56.25 77.3438 55.6875 77.7656 55.125 77.7656H35.1562C34.453 77.7656 34.0312 77.2031 34.0312 76.6406V66.375H56.25V76.6406Z" fill="#193651"/>
<path d="M56.25 68.3438H34.0312V70.8751H56.25V68.3438Z" fill="#E1E6E9"/>
<path d="M56.25 73.125H34.0312V75.6563H56.25V73.125Z" fill="#E1E6E9"/>
<path d="M79.1722 40.6405H75.6566C74.8127 40.6405 74.2502 40.078 74.2502 39.2342C74.2502 38.3904 74.8127 37.8279 75.6566 37.8279H79.1722C80.016 37.8279 80.5785 38.3904 80.5785 39.2342C80.5784 40.078 79.8752 40.6405 79.1722 40.6405Z" fill="#193651"/>
<path d="M14.6251 40.6405H11.1095C10.2656 40.6405 9.70312 40.078 9.70312 39.2342C9.70312 38.3904 10.2656 37.8279 11.1095 37.8279H14.6251C15.4689 37.8279 16.0314 38.3904 16.0314 39.2342C16.0312 40.078 15.4687 40.6405 14.6251 40.6405Z" fill="#193651"/>
<path d="M70.4531 24.7499C70.0313 24.0467 70.3124 23.2031 71.0156 22.7811L74.1094 21.0936C74.8126 20.6718 75.6562 20.9529 76.0782 21.6561C76.5 22.3592 76.2189 23.2029 75.5157 23.6249L72.2814 25.3124C71.7186 25.5937 70.7342 25.4531 70.4531 24.7499Z" fill="#193651"/>
<path d="M14.4843 56.9532C14.0625 56.25 14.3437 55.4063 15.0468 54.9843L18.1406 53.2968C18.8438 52.875 19.6875 53.1562 20.1095 53.8593C20.5313 54.5625 20.2501 55.4062 19.547 55.8282L16.4532 57.5156C15.75 57.9375 14.9062 57.6563 14.4843 56.9532Z" fill="#193651"/>
<path d="M59.7657 14.0625C59.0626 13.6407 58.9219 12.7968 59.2032 12.0937L60.8907 8.99986C61.3125 8.2967 62.1564 8.15603 62.8595 8.43737C63.5627 8.8592 63.7034 9.70303 63.422 10.4062L61.7346 13.5C61.3125 14.2032 60.4689 14.4843 59.7657 14.0625Z" fill="#193651"/>
<path d="M45.2813 10.125C44.4375 10.125 43.875 9.56255 43.875 8.71871V5.20308C43.875 4.35925 44.4375 3.79675 45.2813 3.79675C46.1252 3.79675 46.6876 4.35925 46.6876 5.20308V8.71871C46.6876 9.42188 46.125 10.125 45.2813 10.125Z" fill="#193651"/>
<path d="M28.8281 13.3593L27.1406 10.2655C26.7188 9.703 26.8594 8.85917 27.5624 8.43734C28.2654 8.01551 29.1092 8.29667 29.5312 8.99983L31.2187 12.0936C31.6405 12.7968 31.3594 13.6405 30.6562 14.0625C30.0937 14.3436 29.2501 14.0625 28.8281 13.3593Z" fill="#193651"/>
<path d="M18.1408 25.0312L15.047 23.3437C14.3438 22.9219 14.2032 22.078 14.4845 21.3749C14.9063 20.6717 15.7501 20.531 16.4533 20.8124L19.5471 22.4999C20.2503 22.9217 20.391 23.7655 20.1096 24.4687C19.6876 25.1718 18.844 25.453 18.1408 25.0312Z" fill="#193651"/>
<path d="M73.9689 57.2343L70.8751 55.5468C70.1719 55.125 70.0313 54.2812 70.3126 53.578C70.7344 52.8748 71.5783 52.7342 72.2814 53.0155L75.3752 54.703C76.0784 55.1248 76.2191 55.9686 75.9377 56.6718C75.5159 57.375 74.6721 57.6563 73.9689 57.2343Z" fill="#193651"/>
<path d="M45.2812 34.7343L49.3594 26.2969L44.0156 24.4688L39.5156 40.2188L46.1249 37.5468L41.9063 48.2344L50.7655 33.6093L45.2812 34.7343Z" fill="#F16051"/>
<path d="M39.9375 52.5936H37.125V55.4061H39.9375V52.5936Z" fill="#193651"/>
<path d="M46.4062 52.5936H43.5938V55.4061H46.4062V52.5936Z" fill="#193651"/>
<path d="M52.875 52.5936H50.0625V55.4061H52.875V52.5936Z" fill="#193651"/>
</svg>
