<svg width="90" height="90" viewBox="0 0 90 90" fill="none" xmlns="http://www.w3.org/2000/svg">
<path d="M44.9304 89.4408C69.6288 89.4408 89.6508 69.4188 89.6508 44.7204C89.6508 20.022 69.6288 0 44.9304 0C20.232 0 0.209961 20.022 0.209961 44.7204C0.209961 69.4188 20.232 89.4408 44.9304 89.4408Z" fill="#FDBF5E"/>
<path d="M84.6197 48.7732H81.8247V51.5682H84.6197V48.7732Z" fill="#193651"/>
<path d="M84.62 56.3197H81.825V59.1147H84.62V56.3197Z" fill="#193651"/>
<path d="M84.62 63.8662H81.825V66.6612H84.62V63.8662Z" fill="#193651"/>
<path d="M23.2691 20.5433H20.4741V23.3383H23.2691V20.5433Z" fill="#193651"/>
<path d="M23.2691 28.09H20.4741V30.885H23.2691V28.09Z" fill="#193651"/>
<path d="M23.2691 35.6364H20.4741V38.4314H23.2691V35.6364Z" fill="#193651"/>
<path d="M75.1169 3.49365H42.9739C42.9739 3.49365 35.9863 27.3912 55.9707 40.1086V51.5682H61.9801V40.1086C82.1043 27.3912 75.1169 3.49365 75.1169 3.49365Z" fill="#2EA2DB"/>
<path d="M62.1198 52.8259H56.1104C55.2718 52.8259 54.7129 52.2669 54.7129 51.4283V40.8071C34.8681 27.6705 41.716 3.35374 41.716 3.07415C41.8558 2.51515 42.4148 2.09595 43.1136 2.09595H75.1166C75.6756 2.09595 76.2346 2.51515 76.5142 3.07415C76.654 3.35374 83.5018 27.6704 63.5174 40.8071V51.4283C63.5174 52.2669 62.8186 52.8259 62.1198 52.8259ZM57.3682 50.0307H60.5824V39.9686C60.5824 39.5493 60.862 38.9903 61.2812 38.8506C78.0514 28.2294 74.9768 9.50275 73.9986 4.89095H44.0918C42.9738 9.50275 39.8993 28.2295 56.8092 38.8506C57.2284 39.1301 57.508 39.5493 57.508 39.9686V50.0307H57.3682Z" fill="#193651"/>
<path d="M46.7473 32.2824C46.6075 32.2824 46.6075 32.2824 46.4677 32.2824C27.4615 29.0682 28.4397 6.84761 28.4397 6.70799C28.4397 6.0092 29.1385 5.4502 29.8373 5.4502H42.4149C42.8341 5.4502 43.2535 5.58999 43.5329 6.0092C43.8125 6.28879 43.9521 6.70799 43.8125 7.1272C42.9739 12.1582 42.4149 21.8012 48.005 30.326C48.2846 30.7452 48.2846 31.444 48.005 31.8632C47.5857 32.003 47.1665 32.2824 46.7473 32.2824ZM31.2349 8.1054C31.3747 12.298 32.6324 24.8756 43.9523 28.7886C40.179 21.1022 40.179 13.2762 40.8777 8.1054C40.8777 8.1054 31.2349 8.1054 31.2349 8.1054Z" fill="#193651"/>
<path d="M71.3436 32.2823C70.9244 32.2823 70.505 32.0027 70.2256 31.7233C69.946 31.3041 69.946 30.6053 70.2256 30.1861C75.676 21.6613 75.117 12.0185 74.4182 6.9873C74.4182 6.5681 74.4182 6.14871 74.6978 5.8693C74.9772 5.4501 75.3965 5.3103 75.676 5.3103H88.2536C88.9524 5.3103 89.6512 5.8693 89.6512 6.5681C89.6512 6.84769 90.6294 28.9283 71.6232 32.1427C71.4834 32.2823 71.4834 32.2823 71.3436 32.2823ZM77.353 8.10531C77.912 13.1363 78.0518 21.1021 74.2784 28.7885C85.738 24.8755 86.856 12.2979 86.9958 8.10531C86.9958 8.10531 77.353 8.10531 77.353 8.10531Z" fill="#193651"/>
<path d="M68.1296 51.4285H50.1016V56.8789H68.1296V51.4285Z" fill="#E1E6E9"/>
<path d="M67.9894 58.2762H50.1012C49.2626 58.2762 48.7036 57.7172 48.7036 56.8786V51.4282C48.7036 50.5896 49.2626 50.0306 50.1012 50.0306H68.1292C68.9678 50.0306 69.5268 50.5896 69.5268 51.4282V56.8786C69.3868 57.7172 68.8278 58.2762 67.9894 58.2762ZM51.4986 55.4812H66.7316V52.826H51.4986V55.4812Z" fill="#193651"/>
<path d="M72.4611 56.8788H45.6289V65.5434H72.4611V56.8788Z" fill="#E1E6E9"/>
<path d="M72.4617 67.0806H45.6295C44.7909 67.0806 44.2319 66.5216 44.2319 65.683V57.0184C44.2319 56.1798 44.7909 55.6208 45.6295 55.6208H72.4617C73.3003 55.6208 73.8593 56.1798 73.8593 57.0184V65.683C73.8593 66.3818 73.1605 67.0806 72.4617 67.0806ZM47.0269 64.2856H71.0641V58.416H47.0269V64.2856Z" fill="#193651"/>
<path d="M59.0449 11.0402L61.4207 15.7918L66.5915 16.4906L62.8183 20.2638L63.6567 25.4346L59.0449 22.9192L54.4331 25.4346L55.2717 20.2638L51.4983 16.4906L56.6693 15.7918L59.0449 11.0402Z" fill="white"/>
<path d="M26.7625 77.8413L42.4147 50.7295H34.4489L18.9365 77.8413H26.7625Z" fill="white"/>
<path d="M26.7629 79.239H18.7971C18.2381 79.239 17.8189 78.9594 17.5393 78.5402C17.2597 78.121 17.2597 77.562 17.5393 77.1427L33.0517 49.8911C33.3313 49.4719 33.7505 49.1923 34.3095 49.1923H42.2753C42.8343 49.1923 43.2535 49.4719 43.5331 49.8911C43.8127 50.3103 43.8127 50.8693 43.5331 51.2886L28.0207 78.5402C27.7413 78.9594 27.3219 79.239 26.7629 79.239ZM21.3127 76.444H26.0643L40.0395 51.9874H35.2879L21.3127 76.444Z" fill="#193651"/>
<path d="M42.415 42.7638H1.46777V50.7296H42.415V42.7638Z" fill="white"/>
<path d="M42.4151 52.1272H1.4679C0.629313 52.1272 0.0703125 51.5682 0.0703125 50.7296V42.7638C0.0703125 41.9252 0.629313 41.3662 1.4679 41.3662H42.4151C43.2537 41.3662 43.8127 41.9252 43.8127 42.7638V50.7296C43.8127 51.4284 43.1139 52.1272 42.4151 52.1272ZM2.8655 49.3322H41.0177V44.1614H2.8655V49.3322Z" fill="#193651"/>
<path d="M16.9802 77.8414L1.46777 50.7296H9.43357L24.9462 77.8414H16.9802Z" fill="white"/>
<path d="M24.9459 79.239H16.9799C16.4209 79.239 16.0017 78.9594 15.7221 78.5402L0.209693 51.2886C-0.0698976 50.8694 -0.0698976 50.3104 0.209693 49.8911C0.489283 49.4717 0.908488 49.1923 1.46749 49.1923H9.43329C9.99229 49.1923 10.4115 49.4719 10.6911 49.8911L26.0637 76.8631C26.2035 77.1426 26.3433 77.4221 26.3433 77.7017C26.3433 78.68 25.7843 79.239 24.9459 79.239ZM17.8185 76.444H22.5701L8.59488 52.1272H3.84329L17.8185 76.444Z" fill="#193651"/>
<path d="M21.8716 87.9034C28.1233 87.9034 33.1914 82.8354 33.1914 76.5836C33.1914 70.3318 28.1233 65.2638 21.8716 65.2638C15.6198 65.2638 10.5518 70.3318 10.5518 76.5836C10.5518 82.8354 15.6198 87.9034 21.8716 87.9034Z" fill="#4FBF9F"/>
<path d="M21.8712 89.4408C14.8836 89.4408 9.15381 83.711 9.15381 76.7234C9.15381 69.7358 14.8836 64.006 21.8712 64.006C28.8588 64.006 34.5886 69.7358 34.5886 76.7234C34.5886 83.711 28.9986 89.4408 21.8712 89.4408ZM21.8712 66.6614C16.4208 66.6614 11.9488 71.1334 11.9488 76.5838C11.9488 82.0342 16.4208 86.5062 21.8712 86.5062C27.3216 86.5062 31.7936 82.0342 31.7936 76.5838C31.7936 71.1334 27.4612 66.6614 21.8712 66.6614Z" fill="#193651"/>
<path d="M21.8715 81.7544C24.7272 81.7544 27.0423 79.4394 27.0423 76.5836C27.0423 73.7279 24.7272 71.4128 21.8715 71.4128C19.0157 71.4128 16.7007 73.7279 16.7007 76.5836C16.7007 79.4394 19.0157 81.7544 21.8715 81.7544Z" fill="white"/>
</svg>
