<svg width="90" height="90" viewBox="0 0 90 90" fill="none" xmlns="http://www.w3.org/2000/svg">
<path d="M44.9251 89.8502C69.7365 89.8502 89.8502 69.7365 89.8502 44.9251C89.8502 20.1137 69.7365 0 44.9251 0C20.1137 0 0 20.1137 0 44.9251C0 69.7365 20.1137 89.8502 44.9251 89.8502Z" fill="#FDBF5E"/>
<path d="M76.373 79.0682C76.373 73.8269 80.5659 69.6339 85.8073 69.6339H13.4778C8.23643 69.6339 4.04346 73.8269 4.04346 79.0682C4.04346 84.3096 8.23643 88.5026 13.4778 88.5026H85.8073C80.5659 88.5026 76.373 84.1598 76.373 79.0682Z" fill="white"/>
<path d="M85.8071 90.0001H13.4776C7.48767 90.0001 2.5459 85.0583 2.5459 79.0683C2.5459 73.0784 7.48767 68.1366 13.4776 68.1366H85.8071C86.7057 68.1366 87.3047 68.7356 87.3047 69.6342C87.3047 70.5328 86.7057 71.1318 85.8071 71.1318C81.4644 71.1318 77.8704 74.7257 77.8704 79.0685C77.8704 83.4113 81.4644 87.0053 85.8071 87.0053C86.7057 87.0053 87.3047 87.6043 87.3047 88.5029C87.3047 89.2515 86.5559 90.0001 85.8071 90.0001ZM13.4776 71.1316C9.13486 71.1316 5.54088 74.7256 5.54088 79.0683C5.54088 83.4111 9.13486 87.0051 13.4776 87.0051H78.3196C76.223 85.0583 74.8754 82.2131 74.8754 79.0683C74.8754 75.9235 76.2232 73.0784 78.3196 71.1316H13.4776Z" fill="#193651"/>
<path d="M13.4776 83.1114C11.2315 83.1114 9.28467 81.3144 9.28467 78.9184C9.28467 76.5224 11.2315 74.8752 13.4776 74.8752H71.7307C71.2815 76.223 71.1317 77.5708 71.1317 79.0682C71.1317 80.5656 71.2815 81.9134 71.7307 83.2612H13.4776V83.1114Z" fill="#E1E6E9"/>
<path d="M76.373 60.1998C76.373 54.9585 80.5659 50.7655 85.8073 50.7655H13.4778C8.23643 50.7655 4.04346 54.9585 4.04346 60.1998C4.04346 65.4412 8.23643 69.6342 13.4778 69.6342H85.8073C80.5659 69.634 76.373 65.2912 76.373 60.1998Z" fill="white"/>
<path d="M85.8071 68.1365C81.4644 68.1365 77.8704 64.5425 77.8704 60.1997C77.8704 55.857 81.4644 52.263 85.8071 52.263C86.7057 52.263 87.3047 51.664 87.3047 50.7654C87.3047 49.8668 86.7057 49.2678 85.8071 49.2678H13.4776C7.48767 49.2678 2.5459 54.2096 2.5459 60.1996C2.5459 66.1895 7.48767 71.1313 13.4776 71.1313H85.8071C86.7057 71.1313 87.3047 70.5323 87.3047 69.6337C87.3047 68.7355 86.5559 68.1365 85.8071 68.1365ZM13.4776 68.1365C9.13486 68.1365 5.54088 64.5425 5.54088 60.1997C5.54088 55.857 9.13486 52.263 13.4776 52.263H78.3196C76.223 54.2098 74.8754 57.055 74.8754 60.1997C74.8754 63.3445 76.2232 66.1897 78.3196 68.1365H13.4776Z" fill="#193651"/>
<path d="M71.7307 56.0066H13.4776C11.2315 56.0066 9.28467 57.8036 9.28467 60.1996C9.28467 62.4458 11.0817 64.3925 13.4776 64.3925H71.7307C71.2815 63.0448 71.1317 61.697 71.1317 60.1996C71.1317 58.7022 71.2813 57.3544 71.7307 56.0066Z" fill="#4FBF9F"/>
<path d="M62.446 29.9502C61.0982 38.7855 55.1082 45.3745 49.2679 44.7755C48.2197 44.6257 47.1713 44.3263 46.2729 43.7273C45.3743 43.1283 44.3261 43.1283 43.4277 43.7273C42.5291 44.3263 41.4809 44.6259 40.4327 44.7755C34.5924 45.3745 28.6024 38.7855 27.2546 29.9502C25.9068 21.1148 29.5008 13.4777 35.3412 12.8787C37.1381 12.7289 38.9351 13.1783 40.5825 14.2265C43.1283 15.8737 46.2731 15.8737 48.8189 14.2265C50.466 13.1783 52.263 12.7289 54.0602 12.8787C60.1996 13.4775 63.9434 21.1148 62.446 29.9502Z" fill="#F16051"/>
<path d="M50.0169 46.123C49.7173 46.123 49.4179 46.123 49.1183 46.123C47.9203 45.9732 46.7223 45.524 45.5243 44.925C45.0751 44.6255 44.6257 44.6255 44.1765 44.925C43.1283 45.524 41.9303 45.9732 40.5826 46.123C33.8438 46.8718 27.2548 39.6837 25.7573 30.0997C24.8587 24.4092 25.907 18.8684 28.7522 15.1246C30.5492 12.8785 32.7954 11.5307 35.1916 11.2311C37.2882 11.0813 39.3846 11.5307 41.4811 12.7287C43.5777 13.9266 46.1233 13.9266 48.2199 12.7287C50.3165 11.5307 52.4129 10.9317 54.5095 11.2311C57.0552 11.5307 59.3014 12.8783 60.9488 15.1246C63.6444 18.7186 64.8424 24.2594 63.9438 30.0997C62.4462 39.2345 56.4561 46.123 50.0169 46.123ZM44.9253 41.7803C45.6741 41.7803 46.4229 41.9301 47.1715 42.3793C47.9203 42.8285 48.6691 43.1281 49.5675 43.1281C54.6591 43.7271 59.9002 37.5873 61.0982 29.6505C61.847 24.7088 60.9484 20.0666 58.7022 17.0714C57.5042 15.4242 56.0067 14.5256 54.2097 14.3758C52.7121 14.226 51.3645 14.5256 49.8669 15.424C46.8719 17.221 42.9783 17.221 39.9834 15.424C38.4858 14.5254 37.1382 14.226 35.6406 14.3758C33.9934 14.5256 32.346 15.424 31.148 17.0714C28.902 20.0666 28.0036 24.7088 28.7522 29.6505C29.9502 37.5873 35.1916 43.7271 40.283 43.1281C41.0318 42.9783 41.9302 42.8285 42.6789 42.3793C43.4279 41.9301 44.1765 41.7803 44.9253 41.7803Z" fill="#193651"/>
<path d="M49.8672 39.3843C49.5676 39.3843 49.2682 39.2345 49.1184 39.0847C47.9204 38.3359 46.4228 37.8867 45.0752 37.8867C43.5776 37.8867 42.23 38.3359 41.032 39.0847C40.7324 39.2345 40.5828 39.3843 40.2832 39.3843H40.1334C37.8873 39.3843 33.9937 35.4908 32.9455 29.0516C32.1967 24.4094 33.2451 20.9651 34.5927 19.3179C35.1917 18.5691 35.7907 18.1199 36.3897 18.1199C36.5395 18.1199 36.5395 18.1199 36.5395 18.1199C37.1385 18.1199 37.8873 18.4195 38.3365 18.7189C40.433 20.0667 42.829 20.6657 45.225 20.6657C47.621 20.6657 50.017 19.9169 52.1136 18.7189C52.5628 18.4193 53.1618 18.1199 53.9106 18.1199H54.0604C54.6593 18.1199 55.2583 18.5691 55.8573 19.3179C57.0553 20.9651 58.2533 24.4094 57.5045 29.0516C56.4563 35.4909 52.5628 39.3843 50.3166 39.3843C50.017 39.3843 49.8672 39.3843 49.8672 39.3843Z" fill="white"/>
<path d="M44.925 16.7721C44.1762 16.7721 43.5772 16.1731 43.4274 15.5741C42.6786 10.9319 44.4756 7.18811 48.0696 5.39093C48.8184 5.09134 49.7168 5.39093 50.0164 6.13973C50.316 6.88852 50.0164 7.78692 49.2676 8.08651C46.8716 9.2845 45.8234 11.6805 46.4224 15.1249C46.5722 15.8737 45.9732 16.7721 45.2244 16.7721C45.0748 16.7721 44.925 16.7721 44.925 16.7721Z" fill="#193651"/>
<path d="M29.3514 58.8521H26.3564V61.5476H29.3514V58.8521Z" fill="#193651"/>
<path d="M41.9305 58.8521H38.9355V61.5476H41.9305V58.8521Z" fill="#193651"/>
<path d="M54.5096 58.8521H51.5146V61.5476H54.5096V58.8521Z" fill="#193651"/>
<path d="M29.3514 77.7205H26.3564V80.416H29.3514V77.7205Z" fill="#193651"/>
<path d="M41.9305 77.7205H38.9355V80.416H41.9305V77.7205Z" fill="#193651"/>
<path d="M54.5096 77.7205H51.5146V80.416H54.5096V77.7205Z" fill="#193651"/>
</svg>
