<svg width="32" height="32" viewBox="0 0 32 32" fill="none" xmlns="http://www.w3.org/2000/svg">
<path d="M16 32C24.8366 32 32 24.9024 32 16.1471C32 7.39178 24.8366 0.294189 16 0.294189C7.16344 0.294189 3.15227e-09 7.39178 7.04078e-09 16.1471C1.09293e-08 24.9024 7.16344 32 16 32Z" fill="#07BC99"/>
<g clip-path="url(#clip0)">
<path d="M20.02 12.8733H12.343C10.2223 12.8733 8.50458 14.5752 8.50458 16.6765C8.50458 18.7777 10.2223 20.4796 12.343 20.4796C13.4178 20.4796 14.387 20.0423 15.0827 19.3387H17.2779C17.9736 20.0423 18.9452 20.4796 20.0176 20.4796C22.1383 20.4796 23.856 18.7777 23.856 16.6765C23.856 14.5752 22.1407 12.8733 20.02 12.8733ZM14.6461 17.1519C14.6461 17.3087 14.5166 17.4371 14.3582 17.4371H13.1107V18.6731C13.1107 18.83 12.9812 18.9584 12.8228 18.9584H11.8632C11.7049 18.9584 11.5753 18.83 11.5753 18.6731V17.4371H10.3278C10.1695 17.4371 10.04 17.3087 10.04 17.1519V16.2011C10.04 16.0442 10.1695 15.9158 10.3278 15.9158H11.5753V14.6798C11.5753 14.5229 11.7049 14.3946 11.8632 14.3946H12.8228C12.9812 14.3946 13.1107 14.5229 13.1107 14.6798V15.9158H14.3582C14.5166 15.9158 14.6461 16.0442 14.6461 16.2011V17.1519ZM19.0603 18.7682C18.4246 18.7682 17.9088 18.2572 17.9088 17.6273C17.9088 16.9974 18.4246 16.4863 19.0603 16.4863C19.6961 16.4863 20.2119 16.9974 20.2119 17.6273C20.2119 18.2572 19.6961 18.7682 19.0603 18.7682ZM20.9796 16.8666C20.3438 16.8666 19.828 16.3556 19.828 15.7257C19.828 15.0958 20.3438 14.5847 20.9796 14.5847C21.6153 14.5847 22.1311 15.0958 22.1311 15.7257C22.1311 16.3556 21.6153 16.8666 20.9796 16.8666Z" fill="white"/>
</g>
<defs>
<clipPath id="clip0">
<rect x="8.50458" y="10.5914" width="15.3538" height="12.1702" fill="white"/>
</clipPath>
</defs>
</svg>
