<svg width="70" height="44" viewBox="0 0 70 44" fill="none" xmlns="http://www.w3.org/2000/svg">
<path opacity="0.15" d="M63.0222 40.3656C63.0222 42.0323 50.5369 43.3775 35.1217 43.3775C19.7122 43.3775 7.21643 42.0323 7.21643 40.3656C7.21643 38.7077 19.7117 37.3555 35.1217 37.3555C50.5321 37.3569 63.0222 38.7082 63.0222 40.3656Z" fill="#666666"/>
<path d="M28.3054 32.8228C28.3054 32.8228 28.8524 38.0449 28.6721 39.4852L32.6717 39.3015L31.221 38.4022L30.7644 33.1754" fill="#91A83C"/>
<path d="M46.5938 32.0931L47.2359 38.4918L50.3037 38.2988L48.6865 36.8721L48.4154 30.4734L46.5938 32.0931Z" fill="#91A83C"/>
<path d="M65.134 7.81639L65.0822 7.90914C65.0822 7.90914 62.5613 8.35173 58.6469 8.07864C54.7287 7.79614 52.8832 5.36659 53.9477 5.36659C55.3746 5.36659 65.9821 4.91929 65.9821 4.91929C66.1524 4.85808 66.3288 4.76391 66.4815 4.63208C66.4296 4.07648 66.2727 3.56327 66.0059 3.10796C65.0927 1.54806 63.0622 0.841797 61.1925 0.358241C60.8881 0.276786 60.1846 0.202863 59.3951 0.159075C58.9095 0.135533 58.4058 0.116699 57.9011 0.116699C55.0093 0.116699 49.7669 0.568708 47.1566 3.59764C45.8534 5.10292 44.8213 6.80737 44.065 8.13185C43.1038 9.45492 40.465 12.7602 36.2552 15.4582C35.0414 16.2398 33.8095 16.8754 32.1685 17.5633C32.1124 17.5689 32.0687 17.5769 32.0173 17.5958C31.9555 17.6146 25.7204 19.6487 17.6965 19.6487C16.3124 19.6487 14.9374 19.5874 13.6056 19.4697C13.2812 19.4401 12.9402 19.4274 12.6059 19.4274C11.1362 19.4274 9.63887 19.7099 8.15823 20.264C4.60527 21.5829 1.59929 24.3938 0.477273 27.3978C-0.0792153 28.8988 -0.149609 30.4159 0.268946 31.7813C0.901535 33.8436 1.96267 35.5434 3.42761 36.8382C6.094 39.2027 9.3045 39.5512 10.9835 39.5512C11.2784 39.5512 11.5733 39.5417 11.8596 39.5196H11.8967C12.1783 39.5196 13.1295 39.4678 13.7707 38.7884C14.0656 38.4838 14.4033 37.9173 14.341 37.0039C14.2653 35.7529 13.1709 35.3277 11.7773 34.7862C10.788 34.4049 9.56087 33.9302 8.08594 33.0305C7.59651 32.7291 7.08283 31.6881 7.13468 30.7464C7.16416 30.1211 7.43432 29.6771 7.92898 29.4417C7.98605 29.4135 8.11542 29.3711 8.38083 29.3711C9.93138 29.3711 13.2988 30.8213 15.9809 32.2715C16.0323 32.3233 16.1098 32.3892 16.2287 32.4457C16.7281 32.691 17.2095 32.9683 17.7175 33.2602C20.0633 34.6243 22.9822 36.3146 31.1868 36.3146C31.9954 36.3146 32.8515 36.2958 33.7319 36.2642C35.7676 36.1889 37.9037 35.9723 40.0673 35.638C49.209 34.1878 52.7472 27.7467 54.1084 22.5815C54.1703 22.4167 54.2373 22.2661 54.3082 22.1013C54.5023 21.6634 54.721 21.1643 54.859 20.3121C54.9303 19.8728 55.0835 19.4128 55.2452 18.9278C55.3593 18.5846 55.473 18.2314 55.5691 17.8543C55.8207 16.9126 56.0585 15.9332 56.2773 14.9445L56.2873 14.8786C56.2973 14.751 56.6821 11.812 60.06 10.8576C61.9107 10.3302 64.3079 9.64749 65.5726 8.00284C65.4384 7.92939 65.2957 7.85876 65.134 7.81639Z" fill="#ABC241"/>
<path d="M13.6947 35.794C13.7466 35.9438 13.7808 36.1095 13.7946 36.3025C13.8517 37.215 13.514 37.781 13.2191 38.087C12.5765 38.7641 11.6219 38.8121 11.3461 38.8121H11.3023C11.0169 38.8357 10.722 38.8498 10.4329 38.8498C8.75816 38.8498 5.54766 38.4967 2.87414 36.1326C2.33667 35.657 1.85248 35.125 1.42346 34.5364C1.95569 35.3981 2.59351 36.1594 3.3355 36.8153C6.00854 39.1789 9.21429 39.5321 10.8895 39.5321C11.1834 39.5321 11.484 39.5226 11.7646 39.5005L11.8027 39.5052C12.0785 39.5052 13.0346 39.4487 13.6805 38.7693C13.9706 38.4647 14.3083 37.8982 14.2512 36.9848C14.2227 36.4673 14.0134 36.0954 13.6947 35.794ZM64.7394 7.82129C64.7394 7.82129 65.0533 7.9955 64.6638 8.04258C63.3268 9.21969 61.0866 9.70466 59.5075 10.1477C56.1353 11.1139 55.7505 14.0458 55.7357 14.1682L55.7215 14.2389C55.5079 15.2323 55.2701 16.207 55.018 17.1487C54.9181 17.5268 54.8049 17.8799 54.6908 18.2222C54.5291 18.7119 54.3821 19.1738 54.3103 19.6112C54.1723 20.4587 53.9535 20.9578 53.7585 21.4004C53.6877 21.5605 53.6206 21.7158 53.564 21.8811C52.2018 27.0505 48.6631 33.4916 39.5215 34.9371C37.3574 35.2808 35.2275 35.4927 33.1908 35.568C32.3062 35.601 31.4448 35.6198 30.6415 35.6198C22.4425 35.6198 19.5212 33.9234 17.1725 32.5594C16.6641 32.2627 16.1832 31.9849 15.6838 31.7448C15.5697 31.6888 15.4888 31.6177 15.436 31.5711C12.7582 30.1157 9.39075 28.6711 7.83972 28.6711C7.57812 28.6711 7.45018 28.7135 7.3931 28.7403C6.89845 28.9814 6.62781 29.4188 6.59404 30.0451C6.55076 30.869 6.9365 31.7683 7.35933 32.1766C7.15909 31.7495 7.02639 31.2222 7.05445 30.7221C7.08727 30.0959 7.3541 29.658 7.85351 29.4179C7.90583 29.3882 8.0352 29.3473 8.2968 29.3473C9.85687 29.3473 13.2201 30.8022 15.9021 32.2524C15.9502 32.3042 16.031 32.3701 16.1447 32.4266C16.6446 32.6667 17.125 32.9492 17.6339 33.2411C19.9788 34.6052 22.9134 36.3816 31.118 36.3816C31.9266 36.3816 32.6886 36.3581 33.5723 36.3252C35.608 36.2498 37.8201 35.9621 39.9833 35.6189C49.5578 34.1075 52.6579 27.7276 54.0197 22.5624C54.0815 22.4023 54.1481 22.247 54.2242 22.0822C54.414 21.6443 54.6332 21.1452 54.7707 20.2977C54.8411 19.8645 54.9947 19.3984 55.1564 18.9087C55.2653 18.5654 55.3842 18.2123 55.4841 17.8352C55.7319 16.8935 55.965 15.9202 56.1876 14.9254L56.1976 14.8594C56.2118 14.7318 56.6023 11.799 59.9698 10.8432C61.8209 10.3205 64.2505 9.64722 65.5156 8.00868C65.3967 7.92723 65.1827 7.90039 65.021 7.85801C64.982 7.90133 64.7394 7.82129 64.7394 7.82129Z" fill="#8BAD3E"/>
<path d="M65.9188 3.0374C65.0113 1.47421 63.2896 0.725568 61.4194 0.241542C61.1197 0.160086 60.4115 0.0861642 59.6167 0.0376674C59.1311 0.0141253 58.6279 0 58.1233 0C55.2314 0 49.9852 0.452009 47.3783 3.47482C46.0755 4.98622 45.0434 6.69067 44.2867 8.01515C43.3254 9.34151 40.6819 12.6374 36.4721 15.3448C35.2583 16.1216 34.0264 16.7573 32.3855 17.4508C32.3379 17.4555 32.2808 17.4635 32.2342 17.4791C32.1724 17.5026 25.9373 19.5367 17.9134 19.5367C16.5294 19.5367 15.1495 19.4755 13.8225 19.3577C13.4948 19.3248 13.1571 19.3107 12.8228 19.3107C11.3478 19.3107 9.85007 19.5932 8.37514 20.1473C4.83264 21.4751 1.8257 24.2813 0.708924 27.2957C0.31415 28.3678 0.161948 29.4507 0.266111 30.4786C0.327943 29.8382 0.471108 29.1885 0.712253 28.5387C1.83094 25.5253 4.84168 22.7238 8.37942 21.3913C9.85483 20.8343 11.3569 20.5575 12.8275 20.5575C13.1595 20.5575 13.4972 20.5716 13.8263 20.6059C15.1586 20.7284 16.5317 20.7849 17.9172 20.7849C25.9411 20.7849 32.1814 18.7508 32.2385 18.732C32.286 18.7132 32.3431 18.7037 32.3902 18.699C34.0302 18.0116 35.263 17.376 36.4759 16.5991C40.6857 13.8974 43.3297 10.6015 44.291 9.27277C45.0472 7.95441 46.0793 6.24996 47.3826 4.73856C49.9885 1.71575 55.2352 1.26374 58.1271 1.26374C58.6322 1.26374 59.1402 1.27645 59.6248 1.30612C60.4144 1.34849 61.1231 1.42854 61.4275 1.50858C63.2972 1.98931 65.3276 2.69557 66.2408 4.2583C66.3269 4.40567 66.2922 4.57376 66.3598 4.72914C66.4492 4.68206 66.4026 4.7056 66.4834 4.64062C66.423 4.05442 66.1852 3.48941 65.9188 3.0374Z" fill="#C2D17A"/>
<path d="M24.3059 34.6167C24.3059 34.6167 24.8567 39.8383 24.6726 41.2838L28.6774 41.1035L27.2182 40.1995L26.7663 34.9778" fill="#ABC241"/>
<path d="M43.0505 33.5386L43.6879 40.6531H47.141L45.5952 39.2123L45.0529 32.9077L43.0505 33.5386Z" fill="#ABC241"/>
<path d="M55.7023 3.28228C55.6976 3.91792 55.1839 4.42172 54.5375 4.42172C53.9049 4.4156 53.3912 3.90238 53.3912 3.26816C53.3969 2.63723 53.9154 2.12401 54.5565 2.13343C55.1934 2.13343 55.7118 2.64665 55.7023 3.28228Z" fill="white"/>
<path d="M55.4121 3.50369C55.4416 3.78149 55.2361 4.03574 54.9555 4.06305C54.6749 4.09601 54.418 3.89025 54.3905 3.61717C54.361 3.33325 54.5607 3.0837 54.8471 3.05686C55.122 3.01873 55.3788 3.22119 55.4121 3.50369Z" fill="#211F1F"/>
<path d="M64.0449 3.28228C64.0401 3.91792 63.5207 4.42172 62.8848 4.42172C62.2522 4.4156 61.7338 3.90238 61.7338 3.26816C61.7385 2.63723 62.2579 2.12401 62.8991 2.13343C63.5359 2.13343 64.0544 2.64665 64.0449 3.28228Z" fill="white"/>
<path d="M63.759 3.54129C63.7885 3.81909 63.584 4.07334 63.3024 4.10065C63.0218 4.13832 62.765 3.92644 62.7374 3.65476C62.7079 3.37085 62.9086 3.1213 63.194 3.09446C63.4694 3.05632 63.7262 3.25879 63.759 3.54129Z" fill="#211F1F"/>
<path d="M58.8318 4.13454C58.8508 4.30405 58.7229 4.45943 58.5512 4.48297C58.3752 4.49568 58.2235 4.37467 58.2044 4.20517C58.1854 4.03567 58.3091 3.88029 58.4851 3.86146C58.6558 3.83791 58.8128 3.96504 58.8318 4.13454Z" fill="white"/>
<path d="M60.4205 4.13454C60.4391 4.30405 60.3112 4.45943 60.1447 4.48297C59.9687 4.49568 59.8175 4.37467 59.798 4.20517C59.7789 4.03567 59.9026 3.88029 60.0786 3.86146C60.2493 3.83791 60.4063 3.96504 60.4205 4.13454Z" fill="white"/>
<path d="M58.7699 5.20801C58.7699 5.20801 59.9533 6.46516 61.0772 6.53107C63.2984 6.66291 65.2685 6.69116 65.5286 8.01093C65.5286 8.01093 55.5356 9.62592 53.6188 5.79232C53.6188 5.79232 53.2136 5.24097 54.7133 5.24097C56.6201 5.25038 58.7699 5.20801 58.7699 5.20801Z" fill="#E7198C"/>
<path d="M55.2741 6.03682C55.2741 6.23928 55.1072 6.40878 54.9041 6.40878C54.6953 6.40878 54.5331 6.24399 54.5331 6.04153C54.5331 5.8353 54.7 5.67474 54.9088 5.67474C55.1076 5.66485 55.2741 5.82965 55.2741 6.03682Z" fill="white"/>
<path d="M56.3063 6.75706C56.3063 6.95482 56.1399 7.1149 55.9448 7.1149C55.7451 7.1149 55.5829 6.95482 55.5829 6.75706C55.5829 6.55319 55.7451 6.39404 55.9448 6.39404C56.1446 6.39404 56.3063 6.5546 56.3063 6.75706Z" fill="white"/>
<path d="M57.5619 7.35491C57.5619 7.55784 57.405 7.71793 57.2004 7.71793C56.9997 7.71793 56.838 7.55643 56.838 7.35491C56.838 7.15716 57.0054 6.99707 57.2004 6.99707C57.405 6.99707 57.5619 7.15716 57.5619 7.35491Z" fill="white"/>
<path d="M58.8556 7.66089C58.8556 7.82568 58.7225 7.95281 58.5555 7.95281C58.389 7.95281 58.2559 7.82098 58.2559 7.66089C58.2559 7.49468 58.389 7.36426 58.5555 7.36426C58.7225 7.36897 58.8556 7.49609 58.8556 7.66089Z" fill="white"/>
<path d="M60.078 7.82109C60.078 7.95763 59.9691 8.06593 59.8302 8.06593C59.698 8.06593 59.5876 7.9581 59.5876 7.82109C59.5876 7.68407 59.6966 7.58096 59.8302 7.58096C59.9686 7.57625 60.078 7.68454 60.078 7.82109Z" fill="white"/>
<path d="M61.3337 7.83989C61.3337 7.97172 61.2248 8.08473 61.0907 8.08473C60.9528 8.08473 60.8429 7.9769 60.8429 7.8446C60.8429 7.70805 60.9518 7.59976 61.0907 7.59976C61.2243 7.59505 61.3337 7.70334 61.3337 7.83989Z" fill="white"/>
<path d="M62.832 7.86811C62.832 8.00465 62.7231 8.11766 62.5842 8.11766C62.4511 8.11766 62.3364 8.00983 62.3364 7.87282C62.3364 7.74098 62.4496 7.63128 62.5842 7.63128C62.7226 7.62327 62.832 7.73156 62.832 7.86811Z" fill="white"/>
<path d="M68.9867 7.80226C68.9867 7.93881 68.8778 8.0471 68.7441 8.0471C68.6062 8.0471 68.4963 7.93928 68.4963 7.80226C68.4963 7.67043 68.6053 7.56213 68.7441 7.56213C68.8773 7.55789 68.9867 7.66572 68.9867 7.80226Z" fill="white"/>
<path d="M69.7002 7.52926C69.7002 7.66581 69.5913 7.77457 69.4576 7.77457C69.3197 7.77457 69.2098 7.66157 69.2098 7.52926C69.2098 7.39272 69.3188 7.28442 69.4576 7.28442C69.5908 7.28442 69.7002 7.39272 69.7002 7.52926Z" fill="white"/>
<path d="M68.7916 6.89823C68.7916 7.03477 68.6827 7.14778 68.5491 7.14778C68.4111 7.14778 68.3013 7.03948 68.3013 6.89823C68.3013 6.76639 68.4102 6.6581 68.5491 6.6581C68.6822 6.65339 68.7916 6.76639 68.7916 6.89823Z" fill="white"/>
<path d="M63.0078 6.73823C63.0078 6.87477 62.8937 6.98307 62.7643 6.98307C62.6264 6.98307 62.5165 6.87524 62.5165 6.73823C62.5165 6.60121 62.6254 6.49292 62.7643 6.49292C62.8984 6.49339 63.0078 6.60639 63.0078 6.73823Z" fill="white"/>
<path d="M61.7714 6.62519C61.7714 6.75703 61.6624 6.87003 61.5236 6.87003C61.3904 6.87003 61.2758 6.75844 61.2758 6.62519C61.2758 6.48865 61.3894 6.37988 61.5236 6.37988C61.662 6.38082 61.7714 6.48865 61.7714 6.62519Z" fill="white"/>
<path d="M60.6202 6.37561C60.6202 6.52298 60.4961 6.64069 60.3491 6.64069C60.2064 6.64069 60.0823 6.52298 60.0823 6.37561C60.0823 6.22635 60.2064 6.10864 60.3491 6.10864C60.5013 6.11194 60.6202 6.22965 60.6202 6.37561Z" fill="white"/>
<path d="M59.5928 5.82003C59.5928 5.99424 59.4501 6.13079 59.2741 6.13079C59.1038 6.13079 58.9602 5.99424 58.9602 5.82003C58.9602 5.65053 59.1038 5.50928 59.2741 5.50928C59.4501 5.51399 59.5928 5.65524 59.5928 5.82003Z" fill="white"/>
<path d="M26.9078 31.787C26.9078 32.327 26.4607 32.7758 25.9085 32.7758C25.362 32.7758 24.9087 32.3332 24.9087 31.787C24.9087 31.2408 25.3553 30.8015 25.9085 30.8015C26.4607 30.8029 26.9078 31.2408 26.9078 31.787Z" fill="#8BAD3E"/>
<path d="M32.601 32.3144C32.601 32.8559 32.1549 33.2999 31.607 33.2999C31.0552 33.2999 30.6077 32.8573 30.6077 32.3144C30.6077 31.7697 31.0505 31.3304 31.607 31.3304C32.1539 31.3257 32.601 31.7635 32.601 32.3144Z" fill="#8BAD3E"/>
<path d="M39.7306 30.7277C39.7306 31.2724 39.2836 31.7164 38.7313 31.7164C38.1848 31.7164 37.7363 31.2691 37.7363 30.7277C37.7363 30.1862 38.1796 29.7422 38.7313 29.7422C39.2836 29.7436 39.7306 30.1862 39.7306 30.7277Z" fill="#8BAD3E"/>
<path d="M44.7057 31.3633C44.7057 31.9047 44.2587 32.3473 43.7112 32.3473C43.1647 32.3473 42.7114 31.9057 42.7114 31.3633C42.7114 30.8171 43.1633 30.3745 43.7112 30.3745C44.2582 30.3792 44.7057 30.8171 44.7057 31.3633Z" fill="#8BAD3E"/>
<path d="M46.4799 28.124C46.4799 28.6701 46.0366 29.108 45.4849 29.108C44.9389 29.108 44.4908 28.6701 44.4908 28.124C44.4908 27.5825 44.9375 27.1338 45.4849 27.1338C46.0419 27.1399 46.4799 27.5825 46.4799 28.124Z" fill="#8BAD3E"/>
<path d="M49.5809 26.6125C49.5809 27.0598 49.2099 27.4224 48.7623 27.4224C48.3109 27.4224 47.949 27.0598 47.949 26.6125C47.949 26.1652 48.3109 25.8013 48.7675 25.8013C49.2099 25.8032 49.5809 26.1652 49.5809 26.6125Z" fill="#8BAD3E"/>
<path d="M36.3109 33.0864C36.3109 33.4711 35.9922 33.788 35.6031 33.788C35.2136 33.788 34.8949 33.4711 34.8949 33.0864C34.8949 32.6956 35.2136 32.3802 35.6031 32.3802C35.9922 32.3755 36.3109 32.6956 36.3109 33.0864Z" fill="#8BAD3E"/>
<path d="M40.0446 27.6865C40.0446 28.0721 39.7311 28.3875 39.3364 28.3875C38.9416 28.3875 38.6229 28.0721 38.6229 27.6865C38.6229 27.3013 38.9416 26.9858 39.3364 26.9858C39.7311 26.9858 40.0446 27.2999 40.0446 27.6865Z" fill="#8BAD3E"/>
<path d="M29.3666 28.7878C29.3666 29.1833 29.0479 29.4941 28.6531 29.4941C28.2584 29.4941 27.9397 29.1833 27.9397 28.7878C27.9397 28.4017 28.2631 28.0862 28.6531 28.0862C29.0479 28.0815 29.3666 28.397 29.3666 28.7878Z" fill="#8BAD3E"/>
</svg>
