<svg width="32" height="32" viewBox="0 0 32 32" fill="none" xmlns="http://www.w3.org/2000/svg">
<path d="M16 32C24.8366 32 32 24.8366 32 16C32 7.16344 24.8366 -9.5852e-10 16 -6.1749e-10C7.16344 -2.7646e-10 -2.76205e-10 7.16344 -6.16922e-10 16C-9.57638e-10 24.8366 7.16344 32 16 32Z" fill="#8B74FF"/>
<path d="M18.2 20.5971L18.0184 21.3396C17.4735 21.5547 17.0382 21.7184 16.7141 21.8309C16.3896 21.9438 16.0125 22 15.583 22C14.9233 22 14.4102 21.8384 14.0442 21.5174C13.6782 21.1951 13.4952 20.7868 13.4952 20.2914C13.4952 20.0996 13.5085 19.9023 13.5361 19.7013C13.5639 19.5001 13.6082 19.2735 13.6688 19.0202L14.3498 16.6098C14.4104 16.379 14.4619 16.1603 14.5031 15.9535C14.545 15.748 14.5651 15.5589 14.5651 15.3887C14.5651 15.0808 14.5014 14.8655 14.3745 14.7445C14.2476 14.6238 14.0055 14.5625 13.6461 14.5625C13.47 14.5625 13.2891 14.5907 13.1046 14.6452C12.9194 14.7 12.7611 14.7529 12.6281 14.802L12.8102 14.0589C13.2563 13.8773 13.6828 13.7217 14.0907 13.5926C14.4986 13.4632 14.884 13.3984 15.2486 13.3984C15.9037 13.3984 16.4093 13.5568 16.7643 13.8734C17.1193 14.1904 17.2967 14.6012 17.2967 15.1074C17.2967 15.2122 17.2851 15.3967 17.26 15.6605C17.2356 15.9249 17.19 16.1671 17.1236 16.3874L16.4455 18.7881C16.3899 18.981 16.3399 19.2014 16.2965 19.4494C16.2516 19.6959 16.2302 19.8842 16.2302 20.0104C16.2302 20.3292 16.3013 20.5469 16.4437 20.6626C16.5873 20.7783 16.8345 20.8358 17.1857 20.8358C17.3506 20.8358 17.5381 20.8066 17.7466 20.7491C17.9544 20.6917 18.106 20.6412 18.2 20.5971ZM18.372 10.5181C18.372 10.9364 18.2144 11.2936 17.8976 11.5874C17.5816 11.8821 17.2008 12.0296 16.7554 12.0296C16.3086 12.0296 15.9269 11.8821 15.6073 11.5874C15.2883 11.2935 15.1284 10.9364 15.1284 10.5181C15.1284 10.1007 15.2883 9.74288 15.6073 9.44542C15.9263 9.14844 16.3087 9 16.7554 9C17.2007 9 17.5816 9.14879 17.8976 9.44542C18.2146 9.74288 18.372 10.1008 18.372 10.5181Z" fill="white"/>
</svg>
