<svg width="32" height="32" viewBox="0 0 32 32" fill="none" xmlns="http://www.w3.org/2000/svg">
<path d="M16 32C24.8366 32 32 24.8366 32 16C32 7.16344 24.8366 1.09389e-08 16 7.04694e-09C7.16344 3.15502e-09 3.18151e-09 7.16344 7.10611e-09 16C1.10307e-08 24.8366 7.16344 32 16 32Z" fill="#FF4B64"/>
<g clip-path="url(#clip0)">
<path d="M21.802 10.393C21.802 9.8722 21.2958 9.50514 20.804 9.66108L13.1273 11.9282C12.8082 12.0289 12.5899 12.324 12.5899 12.6599L12.5899 18.9315C12.3488 18.8744 12.0929 18.8374 11.8222 18.8374C10.5503 18.8374 9.51917 19.5247 9.51917 20.3728C9.51917 21.2209 10.5503 21.9082 11.8222 21.9082C13.0942 21.9082 14.1253 21.2209 14.1253 20.3728L14.1253 14.7665L20.2669 12.9667L20.2669 17.3961C20.0258 17.339 19.7698 17.302 19.4992 17.302C18.2272 17.302 17.1961 17.9893 17.1961 18.8374C17.1961 19.6855 18.2272 20.3728 19.4992 20.3728C20.7711 20.3728 21.8022 19.6855 21.8022 18.8374L21.802 10.393V10.393Z" fill="white"/>
</g>
<defs>
<clipPath id="clip0">
<rect x="9.51917" y="9.62512" width="12.2831" height="12.2831" fill="white"/>
</clipPath>
</defs>
</svg>
