<svg width="32" height="32" viewBox="0 0 32 32" fill="none" xmlns="http://www.w3.org/2000/svg">
<path d="M16 32C24.8366 32 32 24.8366 32 16C32 7.16345 24.8366 1.09389e-08 16 7.04694e-09C7.16344 3.15502e-09 3.18152e-09 7.16345 7.10612e-09 16C1.10307e-08 24.8366 7.16344 32 16 32Z" fill="#9483CC"/>
<g clip-path="url(#clip0)">
<path d="M21.7479 19.1133L21.7479 9.54115C21.7479 9.16225 21.4545 8.85742 21.0898 8.85742L12.0969 8.85742C10.6437 8.85742 9.46478 10.0824 9.46478 11.5923L9.46478 20.7087C9.46478 22.2186 10.6437 23.4436 12.0969 23.4436L21.0898 23.4436C21.4545 23.4436 21.7479 23.1388 21.7479 22.7599L21.7479 22.304C21.7479 22.0904 21.6519 21.8967 21.5038 21.7713C21.3887 21.3326 21.3887 20.0819 21.5038 19.6432C21.6519 19.5207 21.7479 19.327 21.7479 19.1133ZM12.9742 12.6749C12.9742 12.5809 13.0483 12.504 13.1387 12.504L18.9513 12.504C19.0417 12.504 19.1158 12.5809 19.1158 12.6749L19.1158 13.2447C19.1158 13.3387 19.0417 13.4156 18.9513 13.4156L13.1387 13.4156C13.0483 13.4156 12.9742 13.3387 12.9742 13.2447L12.9742 12.6749ZM12.9742 14.4982C12.9742 14.4042 13.0483 14.3272 13.1387 14.3272L18.9513 14.3272C19.0417 14.3272 19.1158 14.4042 19.1158 14.4982L19.1158 15.0679C19.1158 15.162 19.0417 15.2389 18.9513 15.2389L13.1387 15.2389C13.0483 15.2389 12.9742 15.162 12.9742 15.0679L12.9742 14.4982ZM19.9218 21.6203L12.0969 21.6203C11.6116 21.6203 11.2195 21.2129 11.2195 20.7087C11.2195 20.2073 11.6143 19.797 12.0969 19.797L19.9218 19.797C19.8698 20.2842 19.8698 21.1332 19.9218 21.6203Z" fill="white"/>
</g>
<defs>
<clipPath id="clip0">
<rect x="9.46478" y="8.85742" width="12.2831" height="14.5862" fill="white"/>
</clipPath>
</defs>
</svg>
