<svg width="32" height="32" viewBox="0 0 32 32" fill="none" xmlns="http://www.w3.org/2000/svg">
<circle cx="16" cy="16" r="16" fill="#4267B2"/>
<g clip-path="url(#clip0)">
<path d="M21.2382 11.2382H10.762C9.97303 11.2382 9.33344 11.8778 9.33344 12.6667V19.3334C9.33344 20.1224 9.97303 20.762 10.762 20.762H21.2382C22.0272 20.762 22.6668 20.1224 22.6668 19.3334V12.6667C22.6668 11.8778 22.0272 11.2382 21.2382 11.2382ZM21.7144 16.7553L18.7177 13.7586C18.5318 13.5727 18.2303 13.5727 18.0444 13.7586L14.0953 17.7077L12.5272 16.1396C12.3413 15.9536 12.0399 15.9536 11.8539 16.1396L10.2858 17.7077V12.6667C10.2858 12.4037 10.499 12.1905 10.762 12.1905H21.2382C21.5012 12.1905 21.7144 12.4037 21.7144 12.6667V16.7553H21.7144Z" fill="white"/>
<path d="M13.6192 16C14.4082 16 15.0478 15.3604 15.0478 14.5714C15.0478 13.7824 14.4082 13.1428 13.6192 13.1428C12.8302 13.1428 12.1906 13.7824 12.1906 14.5714C12.1906 15.3604 12.8302 16 13.6192 16Z" fill="white"/>
</g>
<defs>
<clipPath id="clip0">
<rect x="9.33344" y="9.33337" width="13.3333" height="13.3333" fill="white"/>
</clipPath>
</defs>
</svg>
