<svg width="43" height="58" viewBox="0 0 43 58" fill="none" xmlns="http://www.w3.org/2000/svg">
<path d="M27.6829 20.0145C27.6285 20.1046 27.5505 20.1785 27.4573 20.2284C27.2951 20.322 27.1083 20.3649 26.9211 20.3515C26.7148 20.3615 26.5185 20.263 26.4046 20.0923C25.9967 19.485 25.6621 18.8324 25.4074 18.1479C25.0805 17.3443 25.1295 17.4771 24.6293 16.2652C24.3798 15.6358 24.0746 15.0296 23.7172 14.4537C23.3626 14.0124 22.9238 13.6446 22.4258 13.3714C22.0537 13.2272 21.6608 13.143 21.2619 13.1218C20.617 13.0881 19.9704 13.1405 19.3395 13.2774C18.9785 13.3556 18.6461 13.5304 18.3784 13.7829C18.301 13.8854 18.2016 13.9695 18.0874 14.0292C17.7756 14.1451 17.4826 14.3056 17.2177 14.5056C16.4952 15.0305 16.6064 15.8471 16.9856 16.1615C16.9856 16.1615 16.9856 16.1615 17.0052 16.1615C17.0052 15.9508 17.0052 15.7694 17.051 15.7758C17.3365 15.9362 17.6678 15.9978 17.9926 15.9508C18.3947 15.8957 18.6464 16.4985 18.6464 16.4985L18.7118 16.3235C18.7629 16.4902 18.8425 16.6469 18.9472 16.7869C18.9722 16.761 18.9931 16.7315 19.0093 16.6994C19.1303 16.8485 19.3363 16.9457 19.3363 17.192C19.311 17.4646 19.1709 17.714 18.9505 17.879C18.8426 17.9762 18.2084 18.4947 17.5349 19.1752C17.1851 19.5284 17.0085 19.7455 16.6554 20.1279C16.5291 20.3012 16.3387 20.4177 16.1258 20.452H16.0441C15.8754 20.4507 15.7151 20.3789 15.6027 20.2543C15.5308 20.1636 12.1045 15.6754 10.4633 13.5237C13.4384 10.6461 18.3685 10.1697 19.6174 10.2604C19.9051 10.2799 20.2321 10.5067 19.8692 10.9766C20.4359 11.0874 21.0238 10.9709 21.5038 10.6525C21.9835 10.9719 22.5718 11.0885 23.1385 10.9766C22.7756 10.5067 23.1025 10.2799 23.3935 10.2604C24.613 10.1697 29.3012 10.3901 32.5738 13.595C30.9751 15.6916 28.8369 18.3488 27.6698 20.0015L27.6829 20.0145ZM42.1464 28.7705C42.251 17.8984 39.8579 11.8094 37.7524 8.82162C38.4651 7.88835 38.9032 7.31477 38.9359 7.2856C39.2813 6.92373 39.7443 6.69423 40.2436 6.63749C40.4236 5.58255 40.6759 4.541 40.9988 3.52008C40.1192 4.14405 39.1835 4.68643 38.2036 5.14036C38.3031 5.63212 38.207 6.14298 37.9355 6.5662C37.9061 6.60509 37.5726 7.04904 37.0168 7.77817C36.0189 6.60582 34.819 5.61834 33.4729 4.86167C33.1002 4.65103 32.698 4.45012 32.2665 4.25569C32.3006 3.69166 32.0969 3.13891 31.7041 2.72939C31.6601 2.33958 31.4114 2.0019 31.0503 1.84148C30.6351 1.77363 30.211 1.89238 29.8929 2.16553C29.2887 2.25676 28.7358 2.55486 28.3302 3.00807C26.8806 2.71056 25.4109 2.51886 23.933 2.4345C23.755 1.6916 23.2513 1.06641 22.5598 0.729967C22.3369 0.333878 21.938 0.0658262 21.4842 0.00732422C21.0307 0.0663212 20.6319 0.334236 20.4086 0.729967C19.7186 1.06753 19.2164 1.69243 19.0388 2.4345C17.5643 2.51736 16.0979 2.7069 14.6513 3.00159C14.2457 2.54838 13.6928 2.25028 13.0886 2.15905C12.7708 1.88549 12.3465 1.76668 11.9312 1.835C11.5701 1.99542 11.3214 2.3331 11.2774 2.72291C10.881 3.13038 10.6757 3.68429 10.7118 4.24921C10.2802 4.44364 9.8781 4.64455 9.50539 4.85519C8.16602 5.57664 6.9847 6.5548 6.0301 7.7328L5.19969 6.63425C4.92519 6.21219 4.82891 5.70015 4.9316 5.20841C3.95081 4.75412 3.01405 4.21177 2.13306 3.58813C2.45528 4.61539 2.70542 5.66351 2.88173 6.72499C3.38142 6.78036 3.84496 7.01009 4.18946 7.3731C4.21888 7.39902 4.6014 7.90131 5.23565 8.72765C3.13674 11.696 0.691275 17.8336 0.795893 28.7769C0.795893 29.7912 0.370883 39.2698 3.48656 45.657C4.25783 47.1279 5.26729 48.4634 6.47473 49.6104C7.87142 50.9268 9.58242 51.8701 11.4474 52.3519L11.6762 52.4135C14.0171 53.0454 16.0342 52.6825 16.845 52.2158L16.7273 52.5043C16.6946 52.5788 16.6489 52.6987 16.6227 52.7635C16.1879 53.9398 16.4789 55.155 18.0809 55.3397C18.5805 55.3596 19.0724 55.4694 19.5324 55.6638C20.0257 55.9041 20.4693 56.2338 20.8402 56.636C21.1603 56.9822 21.4359 57.3664 21.6608 57.7799C21.8846 57.3666 22.1591 56.9824 22.4781 56.636C22.8503 56.2353 23.2936 55.9058 23.7858 55.6638C24.246 55.4697 24.7378 55.36 25.2374 55.3397C26.8394 55.155 27.1369 53.9431 26.6988 52.7667C26.6727 52.7019 26.6269 52.5788 26.5909 52.501L26.4732 52.2158C27.5848 52.864 30.998 53.35 34.2771 51.289C36.5172 49.9646 38.3235 48.0268 39.4786 45.7088C42.5943 39.3185 42.1758 29.6519 42.1627 28.7834" fill="white"/>
<path fill-rule="evenodd" clip-rule="evenodd" d="M41.4988 25.8045C40.5802 26.5402 39.7138 27.2822 36.8564 28.909L36.1143 29.3108V28.7794C36.1143 28.721 36.3202 21.5367 32.7992 15.3473C32.5736 15.6389 31.8347 16.5755 31.073 17.5347C31.5587 17.4769 32.0435 17.6498 32.3807 18.0013C33.5044 19.2235 34.3911 20.6406 34.9961 22.1816C35.4251 23.4415 35.6244 24.7671 35.5846 26.0962C35.5846 26.0962 35.1563 33.4134 34.3128 40.4194C33.5478 46.7839 33.1261 47.6199 33.1261 47.6199C32.7339 47.0965 32.4576 46.4969 32.3153 45.8603L32.2466 45.9219C31.8918 45.3416 31.649 44.701 31.5307 44.0326C31.2233 42.6036 31.1678 40.0533 31.2037 38.8186C31.1857 38.4772 31.0884 38.1445 30.9193 37.8464C30.7796 37.5613 30.6701 37.2627 30.5924 36.9553C30.1314 35.011 29.229 34.4439 28.7321 33.8379C28.1997 33.1922 27.7597 32.4769 27.4244 31.7121L27.3753 31.7542C27.1087 31.963 26.906 32.2413 26.7901 32.5579C26.9013 33.7018 27.0092 34.5184 26.8359 35.0984C26.7672 35.0596 26.6561 34.9494 26.594 34.904C26.6724 35.6591 26.3128 36.5243 26.5417 37.2307L26.0905 37.1692C26.1034 37.2073 26.1198 37.2442 26.1395 37.2793C26.1985 37.3619 26.2771 37.4287 26.3684 37.4738L26.5155 37.5418C26.5547 37.558 26.6692 37.6034 26.9797 37.7039C27.1922 37.2297 27.1149 36.677 26.7803 36.278C26.5645 36.022 26.8261 35.6299 27.2707 35.8373C27.9578 36.1335 28.5856 36.5495 29.1244 37.0655C30.0693 37.9534 30.3472 38.8089 30.1445 38.9774C29.9418 39.1459 29.8731 39.0811 29.6867 39.0163C29.6917 39.0496 29.6917 39.0834 29.6867 39.1167C29.6254 39.2956 29.4719 39.428 29.2846 39.4635L29.2617 39.4991C29.1637 39.6385 29.0002 39.6903 28.7125 39.6838C28.5201 39.666 28.3332 39.6097 28.1632 39.5186C28.0942 39.4847 28.0312 39.4398 27.9769 39.3857C27.9213 39.4278 27.8657 39.47 27.8102 39.5186C28.5556 40.5167 29.9843 42.1596 31.0043 43.9614C31.4342 44.7152 31.7921 45.5071 32.0734 46.327C31.7782 46.4004 31.4694 46.4004 31.1743 46.327C31.3442 46.7457 31.4255 47.1947 31.413 47.6459C30.9091 47.6739 30.4075 47.5617 29.9646 47.3218C29.9646 47.4061 29.9973 47.4903 30.0104 47.5746C30.4681 47.8986 30.9912 48.2778 31.2037 48.4333C28.9675 49.4735 25.7243 48.9972 25.6459 48.9875L25.2274 48.9291C25.2078 48.9874 25.1783 49.0587 25.1489 49.1333C25.368 49.6485 25.878 50.8443 25.9891 51.0776C27.4113 51.7257 28.7354 52.1437 30.7722 51.8067C31.1862 51.7383 31.5925 51.6298 31.9851 51.4827C33.4085 50.8996 34.7125 50.0639 35.8331 49.0166C36.981 47.9541 37.952 46.7182 38.7101 45.3548C41.1883 40.5588 41.5969 33.4458 41.5969 30.5714V29.0775C41.5969 28.1053 41.5283 26.5337 41.4923 25.8045" fill="#EA0029"/>
<path fill-rule="evenodd" clip-rule="evenodd" d="M17.3585 51.0095C17.4565 50.7437 17.9044 49.6808 18.1333 49.1429C18.1006 49.0489 18.0712 48.9582 18.045 48.8642C17.7377 48.9161 17.4271 48.9614 17.1165 48.9906C16.9073 49.0101 13.8243 49.4832 11.5881 48.4397C11.8595 48.2518 12.3695 47.837 13.0593 47.393C13.0593 47.3477 13.0789 47.3023 13.0854 47.2569C12.6436 47.4993 12.1412 47.6117 11.6371 47.581C11.6277 47.1297 11.71 46.6812 11.8791 46.2621C11.5841 46.3364 11.275 46.3364 10.98 46.2621C11.2591 45.4419 11.616 44.6499 12.0458 43.8965C12.7694 42.6913 13.5882 41.5449 14.4945 40.468C14.5717 40.1804 14.72 39.9164 14.9261 39.6999L15.0634 39.5541C14.9686 39.4731 14.8803 39.4018 14.7953 39.337C14.7347 39.4075 14.6602 39.4649 14.5763 39.5055C14.4064 39.5964 14.2194 39.6516 14.027 39.6675C13.7393 39.6675 13.5791 39.6254 13.4778 39.4861L13.4582 39.4504C13.2712 39.413 13.1175 39.2815 13.0528 39.1037C13.048 39.0693 13.048 39.0344 13.0528 39C12.9196 39.069 12.7569 39.0469 12.6474 38.9449C12.4479 38.7764 12.7226 37.9209 13.6641 37.033C14.2041 36.5168 14.833 36.1009 15.5211 35.8048C15.9657 35.6071 16.224 35.9863 16.0082 36.2423C15.6724 36.6437 15.5975 37.2 15.8153 37.6746C16.0834 37.5839 16.188 37.5417 16.2305 37.5255C16.3796 37.481 16.5103 37.3901 16.6033 37.2663C16.6215 37.2358 16.6358 37.2031 16.6457 37.1691L16.2534 37.2144C16.4529 36.7251 16.1455 35.5229 16.3482 34.7484C16.2645 34.8083 16.1746 34.8593 16.0802 34.9007C15.9597 34.1136 15.9367 33.3148 16.0115 32.5221C15.9054 32.2536 15.728 32.0185 15.4982 31.8416C15.1891 32.5779 14.7667 33.2622 14.2461 33.8702C13.7491 34.4762 12.8468 35.0271 12.3858 36.9844C12.3086 37.2909 12.199 37.5885 12.0589 37.8723C11.8904 38.1706 11.7931 38.5031 11.7744 38.8444C11.8039 40.0791 11.7516 42.6327 11.4475 44.0585C11.3272 44.7268 11.0834 45.3673 10.7283 45.9477L10.6596 45.8862C10.5209 46.5239 10.2443 47.1243 9.84881 47.6458C9.84881 47.6458 9.42706 46.8097 8.66204 40.4453C7.81855 33.4392 7.39028 26.122 7.39028 26.122C7.35278 24.8036 7.55204 23.4891 7.97875 22.2399C8.58388 20.6989 9.47052 19.2818 10.5942 18.0595C10.9671 17.671 11.5164 17.5018 12.0458 17.6124C11.9118 17.4276 11.7581 17.2267 11.7581 17.2267C11.271 16.5786 10.7119 15.8851 10.2313 15.2565C6.77891 21.2871 6.86391 28.4812 6.86391 28.5427V29.3107L6.25909 28.9867C4.56434 28.0852 2.96335 27.0204 1.47933 25.8077C1.44337 26.5401 1.36816 29.0159 1.36816 29.0159C1.36816 29.0159 1.36816 29.5797 1.36816 30.5227C1.36816 33.3971 1.888 40.455 4.25499 45.3061C4.98403 46.6861 5.93475 47.9393 7.06988 49.0165C8.2672 50.128 9.70046 50.9596 11.2644 51.4502C11.356 51.4794 11.5358 51.5409 11.6273 51.5668C13.5232 52.1578 15.5785 51.9759 17.3388 51.0613L17.3585 51.0095Z" fill="#EA0029"/>
<path fill-rule="evenodd" clip-rule="evenodd" d="M18.826 52.8308C18.8918 51.7505 19.014 50.6742 19.1922 49.6064C19.0381 49.77 18.8567 49.9059 18.656 50.0083C18.6135 50.0083 18.5645 49.9597 18.5089 49.8916L17.2012 53.0576C17.6529 52.6683 18.2936 52.5794 18.8358 52.8308" fill="#EA0029"/>
<path fill-rule="evenodd" clip-rule="evenodd" d="M24.0769 53.6798C24.1162 52.7886 23.75 50.3938 23.5277 49.0296C23.5048 48.9972 23.4787 48.9583 23.4558 48.9194C23.4088 48.8591 23.3652 48.7964 23.325 48.7314C23.2373 49.0221 23.1281 49.3059 22.9981 49.5805C22.8961 49.8339 22.745 50.0651 22.5534 50.261C22.066 49.9228 21.6842 49.4557 21.4517 48.9129C21.2146 49.4449 20.8374 49.9038 20.3597 50.2415C20.1673 50.0451 20.0161 49.8126 19.9151 49.5578C19.8456 49.4089 19.7845 49.2564 19.732 49.1009C19.5162 50.5332 19.2024 52.8307 19.2416 53.6798C17.9012 52.8016 17.0871 53.6798 17.3617 54.289C17.3881 54.3401 17.4187 54.3888 17.4533 54.4348C17.6071 54.6429 17.8472 54.7714 18.1071 54.7848C18.6771 54.798 19.2386 54.9247 19.7582 55.1575C20.4971 55.5171 21.1417 56.0418 21.6413 56.6902C22.139 56.0412 22.7827 55.5164 23.5212 55.1575C24.0357 54.9268 24.5914 54.8002 25.1558 54.7848C25.413 54.7619 25.6494 54.6354 25.8097 54.4348C25.8454 54.3903 25.8751 54.3412 25.898 54.289C26.1759 53.6765 25.3618 52.8016 24.0214 53.6798" fill="#EA0029"/>
<path fill-rule="evenodd" clip-rule="evenodd" d="M24.5511 50.0081C24.3867 49.9238 24.2367 49.8144 24.1064 49.6841C24.3046 50.7216 24.4378 51.7703 24.5053 52.8242C25.0474 52.5719 25.6886 52.6609 26.14 53.051C26.14 53.0348 25.3194 50.9706 24.8322 49.7132C24.7636 49.8254 24.6736 49.9233 24.5674 50.0017" fill="#EA0029"/>
<path d="M41.6041 29.0775C41.6041 28.1053 41.5354 26.5336 41.4994 25.8045C40.5807 26.5401 39.7144 27.2822 36.857 28.9122L36.1148 29.3108V28.7793C36.1148 28.721 36.3175 21.5367 32.7997 15.344C32.5774 15.6389 31.8353 16.5754 31.0735 17.5314C31.5596 17.4765 32.0436 17.6504 32.3813 18.0013C33.5039 19.2243 34.3904 20.6412 34.9967 22.1816C35.4257 23.4415 35.625 24.767 35.5852 26.0962C35.5852 26.0962 35.1569 33.4133 34.3134 40.4194C33.5484 46.7871 33.1267 47.6199 33.1267 47.6199C32.7344 47.0965 32.4582 46.4969 32.3159 45.8603L32.2472 45.9219C31.8924 45.3416 31.6496 44.7009 31.5312 44.0326C31.2239 42.6068 31.1716 40.0532 31.2043 38.8218C31.1865 38.4803 31.0892 38.1476 30.9199 37.8496C30.7796 37.5637 30.67 37.2639 30.5929 36.9552C30.132 35.0109 29.2296 34.4503 28.7327 33.8411C28.2003 33.1954 27.7602 32.4801 27.425 31.7153L27.3759 31.7574C27.1072 31.9656 26.9042 32.2455 26.7907 32.5643C26.9019 33.705 27.0098 34.5086 26.8365 35.1017C26.7678 35.0628 26.6567 34.9526 26.5946 34.9072C26.673 35.6623 26.3134 36.5275 26.5422 37.2339L26.0911 37.1724C26.1039 37.2105 26.1204 37.2474 26.1401 37.2825C26.199 37.3651 26.2777 37.4319 26.369 37.477L26.5161 37.545C26.5553 37.5645 26.6665 37.6034 26.9803 37.7071C27.1952 37.2332 27.1177 36.6793 26.7809 36.2812C26.5651 36.0252 26.8267 35.6331 27.2713 35.8405C27.9583 36.1367 28.5862 36.5527 29.125 37.0687C30.0698 37.9566 30.3445 38.8121 30.145 38.9838C29.9456 39.1556 29.8737 39.0843 29.6873 39.0195C29.6923 39.0528 29.6923 39.0866 29.6873 39.1199C29.6248 39.2993 29.4701 39.4317 29.2819 39.4667L29.2623 39.5023C29.1642 39.6417 29.0008 39.6935 28.7131 39.687C28.5206 39.6692 28.3338 39.6129 28.1638 39.5218C28.0948 39.4879 28.0318 39.443 27.9775 39.3889L27.8107 39.5218C28.5562 40.5166 29.9848 42.1628 31.0049 43.9646C31.4352 44.7193 31.7931 45.5124 32.0739 46.3334C31.7787 46.4057 31.4701 46.4057 31.1749 46.3334C31.3448 46.7522 31.426 47.2011 31.4135 47.6523C30.9097 47.6804 30.408 47.5681 29.9652 47.3283C29.9652 47.4125 29.9946 47.4968 30.011 47.581C30.4687 47.9051 30.9918 48.2842 31.2043 48.4398C28.9681 49.48 25.7249 49.0036 25.6464 48.9939L25.228 48.9356C25.2084 48.9939 25.1789 49.0652 25.1495 49.1397C25.3686 49.6517 25.8753 50.8507 25.9897 51.084C27.4119 51.7322 28.736 52.1502 30.7728 51.8132C31.1868 51.7448 31.593 51.6362 31.9857 51.4891C33.4102 50.9053 34.7145 50.0672 35.8337 49.0166C36.9823 47.9547 37.9534 46.7187 38.7107 45.3548C41.1856 40.5587 41.5975 33.4457 41.5975 30.5714V29.0775H41.6041ZM26.1238 53.0575L24.816 49.7198C24.7493 49.8323 24.6603 49.9304 24.5545 50.0082C24.3883 49.9252 24.237 49.8158 24.1066 49.6841C24.3048 50.7217 24.438 51.7704 24.5055 52.8242C25.0478 52.5737 25.688 52.6625 26.1401 53.0511L26.1238 53.0575ZM24.087 53.6732C24.1262 52.7821 23.76 50.3873 23.5377 49.0263L23.4658 48.9129C23.42 48.8545 23.3775 48.793 23.335 48.7282C23.2468 49.0176 23.1375 49.3002 23.0081 49.574C22.9061 49.8274 22.7551 50.0586 22.5635 50.2545C22.076 49.9163 21.6942 49.4492 21.4617 48.9064C21.2257 49.4391 20.8483 49.8982 20.3697 50.235C20.1773 50.0385 20.0262 49.8061 19.9251 49.5513C19.8557 49.4024 19.7945 49.2499 19.742 49.0944C19.5263 50.5267 19.2124 52.8242 19.2516 53.6732C17.9112 52.7951 17.0971 53.6732 17.3718 54.2825C17.3981 54.3335 17.4287 54.3823 17.4633 54.4283C17.6165 54.6371 17.857 54.7658 18.1172 54.7783C18.6872 54.7915 19.2486 54.9182 19.7682 55.1509C20.5071 55.5106 21.1517 56.0352 21.6513 56.6837C22.149 56.0347 22.7927 55.5099 23.5312 55.1509C24.0457 54.9203 24.6014 54.7936 25.1659 54.7783C25.423 54.7554 25.6594 54.6289 25.8197 54.4283C25.8555 54.3837 25.8852 54.3347 25.908 54.2825C26.1859 53.67 25.3718 52.7951 24.0314 53.6732H24.087ZM17.1658 53.0511C17.6175 52.6617 18.2583 52.5728 18.8005 52.8242C18.8663 51.7439 18.9885 50.6677 19.1666 49.5999C19.0126 49.7634 18.8312 49.8993 18.6305 50.0017C18.588 50.0017 18.5389 49.9531 18.4833 49.885L17.1756 53.0511H17.1658ZM17.3097 51.0549L17.3293 51.003C17.4273 50.7373 17.8752 49.6744 18.1041 49.1365C18.0714 49.0425 18.0452 48.9485 18.0158 48.8578C17.7085 48.9096 17.3979 48.9518 17.0873 48.9842C16.8781 49.0036 13.7951 49.4767 11.5589 48.4333C11.8302 48.2453 12.3403 47.8273 13.0301 47.3866C13.0301 47.3412 13.0497 47.2958 13.0563 47.2505C12.6144 47.4928 12.112 47.6053 11.6079 47.5745C11.5988 47.1233 11.681 46.6748 11.8499 46.2556C11.5549 46.33 11.2458 46.33 10.9508 46.2556C11.2299 45.4355 11.5868 44.6434 12.0166 43.89C12.741 42.6854 13.5597 41.539 14.4653 40.4615C14.5425 40.1739 14.6908 39.9099 14.8969 39.6935L15.0342 39.5477C14.9394 39.4667 14.8544 39.3954 14.7661 39.3306C14.7055 39.4011 14.631 39.4584 14.5471 39.4991C14.3766 39.5891 14.19 39.6453 13.9978 39.6643C13.7101 39.6643 13.5499 39.619 13.4486 39.4796L13.429 39.444C13.242 39.4065 13.0883 39.2751 13.0236 39.0972C13.0186 39.0629 13.0186 39.0279 13.0236 38.9936C12.8892 39.0621 12.7259 39.0401 12.6149 38.9385C12.4155 38.77 12.6934 37.9112 13.6349 37.0265C14.1757 36.5106 14.8044 36.0937 15.4919 35.7951C15.9365 35.6007 16.1948 35.9798 15.979 36.2391C15.6435 36.6391 15.5673 37.1938 15.7829 37.6682C16.0542 37.5774 16.1588 37.5353 16.2014 37.5191C16.35 37.4737 16.4804 37.383 16.5741 37.2599C16.5909 37.2287 16.6051 37.1961 16.6166 37.1626L16.2242 37.208C16.4269 36.7154 16.1163 35.5164 16.319 34.7419C16.2353 34.8018 16.1454 34.8529 16.051 34.8943C15.9305 34.1071 15.9075 33.3084 15.9823 32.5157C15.8834 32.2529 15.7165 32.0204 15.4984 31.8417C15.1899 32.5772 14.7675 33.2606 14.2463 33.867C13.7494 34.4762 12.847 35.0271 12.386 36.9844C12.3089 37.2909 12.1993 37.5886 12.0591 37.8723C11.8907 38.1706 11.7934 38.5032 11.7747 38.8445C11.8074 40.0791 11.7518 42.6327 11.4477 44.0585C11.3267 44.7261 11.0841 45.3663 10.7318 45.9478L10.6598 45.8862C10.5211 46.524 10.2445 47.1243 9.84904 47.6458C9.84904 47.6458 9.42729 46.8098 8.66227 40.4453C7.81878 33.4392 7.39051 26.1221 7.39051 26.1221C7.35051 24.7929 7.54978 23.4674 7.97898 22.2075C8.58531 20.6671 9.47182 19.2502 10.5944 18.0272C10.9673 17.6386 11.5167 17.4694 12.046 17.58C11.912 17.3953 11.7583 17.1944 11.7583 17.1944C11.2712 16.5463 10.7121 15.8528 10.2348 15.2241C6.77913 21.2548 6.86741 28.4456 6.86741 28.5104V29.2784L6.26258 28.9543C4.56762 28.0532 2.96659 26.9884 1.48282 25.7753C1.44686 26.5077 1.37167 28.9835 1.37167 28.9835C1.37167 28.9835 1.37167 29.5473 1.37167 30.4903C1.37167 33.3647 1.89149 40.4226 4.25848 45.2737C4.98267 46.6655 5.93252 47.9299 7.07011 49.0166C8.26662 50.1291 9.70015 50.9608 11.2647 51.4502L11.6276 51.5669C13.5235 52.1578 15.5788 51.9759 17.3391 51.0614L17.3097 51.0549ZM1.53186 25.0009C3.01065 26.2215 4.59847 27.3061 6.27566 28.2414C6.33366 23.527 7.56204 18.8994 9.85231 14.7672L8.90421 13.5196C8.57561 13.8388 8.16523 14.0629 7.71743 14.1677C7.75534 13.268 7.55469 12.3741 7.13549 11.5752C6.24674 11.6099 5.35729 11.5271 4.4906 11.329C2.74151 15.0394 1.85552 19.3202 1.53186 24.9911V25.0009ZM4.50368 11.2966C4.90624 11.0651 5.26028 10.7593 5.5466 10.3957C5.69952 10.1809 5.83507 9.9544 5.952 9.71841L5.59237 9.26149C5.19678 9.90961 4.83715 10.5966 4.50368 11.2966ZM6.27566 9.07354C6.32177 8.98526 6.37652 8.90168 6.43913 8.82402C5.57929 7.70603 4.99735 6.95746 4.94177 6.87969C4.64951 6.45726 4.5122 5.94828 4.55273 5.43764C3.92945 5.15193 3.33032 4.81708 2.76113 4.43631L6.27566 9.06382V9.07354ZM6.38681 8.16619L6.67125 8.53885C8.1242 6.74163 10.0565 5.3843 12.2487 4.62103C12.0722 4.3553 11.8172 3.76552 12.4809 3.12065C13.4617 3.24379 13.7134 3.83357 13.7886 4.13818C15.8204 3.62427 17.9041 3.33838 20.0003 3.28592C20.082 1.68185 21.2328 1.29298 21.2328 1.29298C21.245 1.12181 21.345 0.968828 21.4977 0.887911C21.6507 0.968937 21.7517 1.12154 21.7658 1.29298C21.7658 1.29298 22.9133 1.68185 22.995 3.28592C25.0912 3.33888 27.1748 3.62475 29.2067 4.13818C29.2656 3.83357 29.5108 3.24379 30.4949 3.12065C31.1487 3.76876 30.9068 4.3553 30.727 4.62103C32.9516 5.40211 34.9125 6.7824 36.3895 8.6069L36.6804 8.22452C35.2958 6.57725 33.5227 5.2939 31.5182 4.48816C31.7156 3.94168 31.568 3.33117 31.1422 2.9327C31.1421 2.69879 31.0179 2.48217 30.8153 2.36236C30.57 2.3527 30.3322 2.44698 30.1614 2.62161C29.5495 2.69062 29.0112 3.05435 28.7229 3.59377C27.0047 3.20243 25.2535 2.97027 23.492 2.90029C23.4585 2.07145 22.9508 1.33421 22.1842 1.00133C22.1318 0.664832 21.8395 0.416535 21.496 0.416535C21.1525 0.416535 20.8603 0.664832 20.8078 1.00133C20.0418 1.33483 19.5344 2.0717 19.5001 2.90029C17.7385 2.97027 15.9874 3.20243 14.2692 3.59377C13.9817 3.05358 13.443 2.68952 12.8307 2.62161C12.6601 2.44613 12.4225 2.35072 12.1768 2.35912C11.9746 2.48091 11.8507 2.69815 11.8499 2.9327C11.424 3.33117 11.2765 3.94168 11.4739 4.48816C9.49156 5.27714 7.74193 6.54883 6.38681 8.18563V8.16619ZM36.6052 8.90179C36.6314 8.94068 36.7327 9.12215 36.7622 9.16752L40.3944 4.38123C39.8258 4.76384 39.2266 5.09982 38.6028 5.3858C38.6446 5.89601 38.5059 6.40472 38.2105 6.8246L36.6052 8.90179ZM37.3703 9.34899C37.2656 9.49157 37.0433 9.79295 37.0433 9.79295C37.3397 10.4293 37.8396 10.9509 38.4655 11.2771C38.1378 10.6161 37.7755 9.97255 37.3801 9.34899H37.3703ZM31.9988 15.4639C32.1426 15.2695 32.8357 14.3524 33.7675 13.1242C33.6994 13.0475 33.6381 12.9651 33.5844 12.878C32.9305 13.727 32.2766 14.5954 31.662 15.4347C31.227 15.9914 30.8264 16.5736 30.4622 17.1782C30.4622 17.3596 31.6489 15.937 31.9988 15.4639ZM20.1147 48.3004C20.2151 48.6113 20.3431 48.9128 20.4972 49.2013C20.9422 48.7675 21.2237 48.1956 21.295 47.581C21.1452 47.7034 20.9892 47.8181 20.8275 47.9245C20.5463 48.0865 20.2945 48.2129 20.1147 48.2972V48.3004ZM12.3533 48.2972C13.3113 48.6634 15.9496 48.699 17.205 48.5467C18.577 48.4129 19.8921 47.9356 21.0269 47.1597C20.7653 46.9329 20.4384 46.6413 20.1017 46.3204C19.7047 46.6691 19.2654 46.9674 18.7939 47.2084C17.3767 47.7107 15.8997 48.0288 14.4 48.1546C14.4 48.1546 17.6693 47.4255 18.7939 46.813C19.1531 46.5859 19.4921 46.329 19.8074 46.045C19.3889 45.6432 18.9737 45.2381 18.6664 44.9335C18.4756 45.1019 18.2747 45.2588 18.0649 45.4034C17.5856 45.6932 17.0786 45.9353 16.5512 46.126C15.07 46.6799 13.6616 47.4088 12.3566 48.2972H12.3533ZM16.0967 29.327C16.27 28.7955 16.4662 25.3897 15.1159 23.925C15.6305 25.6872 15.9592 27.4975 16.0967 29.327ZM13.5205 20.8821C13.4469 21.3561 13.4624 21.8395 13.5663 22.308C13.6533 22.5883 13.7627 22.8613 13.8932 23.1246C13.9243 22.36 13.7986 21.5971 13.5238 20.8821H13.5205ZM14.2136 21.9742C14.2136 22.9463 14.4098 23.6495 14.7465 24.8259C14.7825 23.5815 14.5209 22.3144 14.2136 21.9742ZM9.2671 13.0108L11.1731 15.5287C11.5229 16.0018 12.7195 17.4277 12.7097 17.2462C12.3455 16.6399 11.9437 16.0566 11.5066 15.4996C10.8527 14.5987 10.1302 13.6622 9.44038 12.7516C9.37499 12.8455 9.31941 12.933 9.2671 13.0108ZM8.38438 8.3509C8.28303 8.24072 8.02148 8.02684 7.38396 8.46432C6.2495 9.43648 6.61567 10.3212 5.44852 11.1021C5.78921 11.1655 6.13499 11.198 6.48162 11.1993C6.64665 11.2006 6.81159 11.1909 6.9753 11.1702C7.19107 11.1475 7.36435 11.1118 7.52128 11.0892C7.81225 11.7373 8.17514 12.3335 8.17514 13.4418C9.53845 12.7256 8.98267 10.4119 10.2512 10.4378L8.38438 8.35738V8.3509ZM34.4442 7.81945C33.4756 6.9256 32.3571 6.2062 31.1389 5.69365C27.4805 4.10578 22.8381 4.09606 21.5107 4.09606C20.1834 4.09606 15.5442 4.09606 11.8858 5.69365C10.6663 6.20546 9.54652 6.92491 8.57727 7.81945C8.57727 7.81945 10.2348 9.66008 10.6631 10.1591C10.8992 10.3868 10.9659 10.7367 10.8298 11.0341C13.3734 9.34575 16.2635 8.49997 21.4159 8.46756H21.6448C26.709 8.51617 29.6841 9.36519 32.2015 11.0373C32.0674 10.7398 32.1339 10.391 32.3682 10.1624C32.7965 9.66332 34.454 7.82269 34.454 7.82269L34.4442 7.81945ZM33.7315 11.6887C33.8982 12.2655 34.0781 12.9104 34.5685 13.3089C34.6401 13.3627 34.7155 13.4115 34.794 13.4548C34.794 12.3465 35.1635 11.7502 35.4479 11.0989C36.1293 11.2454 36.8338 11.2509 37.5174 11.1151C36.4647 10.4087 36.6935 9.6212 35.9121 8.75921C35.8217 8.65885 35.7244 8.56466 35.6212 8.47728C35.4395 8.32825 35.218 8.23481 34.9837 8.20832C34.8457 8.20108 34.7125 8.25873 34.624 8.36386C34.5227 8.47728 33.4242 9.66008 32.7049 10.4475C33.3588 10.4313 33.5223 11.0211 33.7119 11.6984L33.7315 11.6887ZM32.8259 13.2863L33.1528 12.852C31.3938 11.311 29.278 10.2246 26.9934 9.68925C25.7489 9.42165 24.4775 9.29661 23.2043 9.31658C22.5275 9.31658 22.0894 9.58555 22.0894 10.0068C21.6677 9.92905 21.5532 9.40084 21.5009 9.30362C21.4584 9.52398 21.2525 9.95173 20.9125 10.0068C20.9125 9.58555 20.4744 9.32631 19.7943 9.31658C18.52 9.29673 17.2475 9.42177 16.0019 9.68925C13.7304 10.1813 11.6236 11.2411 9.88174 12.7678L10.2087 13.1988C11.6489 11.8918 13.3758 10.9344 15.2532 10.4022C16.6929 10.0033 18.1819 9.80699 19.6766 9.81887C20.4744 9.85452 20.5888 10.3017 20.494 10.548C20.8825 10.5413 21.2488 10.3674 21.4977 10.0716C21.7432 10.3698 22.1098 10.5443 22.4981 10.548C22.4065 10.3017 22.521 9.85452 23.3154 9.81887C24.8113 9.80677 26.3014 10.0031 27.7421 10.4022C29.627 10.9816 31.3596 11.9664 32.8161 13.2863H32.8259ZM26.9313 20.3507C27.1184 20.3641 27.3053 20.3211 27.4675 20.2275C27.5607 20.1777 27.6386 20.1038 27.693 20.0136C28.8471 18.361 30.9853 15.7037 32.597 13.6071C29.3277 10.4022 24.6362 10.1818 23.4168 10.2725C23.1258 10.292 22.7989 10.5188 23.1618 10.9887C22.5951 11.1006 22.0068 10.984 21.5271 10.6647C21.047 10.983 20.4591 11.0995 19.8924 10.9887C20.2553 10.5188 19.9284 10.292 19.6407 10.2725C18.4081 10.1818 13.478 10.6582 10.4866 13.5358C12.1212 15.6875 15.554 20.1789 15.626 20.2664C15.7384 20.391 15.8987 20.4628 16.0673 20.4641H16.149C16.3619 20.4299 16.5524 20.3133 16.6787 20.14C17.0318 19.7576 17.2083 19.5438 17.5581 19.1873C18.2316 18.5068 18.8658 17.9883 18.9737 17.8911C19.1942 17.7261 19.3343 17.4767 19.3595 17.2041C19.3595 16.9578 19.147 16.8606 19.0326 16.7115C19.0164 16.7436 18.9955 16.7731 18.9705 16.799C18.8664 16.6587 18.7868 16.5021 18.7351 16.3356L18.6697 16.5106C18.6697 16.5106 18.418 15.9079 18.0158 15.963C17.6915 16.0084 17.361 15.9481 17.0743 15.7912C17.0383 15.7912 17.0154 15.963 17.0285 16.1736C17.0285 16.1736 17.0121 16.1736 17.0089 16.1736C16.6296 15.8495 16.5185 15.0426 17.241 14.5177C17.5059 14.3177 17.7989 14.1572 18.1106 14.0413C18.2249 13.9816 18.3243 13.8975 18.4016 13.795C18.6693 13.5426 19.0018 13.3677 19.3628 13.2895C19.9937 13.1526 20.6402 13.1003 21.2852 13.134C21.6841 13.1551 22.077 13.2393 22.449 13.3835C22.947 13.6567 23.3858 14.0245 23.7404 14.4658C24.0978 15.0418 24.4031 15.648 24.6526 16.2773C25.1495 17.4893 25.0907 17.3564 25.4339 18.16C25.6822 18.8443 26.0114 19.497 26.4147 20.1044C26.5287 20.2751 26.725 20.3736 26.9313 20.3636V20.3507ZM16.8977 29.1682C16.9269 29.7357 17.2236 30.2566 17.6987 30.5746C17.5127 30.0648 17.242 29.5894 16.8977 29.1682ZM23.1094 34.5183C22.969 34.7544 22.7875 34.964 22.5733 35.1373C22.6222 35.0003 22.6529 34.8576 22.6648 34.7128C22.5247 34.9581 22.3521 35.1837 22.1515 35.3836C21.9242 35.5933 21.7601 35.8614 21.6775 36.1581C21.848 35.9855 22.047 35.843 22.266 35.7368C22.694 35.4526 22.9959 35.0165 23.1094 34.5183ZM23.4364 39.4991C23.1874 39.1586 22.9108 38.8389 22.6092 38.5431C22.7461 38.8593 22.8619 39.1841 22.9558 39.5153C22.9736 39.5043 22.9922 39.4946 23.0114 39.4861C23.0631 39.4604 23.1202 39.4471 23.1781 39.4472C23.2414 39.454 23.3038 39.467 23.3645 39.4861L23.4364 39.512V39.4991ZM23.1748 43.6049C23.4658 43.8868 23.7862 44.2076 24.0412 44.4604C24.1916 44.2983 24.3191 44.1622 24.4172 44.0521L23.5443 43.2516L23.1748 43.6049ZM21.599 42.0202C21.9881 42.4253 22.5079 42.9632 22.8479 43.2938L23.2108 42.947L21.8769 41.7318L21.599 42.0202ZM21.4552 41.2911C21.4552 41.492 21.4552 41.6573 21.4552 41.7351L21.6742 41.505C21.6742 41.505 21.5009 41.3527 21.4454 41.2911H21.4552ZM21.4454 41.0351C21.4454 41.0157 21.6677 40.7694 21.7723 40.6592C21.7723 40.6592 21.7723 40.6592 21.7919 40.6398C21.7596 40.1922 21.649 39.7535 21.465 39.3435C21.4355 39.5639 21.4388 40.3935 21.465 41.0221L21.4454 41.0351ZM22.0208 38.7894C22.0829 39.1556 22.1319 40.0111 22.145 40.2898L22.4719 39.9657C22.4131 39.5444 22.2649 39.1401 22.0371 38.7797L22.0208 38.7894ZM21.4421 38.4135C21.5394 38.3708 21.6334 38.321 21.7232 38.2644C21.8924 38.1767 22.0338 38.0444 22.1319 37.882C22.2012 37.7507 22.2243 37.6001 22.1973 37.4543C22.1428 37.5989 22.0502 37.7265 21.9292 37.8237C21.819 37.9242 21.7162 38.0325 21.6219 38.1478C21.552 38.2339 21.4917 38.3274 21.4421 38.4265V38.4135ZM21.1152 35.9831C21.1152 35.3706 20.4417 35.2993 20.2847 34.6869C20.2063 35.5456 20.8046 35.5553 21.1152 35.9831ZM21.4846 37.383C21.5441 37.2709 21.632 37.176 21.7396 37.1076C22.1153 36.8849 22.4698 36.6289 22.7989 36.3428C22.8987 36.196 22.9707 36.0323 23.0114 35.8599C22.8932 36.0257 22.739 36.163 22.5602 36.2618C22.1997 36.449 21.8691 36.6881 21.5794 36.9715C21.5344 37.0434 21.5055 37.1241 21.4944 37.208C21.4874 37.1471 21.4697 37.0879 21.4421 37.033C21.2525 36.6409 20.6901 36.4789 20.3501 36.0933C20.1278 35.8437 20.1213 35.74 20.1213 35.74C20.1005 35.9511 20.1536 36.1627 20.2717 36.3395C20.4917 36.5781 20.7449 36.7843 21.0236 36.952C21.2125 37.0534 21.3715 37.202 21.4846 37.383ZM21.2034 38.1705C21.1702 37.9001 21.0119 37.6605 20.7751 37.5223C20.7751 37.8658 21.2034 38.1705 21.2034 38.1705ZM21.0171 40.6398C21.0171 40.2671 20.9876 39.862 20.9615 39.6676C20.8413 39.8673 20.7583 40.0869 20.7163 40.3157C20.749 40.3449 20.9909 40.5976 21.0171 40.6398ZM18.9541 39.619C19.0587 39.5801 19.3203 39.4634 19.4641 39.4278L19.572 39.4051C19.6547 39.0947 19.7562 38.7895 19.8761 38.4913C19.7943 38.4686 19.0914 39.4278 18.9541 39.619ZM20.0624 39.6838L20.3076 39.9171C20.3868 39.4894 20.4284 39.0557 20.4319 38.6209C20.2422 38.9536 20.1169 39.3185 20.0624 39.6968V39.6838ZM20.0918 34.4503C20.0843 34.3205 20.0498 34.1936 19.9905 34.0776C19.8923 33.9506 19.7828 33.8324 19.6636 33.7244C19.6254 33.6846 19.5964 33.6371 19.5786 33.5851C19.5726 33.7361 19.5914 33.8872 19.6341 34.0323C19.6694 34.1673 19.7561 34.2835 19.8761 34.3563C19.9424 34.4022 20.0151 34.4382 20.0918 34.4633V34.4503ZM19.8205 40.912C19.7747 40.9508 17.0252 43.5238 17.0252 43.5238C17.2018 43.6988 17.3848 43.8933 17.5091 44.0196C17.5647 44.0747 17.5941 44.0715 17.6399 44.0196C17.8131 43.8673 20.5986 41.3397 20.8307 41.1323C20.8417 41.1244 20.8482 41.1117 20.8482 41.0983C20.8482 41.0848 20.8417 41.0722 20.8307 41.0643C20.7032 40.9314 20.4188 40.6106 20.203 40.3805C19.9872 40.1504 19.6243 39.781 19.4216 39.8426C19.249 39.8965 19.0732 39.9397 18.8953 39.9722C18.4682 40.0396 18.0313 40.0108 17.617 39.8879H17.5548C17.5548 39.956 17.5548 40.0208 17.532 40.0791C17.5091 40.1375 17.5091 40.199 17.496 40.2638C17.8802 40.3194 18.269 40.3368 18.6566 40.3157C18.8724 40.3157 19.013 40.387 18.8201 40.6009L16.8944 42.5095C16.5119 42.866 16.4858 42.9535 16.5969 43.0734L16.7179 43.1933L17.4666 42.5452L18.6534 41.4985C18.6534 41.4985 19.5164 40.7046 19.5557 40.656C19.5912 40.6218 19.6477 40.6218 19.6832 40.656L19.8401 40.8212C19.863 40.8471 19.8565 40.899 19.814 40.9411L19.8205 40.912ZM24.1099 40.3611C24.4832 40.3761 24.8571 40.361 25.228 40.3157C25.2084 40.2379 25.192 40.1666 25.1822 40.1018C25.1724 40.037 25.1822 40.0014 25.1626 39.9463H25.1462C24.7319 40.0695 24.2947 40.0972 23.8679 40.0273C23.6911 39.9945 23.5164 39.9512 23.3448 39.8977C23.1389 39.8393 22.8152 40.1731 22.5635 40.4388C22.3117 40.7046 22.0633 40.9897 21.9358 41.1226C21.9129 41.1453 21.9194 41.168 21.9358 41.1906L25.1233 44.078C25.1658 44.1201 25.1985 44.1201 25.2541 44.078C25.3816 43.9516 25.5811 43.7539 25.7445 43.5789L22.9591 40.9152C22.9221 40.8884 22.9098 40.8394 22.9296 40.7985L23.0898 40.63C23.1291 40.6021 23.1835 40.6092 23.2141 40.6462C23.2566 40.6916 24.1197 41.4888 24.1197 41.4888L25.3064 42.5355L26.0518 43.1836C26.1597 43.0734 26.1434 43.0961 26.1761 43.0637C26.284 42.9405 26.2578 42.8595 25.8786 42.4966L23.9497 40.5911C23.76 40.3773 23.8974 40.3092 24.1164 40.306L24.1099 40.3611ZM23.5508 32.8786C23.5508 32.8786 23.9889 32.4703 24.1458 31.119C24.2308 31.2227 24.3845 31.3199 24.4303 31.5079C24.7081 31.1838 25.2541 29.3626 25.313 28.7437C25.4961 28.8215 25.3359 28.7826 25.5418 28.8863C25.8812 28.0124 26.084 27.0923 26.1434 26.1577C26.212 26.1772 26.3297 26.1772 26.3788 26.2355C26.4736 25.5874 26.5684 24.5342 26.5978 23.7986C26.624 23.1667 26.5978 21.8543 26.333 21.1187C26.1364 20.4761 25.8562 19.8617 25.4993 19.291C25.4089 19.333 25.3286 19.3938 25.2639 19.4692C25.0883 18.9382 24.8842 18.4168 24.6526 17.9073C24.2374 17.1069 24.0412 16.5916 23.6096 16.3194C23.7814 16.3481 23.9553 16.3633 24.1295 16.3648C23.9088 16.1224 23.6729 15.894 23.4233 15.681C23.5279 15.6097 23.7077 15.6162 24.0085 15.681C23.5835 15.2986 23.4396 14.7089 22.3444 14.3006C22.5474 14.2963 22.7504 14.3039 22.9525 14.3232C22.7061 13.9736 22.346 13.7184 21.9325 13.6006C20.8111 13.3802 19.2647 13.3446 18.5422 14.1936C18.4092 14.2654 18.2675 14.3199 18.1204 14.3556C18.0467 14.3792 17.9772 14.4142 17.9145 14.4593C17.787 14.5501 17.7641 14.6765 18.006 15.0135C17.6791 14.9713 17.6104 14.6732 17.5516 14.6894C17.4214 14.7741 17.3101 14.8844 17.2247 15.0135C17.113 15.2033 17.0543 15.4192 17.0546 15.6389C17.1182 15.6909 17.2061 15.7025 17.2812 15.6688C17.3563 15.635 17.4054 15.5618 17.4077 15.4801C17.4241 15.3732 17.9145 15.3278 18.0845 15.3278C18.333 15.3278 18.5618 15.3861 18.8691 15.3699C18.758 15.4121 18.4114 15.5093 18.2839 15.5449C18.1564 15.5806 18.1368 15.7296 18.2643 15.7394C18.3918 15.7491 18.4703 15.694 18.6076 15.6616C18.673 15.7005 18.6076 15.8528 18.6599 15.9403C19.5622 15.7361 19.6407 16.6986 20.5921 16.5106C20.1376 16.1574 19.7518 15.5708 19.3955 15.3926C20.3469 15.5417 20.8601 16.3875 21.89 16.4296C21.8559 16.3352 21.8132 16.2441 21.7625 16.1574C22.1156 16.1574 22.364 16.4264 22.4687 16.4166C22.2326 16.5987 21.9466 16.706 21.6481 16.7245C21.7167 16.8509 22.1025 16.88 22.2333 16.9027C21.983 17.1189 21.6361 17.1879 21.3211 17.0842C21.0303 17.4267 20.6832 17.7181 20.2945 17.9462C20.2974 17.8373 20.3094 17.7289 20.3305 17.6221C19.8892 17.8749 19.5982 18.3383 19.268 18.4614C19.3661 18.3026 19.4478 18.0175 19.5197 17.8749C18.3656 18.9119 17.2573 19.9099 16.8421 20.6618C16.3746 21.4978 16.2308 22.3663 16.2896 23.7921C16.3321 24.5569 16.6623 26.7086 16.7212 27.1493C16.8127 27.1105 16.8814 27.0748 16.9598 27.0456C17.267 28.6191 17.7849 30.1449 18.4997 31.5824C18.549 31.4509 18.638 31.3377 18.7547 31.2584C18.8308 31.724 19.0608 32.1515 19.4086 32.4736C19.412 32.2798 19.4624 32.0897 19.5557 31.9194C19.6505 32.2273 19.5949 33.1832 20.1507 33.7115C20.1506 33.4259 20.1981 33.1423 20.2913 32.8722C20.3515 33.2123 20.439 33.5471 20.5528 33.8735C20.6728 34.1942 20.8771 34.4772 21.1446 34.6933C21.1288 34.3469 21.1685 34.0002 21.2623 33.6661C21.511 34.0574 21.6623 34.5017 21.7036 34.9623C22.266 34.5313 22.4817 33.1282 22.4817 33.1282C22.6177 33.2795 22.7133 33.4622 22.7596 33.6596C23.1618 33.1742 23.4329 32.5955 23.5475 31.9778C23.6005 32.2666 23.6071 32.5619 23.5672 32.8527L23.5508 32.8786ZM14.4653 26.7767C14.8805 27.3697 15.6881 29.2395 15.6652 30.539C16.1654 29.2589 15.3611 26.7086 14.583 25.2893C14.5977 25.5421 14.5251 25.7924 14.3771 25.9989C14.2299 24.3787 13.2001 23.1861 13.0203 22.0455C12.9932 22.2144 12.9539 22.3812 12.9026 22.5445C12.4794 21.8192 12.1655 21.0364 11.9708 20.221C11.8444 20.4233 11.7786 20.6571 11.7812 20.8951C11.2712 19.4854 11.7649 18.9151 11.912 18.8308C12.301 18.604 12.7653 18.9637 13.1249 19.3591C13.6709 19.9586 14.2398 21.1511 16.0673 21.1802C16.3615 21.1802 16.476 21.1154 16.3223 21.0863C14.8119 20.8108 14.5438 20.2081 13.2851 18.8503C12.5005 18.0045 11.7224 17.5184 10.7939 18.5975C9.44064 20.1093 8.5107 21.9461 8.09668 23.925C7.91687 24.7546 7.79263 26.5174 8.01494 27.3729C8.22745 27.2984 8.24053 27.2401 8.24053 27.2401C8.24053 27.2401 8.47592 29.6381 8.8944 30.2343C9.08385 29.7731 9.18367 29.2805 9.18863 28.7826C9.34051 29.3237 9.59579 29.8308 9.94058 30.2765C10.0937 29.6859 10.1227 29.0704 10.0256 28.4682C10.3918 29.3237 10.6794 29.6899 10.8625 29.826C11.0195 29.4469 11.1731 28.8247 11.0489 26.8544C11.1691 27.4388 11.2553 28.0296 11.3072 28.6238C11.4222 28.7235 11.551 28.8064 11.6897 28.8701C11.7583 28.6692 11.9545 28.384 11.621 25.905C12.458 28.5881 11.9937 29.3173 11.912 29.5085C11.6861 29.3813 11.4873 29.2118 11.3268 29.0094C11.3609 29.4967 11.2674 29.9845 11.0554 30.4255C10.7615 30.2563 10.5161 30.0154 10.3427 29.7256C10.3692 30.1826 10.3059 30.6405 10.1564 31.0736C9.82697 30.7224 9.56051 30.318 9.36845 29.8779C9.3848 30.2019 9.16248 31.1741 8.97613 31.3296C8.28303 30.4255 8.04764 27.859 8.04764 27.859L7.94302 27.9336C7.98225 28.559 8.06072 29.5311 8.15226 30.6297C8.26015 31.9097 8.39091 33.3582 8.50534 34.6415C8.77779 37.72 9.12107 40.791 9.53519 43.8544C9.5633 44.1168 9.61138 44.3768 9.67904 44.6321C9.78277 43.9011 9.8036 43.1609 9.74115 42.4253C9.74115 42.2568 9.97654 41.9781 9.96019 41.0545C9.96019 40.6786 9.52538 35.9539 9.38153 34.1003C9.36191 33.8735 9.33249 33.3712 9.33249 33.368C9.33249 33.4263 9.36191 33.4911 9.37498 33.5656C9.51884 34.2656 9.63327 34.972 9.73789 35.6752C9.80327 36.0965 9.86538 36.5437 9.9275 37.0006C10.1365 38.3684 10.2675 39.7467 10.3198 41.1291C10.3427 42.0137 10.0485 42.26 10.0779 42.4545C10.2273 43.3833 10.1579 44.3338 9.87519 45.2316C9.79312 45.1977 9.7251 45.1371 9.6823 45.0599C9.83269 45.9024 10.0289 46.57 10.0289 46.57C10.3558 45.8668 10.5487 45.1085 10.4898 43.2322C10.6674 42.738 10.7773 42.2225 10.8168 41.6994C10.8168 41.411 10.7743 40.5069 10.6958 39.3792C10.5519 37.37 10.3689 35.3641 10.2152 33.355C10.2152 33.261 10.189 33.0309 10.189 33.005C10.2119 33.0925 10.2348 33.1865 10.2544 33.2837C10.7812 35.8811 11.0928 38.5169 11.1862 41.1647C11.2516 42.3508 10.8004 43.2354 10.82 43.4072C10.871 43.7624 10.8842 44.1219 10.8593 44.4798C10.8684 44.718 10.8475 44.9564 10.7971 45.1895C10.9998 44.7326 11.657 43.1901 11.451 38.3843C11.451 38.2677 11.451 38.151 11.4314 38.0311C11.2549 34.6836 10.9868 32.4962 10.9868 32.4962C11.3137 33.4328 11.572 35.4516 11.7583 37.7848C11.7828 37.7464 11.8047 37.7063 11.8237 37.6649C12.1326 36.79 12.2442 35.8587 12.1506 34.9364C12.0362 33.1768 11.8237 31.7347 11.8237 31.738L11.8728 31.8838C12.036 32.4159 12.1681 32.9569 12.2683 33.5041C12.3957 34.1267 12.4841 34.7566 12.5332 35.3901C12.5332 35.4808 12.5332 35.5683 12.5332 35.6525C13.2066 34.6577 12.9157 32.6615 12.5855 30.594C12.883 31.2422 13.4191 33.1184 13.272 34.5216C14.2855 33.5818 13.7363 31.7088 13.3538 29.5668C13.9292 30.8403 14.3346 32.4055 14.2071 33.4295C15.0309 32.3699 14.7236 30.9732 13.988 28.2284C14.5849 29.3205 14.9582 30.5187 15.0865 31.7542C15.6194 30.5098 15.0015 28.4423 14.4686 26.7702L14.4653 26.7767ZM15.5344 36.4465C15.6946 36.1872 15.4592 36.1224 14.9884 36.4076C14.3311 36.8013 13.7426 37.2982 13.2459 37.8788C13.1282 38.0408 13.1674 38.1316 13.3734 37.9242C13.8638 37.4348 14.6059 36.7576 14.5928 37.0784C14.5814 37.369 14.6292 37.6588 14.7334 37.9307L14.959 37.8756L15.6129 37.7071C15.4102 37.2113 15.3644 36.7349 15.5507 36.4465H15.5344ZM15.2467 39.7713C14.9612 40.0304 14.7888 40.3896 14.7661 40.7726C14.7468 40.8899 14.7808 41.0096 14.859 41.0997C14.9372 41.1897 15.0516 41.2408 15.1715 41.2393C15.5442 41.1971 15.3546 40.805 15.5638 41.0513C15.6521 41.1485 15.9333 40.8245 16.0085 40.7499C15.8483 40.7726 15.6129 40.8018 15.6521 40.5652C15.7016 40.395 15.7938 40.24 15.9202 40.1148C16.0183 39.9949 16.3223 39.4181 16.5217 39.4894C16.6166 39.5574 16.561 40.0953 16.404 40.4259C16.0771 41.1356 16.0117 41.599 16.2438 41.7221H16.2635V41.7415C16.1805 42.0097 16.2941 42.2993 16.5381 42.4415L16.5675 42.4123C16.5148 42.2457 16.5148 42.067 16.5675 41.9003C16.5675 41.8744 16.5904 41.7934 16.3844 41.7383H16.3648C16.4737 41.746 16.5829 41.746 16.6917 41.7383C16.8291 41.7156 16.986 41.6929 17.0187 41.4142C17.0187 41.3235 17.0383 41.236 17.0448 41.1453C17.0906 40.7435 17.1625 40.3773 17.2214 40.0986C17.2802 39.8199 17.375 39 17.375 39C17.4247 38.9846 17.4767 38.978 17.5287 38.9806C17.67 38.9866 17.7914 39.0821 17.8295 39.2171C17.8548 39.3028 17.8548 39.3939 17.8295 39.4796C17.9465 39.4338 18.0266 39.3254 18.0354 39.2009C18.1364 39.1427 18.2059 39.0429 18.2251 38.9287C18.2708 38.6468 17.9439 38.3649 17.8981 38.339C17.702 38.1867 17.7674 37.9015 17.8524 37.6552L17.9635 37.3571C18.07 37.4873 18.1996 37.5971 18.346 37.6811C18.609 37.8692 18.9322 37.9556 19.2549 37.9242C19.1843 37.7419 19.1381 37.5512 19.1176 37.3571C19.0919 37.1019 19.082 36.8454 19.0882 36.5891L19.4347 36.9585C19.5732 36.3195 19.5965 35.6612 19.5034 35.0142C19.4484 34.2348 19.2685 33.4691 18.9705 32.7458C18.8911 32.5213 18.7915 32.3044 18.673 32.0977C18.6282 32.2516 18.5327 32.3863 18.4016 32.48C18.0102 32.0231 17.6976 31.5052 17.4764 30.9473C17.4001 31.0776 17.3042 31.1956 17.192 31.2972L17.1364 31.3459V31.2778C17.0617 30.9506 16.9029 30.648 16.6754 30.3996C16.5385 30.2361 16.4282 30.0524 16.3485 29.8552C16.2435 30.2433 16.1875 30.6427 16.1817 31.0445C16.1842 31.3614 16.1345 31.6767 16.0346 31.9778L16.2144 31.8741C16.2994 31.819 16.3419 31.793 16.3779 31.7963H16.4073C16.4167 31.8158 16.4167 31.8384 16.4073 31.8579C16.2967 32.3322 16.2149 32.8126 16.1621 33.2967C16.1293 33.689 16.1425 34.0837 16.2014 34.473C16.3272 34.3931 16.457 34.3195 16.5904 34.2526C16.4349 34.8975 16.3972 35.5648 16.4792 36.2229C16.4928 36.4478 16.4851 36.6734 16.4564 36.8969C16.6498 36.8621 16.8343 36.7894 16.9991 36.683C16.9478 36.9401 16.8632 37.1896 16.7473 37.4251C16.44 37.8432 15.7894 37.9469 15.3088 38.0732C14.7134 38.1948 14.1326 38.3783 13.5761 38.6209C13.393 38.7116 13.2197 38.8996 13.2491 39.0324C13.2786 39.1653 13.5009 39.2042 13.5761 39.2042L13.6186 39.2949C13.7493 39.4958 14.1776 39.3727 14.2724 39.3241C14.3629 39.2881 14.4435 39.2315 14.5078 39.1588C14.485 39.1945 14.3444 39.1588 14.2561 39.107C14.2241 39.0948 14.1999 39.0684 14.1907 39.0357C14.1613 38.7862 15.2173 38.7537 15.3709 38.7537C15.5246 38.7537 15.59 38.7894 15.6521 38.8996C15.7142 39.0098 15.7436 39.1167 15.1192 39.7972L15.2467 39.7713ZM15.626 43.4234C15.3288 44.3131 14.9038 45.1557 14.364 45.9251C14.1236 46.2508 13.8591 46.5584 13.5728 46.8454C13.5728 46.8454 13.5499 46.9264 13.5205 47.0593L13.4257 47.1111L13.952 46.8227L14.2136 46.6931C14.5601 46.5084 14.9459 46.3334 15.3284 46.1714C15.7077 45.4973 16.1556 44.6969 16.3092 44.4863C16.1832 45.0059 16.0024 45.511 15.7698 45.9931L16.0575 45.8797C16.6558 45.6464 17.1789 45.4617 17.4274 45.3418C17.7041 45.2218 17.9635 45.066 18.1989 44.8784C18.2584 44.8308 18.3152 44.78 18.3689 44.7261L17.9406 44.3016L17.7968 44.4215C17.6673 44.5537 17.4576 44.5663 17.3129 44.4506C17.12 44.2724 16.2373 43.3067 16.1588 43.216C16.0804 43.1253 15.9758 42.9438 16.1785 42.6327C15.9669 42.438 15.8482 42.1638 15.8515 41.8776C15.7191 41.7087 15.6667 41.4914 15.7077 41.2814C15.6306 41.3324 15.5385 41.3563 15.4461 41.3494C15.3486 41.45 15.217 41.5112 15.0767 41.5212H15.0211C14.8793 41.5268 14.7402 41.4819 14.6288 41.3948C14.5286 41.3301 14.4527 41.2344 14.413 41.1226C14.4136 41.1107 14.4136 41.0988 14.413 41.0869C13.7862 41.7877 13.23 42.5474 12.7522 43.3553C11.9054 44.6904 11.7093 45.1733 11.5295 45.6885C12.0853 45.6561 12.3958 45.5719 13.1216 44.8201C13.4486 44.4701 14.3378 43.1803 14.8936 42.4901C14.5321 43.4066 14.0612 44.277 13.4911 45.0825C13.2062 45.4777 12.8772 45.8397 12.5103 46.1617C12.5103 46.1617 12.301 46.2913 12.1833 46.9685C12.5593 46.9685 13.5336 46.4306 14.449 45.2122C14.7367 44.8265 14.923 44.5252 15.6521 43.4363L15.626 43.4234ZM21.6775 47.756C21.7314 48.3079 21.9762 48.8242 22.3706 49.2175C22.5461 48.942 22.6516 48.6284 22.6779 48.3037C22.3265 48.1552 21.9914 47.9717 21.6775 47.756ZM25.5059 48.5402C26.7449 48.6958 29.4029 48.6601 30.3575 48.2907C29.0522 47.4029 27.6439 46.674 26.163 46.1195C25.6358 45.9308 25.1296 45.6886 24.6526 45.3969C24.4097 45.231 24.1791 45.0479 23.9627 44.8492C23.1977 44.1525 21.1903 42.0753 20.834 41.6929L19.5001 42.9114C19.5001 42.9114 23.0343 46.3269 23.9235 46.8C25.0612 47.4125 28.3175 48.1449 28.3175 48.1449C26.8427 48.0115 25.3913 47.6913 23.9987 47.1921C22.8544 46.7352 19.2418 43.203 19.2418 43.203L18.3689 44.0067C19.2866 45.0298 20.2859 45.978 21.3571 46.8422C22.5691 47.8007 24.0372 48.3875 25.5811 48.5305L25.5059 48.5402ZM28.0788 42.5355C28.6313 43.2257 29.5108 44.5154 29.8475 44.8654C30.5766 45.6172 30.8839 45.7015 31.4397 45.7371C31.1432 44.9048 30.7352 44.1157 30.2268 43.391C29.6417 42.4471 28.986 41.548 28.2652 40.7013C28.2689 40.8318 28.2513 40.9621 28.2129 41.0869L28.1736 41.1712C28.1234 41.2576 28.0554 41.3327 27.9742 41.3916C27.8474 41.4737 27.697 41.5124 27.5459 41.5017C27.4045 41.4922 27.2717 41.431 27.1732 41.33C27.0788 41.3368 26.9846 41.313 26.9051 41.2619C26.9493 41.471 26.8991 41.6888 26.7678 41.8582C26.7722 42.1318 26.6677 42.3961 26.4769 42.5938C26.4888 42.6129 26.5019 42.6313 26.5161 42.6489C26.6992 42.9729 26.6207 43.1285 26.5161 43.2322C26.4115 43.3359 25.5582 44.2886 25.362 44.4636C25.2177 44.5786 25.0091 44.5674 24.8782 44.4377L24.7343 44.3178C24.7343 44.3178 24.512 44.5414 24.3289 44.7196L24.3779 44.7617C24.6686 45.0147 25.0002 45.2174 25.3587 45.3612C25.6857 45.5006 26.6109 45.8408 27.2386 46.0968C27.0915 45.6367 26.9117 45.1247 26.7351 44.5965C26.8953 44.8168 27.3498 45.6075 27.7356 46.3107C27.7094 46.3107 27.7846 46.3334 27.7617 46.3107C28.3361 46.569 28.8959 46.8578 29.4389 47.1759C29.3996 47.001 29.3637 46.8843 29.3637 46.8843C29.0817 46.5941 28.8195 46.2856 28.579 45.9607C28.0401 45.1913 27.6161 44.3487 27.3203 43.459C28.0461 44.5446 28.2325 44.8492 28.5202 45.2316C29.4356 46.4501 30.4131 46.9815 30.7891 46.9912C30.6551 46.3107 30.4131 46.1617 30.4131 46.1617C30.0653 45.8534 29.7518 45.509 29.4781 45.1344C29.5925 45.2899 29.7037 45.439 29.452 45.102C29.2656 44.8492 29.3375 44.9497 29.452 45.0793C28.8897 44.2848 28.4254 43.4264 28.069 42.5225L28.0788 42.5355ZM27.1961 37.7265L27.778 37.8788C27.8663 37.9047 27.9579 37.9274 28.0592 37.9469C28.1595 37.6774 28.2061 37.3913 28.1965 37.1043C28.1965 36.7803 28.9256 37.4608 29.416 37.9533C29.6219 38.1575 29.6612 38.0668 29.5402 37.908C29.0452 37.3261 28.4577 36.828 27.8009 36.4335C27.3301 36.1483 27.0948 36.2164 27.255 36.4724C27.4151 36.7284 27.3955 37.2339 27.1961 37.7265ZM26.297 31.8611C26.294 31.8382 26.2998 31.815 26.3134 31.7963H26.333H26.3526C26.4135 31.8091 26.4706 31.8357 26.5194 31.8741C26.5684 31.9065 26.6272 31.9421 26.6992 31.981C26.6014 31.6794 26.5518 31.3645 26.552 31.0477C26.5474 30.6553 26.4958 30.2648 26.3984 29.8844C26.3984 29.8844 26.3755 29.8455 26.369 29.8358C26.2892 30.033 26.1789 30.2167 26.042 30.3802C25.8157 30.6289 25.658 30.9314 25.5843 31.2584V31.3264L25.532 31.2778C25.6334 31.3718 25.2476 30.9343 25.2443 30.9278C25.0939 31.4884 24.1262 32.6972 23.9006 32.9467C23.8712 32.9888 23.4985 33.5332 23.3579 34.891C23.2706 35.5775 23.2706 36.272 23.3579 36.9585L23.6848 36.5891C23.6962 36.8429 23.6918 37.0973 23.6718 37.3506C23.6513 37.5445 23.6063 37.735 23.5377 37.9177C24.002 37.9613 24.4564 37.7655 24.7408 37.3992L24.8324 37.6487C24.9207 37.895 24.986 38.1802 24.7899 38.3325C24.7572 38.3584 24.4303 38.6403 24.4629 38.9223C24.485 39.0362 24.5552 39.1353 24.6558 39.1945C24.6652 39.3197 24.7467 39.4283 24.8651 39.4732C24.8386 39.3876 24.8386 39.2962 24.8651 39.2107C24.9031 39.0756 25.0245 38.9802 25.1659 38.9741C25.2189 38.9713 25.272 38.9779 25.3228 38.9936C25.3228 38.9936 25.4045 39.7713 25.4732 40.0921C25.5502 40.4378 25.6091 40.7871 25.6497 41.1388C25.6497 41.2295 25.6497 41.317 25.6791 41.4078C25.7086 41.6735 25.8622 41.6962 26.0061 41.7318C26.1149 41.7395 26.2242 41.7395 26.333 41.7318H26.3134C26.1107 41.7869 26.127 41.8679 26.1303 41.8938C26.1845 42.0603 26.1845 42.2394 26.1303 42.4059L26.163 42.435C26.4048 42.291 26.5166 42.0025 26.4343 41.7351V41.7156H26.454C26.6894 41.5795 26.6305 41.1161 26.297 40.4194C26.1401 40.0953 26.0747 39.5347 26.1761 39.4829H26.1924C26.2447 39.4829 26.3134 39.4829 26.4703 39.713C26.5815 39.8685 26.6894 40.0046 26.8299 40.1764C26.9516 40.2968 27.0287 40.4543 27.049 40.6236C27.0528 40.6642 27.0385 40.7045 27.0098 40.7337C26.9793 40.7524 26.9442 40.7625 26.9084 40.7629C26.8356 40.771 26.7621 40.771 26.6894 40.7629C26.7646 40.8374 27.049 41.1615 27.134 41.0643C27.3465 40.818 27.1536 41.2101 27.5263 41.2522C27.644 41.2594 27.759 41.2151 27.8409 41.1309C27.9227 41.0467 27.9631 40.9311 27.9513 40.8147C27.9503 40.7276 27.9405 40.6407 27.9219 40.5555C27.8589 40.3115 27.7327 40.0881 27.5557 39.9074L27.474 39.8167C26.8496 39.1361 26.9019 38.9838 26.9378 38.919C26.9738 38.8542 27.0555 38.7764 27.219 38.7732C27.3951 38.7728 27.571 38.7848 27.7454 38.8088C28.0004 38.8542 28.3992 38.919 28.3992 39.0551C28.3892 39.0873 28.3652 39.1135 28.3338 39.1264C28.2456 39.1621 28.1017 39.2139 28.0788 39.1783C28.1439 39.25 28.2243 39.3065 28.3142 39.3435C28.4221 39.3921 28.8504 39.5153 28.9681 39.3144L29.0106 39.2236C29.089 39.2236 29.2983 39.1912 29.3375 39.0519C29.3768 38.9125 29.2035 38.7278 29.0106 38.6403C28.7096 38.5062 28.4006 38.3904 28.0854 38.2936C27.9415 38.2547 27.7584 38.2223 27.6342 38.1834L26.8823 37.9857C26.8626 37.9857 26.4703 37.8561 26.3232 37.7913L26.1597 37.7168C26.0313 37.6519 25.9195 37.5588 25.8328 37.4446C25.7187 37.2057 25.6331 36.9545 25.5778 36.696C25.76 36.8129 25.9631 36.8943 26.1761 36.9358C26.1456 36.7125 26.138 36.4866 26.1532 36.2618C26.2709 35.0336 26.2938 34.3174 26.2938 34.3174L26.5455 34.5734C26.5516 34.1573 26.5254 33.7412 26.467 33.3291C26.4147 32.8504 26.3328 32.3753 26.2219 31.9065L26.297 31.8611ZM29.3408 22.2788C29.4442 21.8114 29.4597 21.3291 29.3866 20.8562C29.1129 21.5704 28.9873 22.332 29.0171 23.0954C29.1482 22.8324 29.2575 22.5593 29.3441 22.2788H29.3408ZM28.2488 24.774C28.5758 23.5977 28.7752 22.888 28.7752 21.9256C28.4711 22.2496 28.2096 23.5458 28.2488 24.774ZM27.1471 23.7144C27.5786 22.4343 27.2157 21.7862 26.9673 21.6534C26.9673 22.2431 27.1176 22.5186 27.1471 23.7144ZM26.8921 29.2719C27.0302 27.4425 27.3589 25.6322 27.8729 23.8699C26.5161 25.3379 26.709 28.7307 26.8921 29.2719ZM32.9926 28.4326C32.8955 29.0347 32.9244 29.6502 33.0776 30.2408C33.4237 29.7959 33.6791 29.2885 33.8296 28.7469C33.8378 29.2446 33.9375 29.7365 34.1238 30.1987C34.539 29.6024 34.7777 27.2044 34.7777 27.2044C34.7777 27.2044 34.7777 27.2628 35.0033 27.3373C35.2256 26.4785 35.1013 24.7189 34.9183 23.8926C34.5084 21.91 33.5793 20.0693 32.2243 18.5554C31.2991 17.4763 30.5177 17.9656 29.7364 18.8082C28.4744 20.1692 28.2063 20.7687 26.6959 21.0441C26.5455 21.0733 26.6567 21.1446 26.9509 21.1381C28.7687 21.109 29.3375 19.9164 29.8933 19.3169C30.2529 18.9216 30.7204 18.5651 31.1062 18.7887C31.2533 18.873 31.7601 19.4368 31.237 20.8529C31.2401 20.6149 31.1743 20.381 31.0474 20.1789C30.8521 20.9941 30.5382 21.7768 30.1156 22.5024C30.0655 22.3388 30.0262 22.172 29.9979 22.0033C29.8214 23.144 28.7883 24.3301 28.6411 25.9568C28.4931 25.7503 28.4205 25.5 28.4352 25.2471C27.6604 26.6665 26.8528 29.2168 27.353 30.5001C27.3301 29.2038 28.1377 27.3276 28.5529 26.7345C28.0232 28.4034 27.4021 30.4741 27.935 31.7185C28.0632 30.482 28.4365 29.2827 29.0335 28.1896C28.2979 30.9343 27.9938 32.3375 28.8144 33.3939C28.6706 32.3699 29.0923 30.8014 29.6677 29.5311C29.2852 31.6731 28.7392 33.5429 29.7494 34.4859C29.6023 33.0828 30.1418 31.2162 30.436 30.5584C30.1091 32.6259 29.8181 34.622 30.4916 35.6201C30.5093 34.8955 30.6013 34.1746 30.7662 33.4684C30.9428 32.5611 31.2108 31.6926 31.2108 31.6926C31.2108 31.6926 30.9983 33.1411 30.8839 34.9007C30.8643 35.1967 30.8578 35.4916 30.8643 35.7854C30.8659 36.1477 30.902 36.509 30.9722 36.8645C31.0279 37.1762 31.1385 37.4756 31.2991 37.7492C31.4855 35.416 31.7568 33.3971 32.0739 32.4606C32.0739 32.4606 31.8026 34.648 31.6228 37.9955C31.6228 38.1154 31.6228 38.232 31.6228 38.3487C31.4005 43.1577 32.0576 44.6969 32.2603 45.1538C32.21 44.9207 32.1891 44.6824 32.1982 44.4442C32.175 44.0862 32.1881 43.7269 32.2374 43.3715C32.257 43.1998 31.8059 42.3184 31.8712 41.1258C31.9072 40.4129 31.9563 39.7032 32.0184 39.0098C32.0707 38.3616 32.1295 37.7589 32.1982 37.1691C32.2734 36.6312 32.3257 36.1159 32.4009 35.5683C32.5088 34.7906 32.6624 34.0193 32.803 33.2481C32.9142 32.6388 32.8521 33.1735 32.8422 33.3226C32.7867 34.0128 32.6592 35.5262 32.5349 37.0849C32.4499 38.2482 32.1884 40.549 32.244 41.6638C32.2843 42.1867 32.3942 42.7021 32.5709 43.1965C32.5153 45.0728 32.7017 45.8311 33.0319 46.5343C33.0319 46.5343 33.228 45.8668 33.3784 45.0275C33.3355 45.1019 33.2688 45.1601 33.1888 45.1927C32.9043 44.2963 32.8349 43.3465 32.9861 42.4188C33.0122 42.2244 32.7213 41.9781 32.7409 41.0934C32.7768 39.7097 32.9599 38.3357 33.1332 36.965C33.1953 36.508 33.2575 36.0609 33.3261 35.6396C33.3653 35.3674 33.4078 35.0984 33.4536 34.8262C33.5125 34.3952 33.5909 33.9577 33.6857 33.53C33.6857 33.4587 33.7151 33.3906 33.7282 33.3323C33.7282 33.3323 33.7282 33.6564 33.6825 34.0679C33.5288 35.9183 33.1103 40.643 33.1005 41.0189C33.0842 41.9425 33.3392 42.2211 33.3228 42.3896C33.2578 43.1251 33.2776 43.8655 33.3817 44.5965C33.4349 44.3445 33.4677 44.0888 33.4798 43.8317C33.4798 43.8317 33.7446 41.9165 34.0519 39.188C34.0977 38.7635 34.1434 38.3454 34.1892 37.9274C34.235 37.5094 34.2709 37.1238 34.3134 36.709C34.3592 36.2229 34.4082 35.7368 34.454 35.2507C34.4736 35.0401 34.4933 34.8294 34.5096 34.6188C34.624 33.3226 34.7548 31.887 34.8627 30.607C34.8627 30.607 35.036 28.5266 35.0752 27.9011L34.9738 27.8266C34.9738 27.8266 34.7352 30.3931 34.0454 31.2972C33.859 31.1287 33.6334 30.1663 33.6498 29.8455C33.4583 30.2851 33.1929 30.6894 32.8651 31.0412C32.7134 30.6085 32.649 30.1505 32.6755 29.6932C32.5022 29.9839 32.2569 30.2259 31.9628 30.3964C31.7529 29.9536 31.6606 29.465 31.6947 28.977C31.5319 29.1782 31.3337 29.3484 31.1095 29.4793C31.0245 29.2816 30.5603 28.5557 31.3972 25.8726C31.0703 28.3516 31.2632 28.64 31.3285 28.8409C31.4667 28.775 31.5953 28.6911 31.7111 28.5914C31.7646 27.9985 31.8508 27.4089 31.9693 26.8253C31.8451 28.7955 32.002 29.4177 32.1557 29.7936C32.3518 29.6575 32.6297 29.2913 32.9926 28.4358V28.4326ZM38.4884 11.3419C37.6217 11.54 36.7322 11.6229 35.8435 11.5882C35.4243 12.3871 35.2236 13.2809 35.2615 14.1807C34.8417 14.088 34.4585 13.875 34.1598 13.5682L33.179 14.8644C35.4593 18.9666 36.6717 23.5676 36.7066 28.2511C38.3843 27.3167 39.9722 26.232 41.4504 25.0106C41.1235 19.3396 40.244 15.0588 38.508 11.3484L38.4884 11.3419ZM39.4888 45.7177C38.3293 48.0335 36.5182 49.9671 34.2742 51.285C31.0049 53.3492 27.5819 52.8534 26.4703 52.215L26.588 52.5002C26.624 52.5779 26.6697 52.7011 26.6959 52.7659C27.134 53.9422 26.8365 55.1542 25.2345 55.3389C24.7349 55.3591 24.2431 55.4689 23.7829 55.6629C23.2907 55.9049 22.8474 56.2345 22.4752 56.6351C22.1562 56.9816 21.8817 57.3658 21.6579 57.779C21.4353 57.3642 21.1594 56.9797 20.8373 56.6351C20.4672 56.2321 20.0234 55.9023 19.5295 55.6629C19.0695 55.4686 18.5776 55.3587 18.0779 55.3389C16.476 55.1542 16.185 53.939 16.6198 52.7627C16.646 52.6978 16.6918 52.5779 16.7244 52.5034L16.8421 52.215C16.0313 52.6816 14.0142 53.0446 11.6733 52.4127L11.4445 52.3511C9.57952 51.8692 7.86852 50.9259 6.47182 49.6096C5.26439 48.4626 4.25493 47.127 3.48365 45.6561C0.367981 39.269 0.802799 29.7774 0.792991 28.7761C0.688373 17.8328 3.13384 11.6951 5.23275 8.7268C4.5985 7.90046 4.21598 7.40142 4.18656 7.37225C3.84205 7.00924 3.37852 6.77951 2.87882 6.72414C2.70252 5.66267 2.45236 4.61455 2.13015 3.58729C3.01114 4.21092 3.9479 4.75328 4.92869 5.20757C4.82917 5.69933 4.92523 6.21019 5.19679 6.63341L6.03047 7.73195C6.98298 6.55319 8.1634 5.57486 9.50249 4.85435C9.8752 4.64371 10.2773 4.4428 10.7089 4.24836C10.6728 3.68345 10.8781 3.12954 11.2745 2.72206C11.3185 2.33225 11.5672 1.99458 11.9283 1.83415C12.3436 1.76584 12.7679 1.88465 13.0857 2.15821C13.6899 2.24944 14.2428 2.54754 14.6484 3.00075C16.0992 2.70325 17.5699 2.51155 19.0489 2.42717C19.2266 1.68511 19.7288 1.0602 20.4188 0.722643C20.6421 0.326911 21.0408 0.058997 21.4944 0C21.9481 0.058502 22.3471 0.326553 22.57 0.722643C23.2615 1.05909 23.7652 1.68427 23.9431 2.42717C25.4232 2.51122 26.8951 2.70292 28.3469 3.00075C28.7525 2.54754 29.3054 2.24944 29.9097 2.15821C30.2277 1.88506 30.6518 1.7663 31.067 1.83415C31.4281 1.99458 31.6768 2.33225 31.7209 2.72206C32.115 3.13073 32.3189 3.6841 32.2832 4.24836C32.7147 4.4428 33.1169 4.64371 33.4896 4.85435C34.8352 5.61163 36.0351 6.59903 37.0335 7.77084C37.5893 7.04172 37.9228 6.59776 37.9489 6.55888C38.2249 6.1374 38.3224 5.62519 38.2203 5.13303C39.2002 4.67911 40.1359 4.13673 41.0156 3.51276C40.695 4.54133 40.4459 5.59049 40.2702 6.65285C39.7709 6.70959 39.3078 6.93909 38.9624 7.30096C38.9297 7.33337 38.4916 7.9037 37.7789 8.83698C39.868 11.8248 42.2775 17.9105 42.1729 28.7858C42.1729 29.6543 42.6045 39.3208 39.4888 45.7112V45.7177ZM14.8707 8.44488L15.4298 8.69116C15.5834 8.50969 15.6488 8.42543 15.8188 8.231C15.6031 8.14026 15.4625 8.07221 15.2369 7.98472C15.1061 8.1273 14.9655 8.30877 14.8707 8.44488ZM25.617 6.42277C25.5064 6.48463 25.4174 6.57846 25.362 6.69174C25.4405 6.8084 25.5909 6.85701 25.823 6.88941C25.8524 6.88941 25.9113 6.88941 25.9472 6.88941C26.0551 6.64313 25.8263 6.33528 25.6203 6.40981L25.617 6.42277ZM30.3804 7.68011C30.2685 7.94629 30.104 8.18759 29.8966 8.38979C28.7251 7.98739 27.516 7.70189 26.2872 7.53752C26.0031 7.89288 25.6251 8.16321 25.1953 8.31849C24.697 8.25654 24.2117 8.11767 23.7568 7.90694C23.9157 7.91605 24.0751 7.91605 24.2341 7.90694C24.7789 7.89321 25.3107 7.73908 25.7772 7.45975C24.9141 7.33013 24.7114 7.09681 25.1233 6.55239C25.313 6.30611 25.6268 5.85568 26.1042 5.97234C26.4572 6.06307 26.5488 6.5686 26.5063 6.9445C27.619 7.10712 28.7137 7.37404 29.7756 7.74168C29.841 7.46299 29.6612 7.32689 29.5468 7.12273C29.7111 6.95621 29.8918 6.8064 30.0862 6.67554C30.3379 6.81164 30.4785 7.36577 30.387 7.67687L30.3804 7.68011ZM26.4343 8.13054L26.8463 8.54209C27.0653 8.42219 27.1732 8.3671 27.4053 8.24396C27.2484 8.08842 27.1471 7.97824 26.9738 7.82269C26.7907 7.91343 26.5749 8.04629 26.4343 8.13054ZM30.8578 7.92315C30.6681 8.36386 30.5014 8.81106 30.2791 9.21937C30.4131 9.27122 30.606 9.16104 30.7139 9.08651C31.2991 8.73004 31.7209 7.7514 31.9497 7.1681C31.7695 7.195 31.5937 7.24511 31.4266 7.31716C31.0801 7.47271 31.018 7.56345 30.8578 7.93287V7.92315ZM31.1324 7.0644C31.6032 7.02227 32.0413 7.13893 32.2407 6.92182C31.9837 6.87678 31.7434 6.76496 31.5443 6.59776C31.6718 6.49406 31.8516 6.63665 31.9464 6.71118L32.123 6.55239C31.9871 6.44638 31.812 6.40275 31.6417 6.43244C31.4713 6.46213 31.3218 6.56232 31.2305 6.70794C31.3276 6.74384 31.4182 6.79529 31.4985 6.86025C31.3686 6.90649 31.2455 6.96969 31.1324 7.0482V7.0644ZM13.478 8.83374C13.3407 8.78837 13.2165 8.74949 13.053 8.70412C12.9441 8.86412 12.8437 9.02961 12.7522 9.19992L13.3407 9.38464L13.5597 9.06058L13.9782 9.1902C14.1024 8.99577 14.1613 8.90503 14.3051 8.69764C14.0763 8.62635 13.9259 8.5745 13.6905 8.50969C13.6186 8.61339 13.5467 8.73977 13.4813 8.84995L13.478 8.83374ZM23.4298 6.28991C23.1323 5.80383 22.0273 6.2413 21.3244 6.52971C21.7331 6.52971 22.0796 6.51351 22.5144 6.52971C22.6877 6.52971 23.1454 6.52971 23.456 6.54915C23.4912 6.46706 23.4813 6.37281 23.4298 6.29963V6.28991ZM23.9235 7.19078C21.5369 7.05792 16.8748 7.3042 14.5798 7.93287C14.4678 7.64677 14.3183 7.37656 14.1351 7.12921C13.5238 6.4811 13.2753 7.1843 13.272 7.26532C14.0371 7.31068 14.1711 7.69955 14.1711 7.69955C14.0012 8.00946 13.7431 8.26302 13.429 8.42867C13.0382 8.68656 12.5887 8.84362 12.1212 8.88559C10.6762 8.95364 11.0718 7.46299 11.9479 6.85377C11.8335 6.98987 11.317 7.7676 11.621 8.16943C11.9251 8.57126 13.3113 8.25044 13.6349 7.84537C13.4551 7.68011 13.1347 7.6315 12.6541 7.67362C12.7264 7.1095 13.023 6.59736 13.478 6.25102C14.0017 6.42169 14.4348 6.7927 14.6811 7.28152C16.7866 6.7209 20.6509 6.55888 20.834 6.55239C20.7915 6.19269 20.6607 4.82194 20.6542 4.74093C20.6378 4.51409 20.7882 4.41687 20.9353 4.3229C21.0677 4.58433 21.3051 4.77841 21.5892 4.85759C21.4606 4.99308 21.3169 5.11374 21.1609 5.21729C21.1838 5.48949 21.21 5.99178 21.2165 6.18945C21.6687 5.98416 22.1394 5.82142 22.6223 5.70337C22.8359 5.65047 23.0565 5.63079 23.2762 5.64504C23.48 5.67262 23.6729 5.75311 23.8352 5.87836C23.9704 5.98741 24.0544 6.1468 24.0674 6.31907C24.0686 6.61455 24.0154 6.90776 23.9104 7.1843L23.9235 7.19078ZM19.8728 14.2357C19.8336 14.2163 19.5622 14.2163 19.5459 14.2714C19.5295 14.3265 19.7093 14.414 19.7747 14.4367C19.8257 14.4488 19.8782 14.4228 19.899 14.3751C19.9284 14.3168 19.9251 14.2552 19.899 14.2357H19.8728ZM20.0559 14.2357C20.1038 14.3368 20.1176 14.4504 20.0951 14.5598C20.08 14.7883 19.9079 14.9763 19.6799 15.0135C19.531 15.0559 19.3707 15.0294 19.2437 14.9413C19.1168 14.8532 19.0368 14.713 19.0261 14.5598C19.0241 14.4678 19.0443 14.3768 19.0849 14.2941C18.977 14.2941 18.9737 14.3783 18.8724 14.5079C18.8103 14.5825 18.7089 14.576 18.5651 14.67C18.6088 14.4104 18.7771 14.188 19.0162 14.0737C19.83 13.8687 20.6906 13.9524 21.4486 14.3103C21.1657 14.2741 20.8806 14.2568 20.5953 14.2584C20.2422 14.239 20.0559 14.2422 20.0559 14.2422V14.2357ZM23.1585 4.82842C22.9754 4.69232 22.8544 4.5951 22.6615 4.46548C22.4915 4.5789 22.3019 4.73445 22.1777 4.8349C22.3444 4.96128 22.4719 5.0585 22.6517 5.18812C22.8512 5.04554 22.9394 4.97749 23.1585 4.82842ZM18.091 14.6635C18.042 14.6959 17.9929 14.8579 18.1826 14.8644C18.3722 14.8709 18.3722 14.6959 18.3722 14.6959C18.3722 14.6959 18.1728 14.6149 18.091 14.6635ZM23.3219 16.0926C23.1431 15.7605 22.8152 15.533 22.4392 15.4801C22.5755 15.6321 22.6859 15.805 22.7662 15.9921C22.5964 16.0469 22.4209 16.0828 22.2431 16.0991C22.586 16.2727 22.9921 16.2727 23.335 16.0991L23.3219 16.0926ZM22.1385 15.0912C21.8741 14.7884 21.5129 14.5847 21.1152 14.5144C21.3865 14.8385 21.6677 15.1237 22.1385 15.0912ZM21.8344 14.5209C22.0175 14.7024 22.5962 14.9454 22.9198 15.2436C22.874 14.751 22.4392 14.4885 21.8344 14.5209ZM21.6088 21.5594C21.234 22.1764 21.234 22.9483 21.6088 23.5653C21.6088 23.5653 22.0665 22.1945 21.6088 21.5594ZM22.691 25.4221C23.2178 24.8423 23.509 24.0895 23.5083 23.3093C23.2713 23.7163 22.9738 24.0856 22.6256 24.4046C22.355 24.2136 22.1101 23.9893 21.8965 23.737C21.8965 24.6412 22.7008 25.4286 22.691 25.4221ZM21.805 19.3331C21.21 19.9812 21.5729 20.4997 21.5729 20.4965C21.5729 20.4932 22.2954 19.7252 21.805 19.3331ZM22.6485 16.9513C22.8414 17.1458 23.4593 17.2754 23.8025 17.5994C23.7687 17.3432 23.6154 17.1176 23.3885 16.9902C23.1617 16.8628 22.8876 16.8484 22.6485 16.9513ZM23.5704 18.5165C23.6195 17.9425 23.1914 17.437 22.6125 17.3856C22.5602 17.8166 23.2991 18.079 23.5704 18.5165ZM23.2435 19.6896C22.8544 20.1109 23.2173 20.9437 23.4429 21.6922C23.6521 21.3261 23.8974 20.0882 23.2435 19.6896ZM25.3195 21.5983C25.0972 22.6223 24.646 23.0112 24.646 23.0079C24.4044 22.8047 24.1852 22.5765 23.9922 22.3274C23.9725 23.1537 24.6885 23.9477 24.6755 23.9477C24.6624 23.9477 25.5484 23.251 25.3293 21.595L25.3195 21.5983ZM24.2276 18.0564C24.1425 18.5198 24.8814 19.2229 24.8814 19.2262C24.8814 19.2294 24.9828 18.3383 24.2276 18.0564ZM25.5353 20.2113C25.4634 20.7525 26.0976 21.9871 26.1238 22.0844C26.3371 21.3995 26.1032 20.655 25.5353 20.2113ZM20.5855 26.5855C20.9943 25.932 21.1348 25.1479 20.9778 24.3949C20.944 24.8809 20.707 25.3308 20.324 25.636C20.0725 25.4661 19.8779 25.2258 19.7649 24.9458C19.8434 25.9957 20.239 26.2971 20.5692 26.5855H20.5855ZM20.0003 20.1044C19.0195 20.8303 19.4903 21.5043 19.6734 21.877C19.8672 21.3046 19.9773 20.7077 20.0003 20.1044ZM19.5164 22.3144C18.8626 23.1213 19.8695 24.1324 19.8663 24.1453C19.863 24.1583 19.948 22.6126 19.5164 22.3144ZM17.0873 25.4967C16.9566 24.68 17.0089 24.1324 16.6067 23.4097C16.476 24.275 16.9991 25.3703 17.0873 25.4967ZM17.921 21.2839C18.1924 20.3118 18.7383 19.7706 18.9247 19.2132C17.9439 19.897 17.751 20.9469 17.921 21.2839ZM18.3493 23.7727C18.3551 24.1856 18.3201 24.598 18.2447 25.0041C18.0088 24.9163 17.7994 24.7702 17.6366 24.5796C17.8066 25.1272 18.4833 25.7559 18.5912 25.9114C18.686 25.1726 18.7187 24.2717 18.3493 23.7727ZM17.6627 25.5809C17.4372 26.5531 18.4049 27.4637 18.4081 27.4799C18.3921 26.7798 18.1283 26.1076 17.6627 25.5809ZM17.9504 28.1539C18.1831 28.55 18.4715 28.9112 18.807 29.2265C18.3918 28.6043 18.0616 27.4507 17.6529 27.1396C17.6642 27.4972 17.7665 27.8461 17.9504 28.1539ZM16.7571 22.538C16.6819 22.0649 17.2737 21.6307 17.0841 20.8659C16.6364 21.3025 16.5064 21.9673 16.7571 22.538ZM20.2357 29.0548C19.8793 28.8171 19.5783 28.5067 19.353 28.1442C19.5737 28.8504 19.988 29.482 20.5496 29.9686C20.6673 29.7742 21.1021 28.9154 20.7196 27.5479C20.6423 28.073 20.4789 28.582 20.2357 29.0548ZM22.8119 26.6276C22.6627 27.1594 22.3673 27.6396 21.9586 28.0146C21.7001 27.7708 21.4923 27.479 21.3473 27.1558C21.2607 27.8264 21.5566 28.4892 22.1156 28.8766C22.6611 28.2599 22.9145 27.4414 22.8119 26.6276ZM24.0935 29.1552C24.682 28.4326 24.9926 27.603 24.7474 26.7508C24.221 27.5674 24.2047 28.3937 24.0935 29.1552ZM22.6583 30.4223C22.8316 30.0237 23.2729 29.2881 23.1781 28.4294C22.8021 28.7534 22.6256 29.9135 22.6583 30.4223ZM25.7609 25.7689C26.0257 25.3508 26.3951 24.7481 26.0878 24.356C25.9462 24.8189 25.8369 25.291 25.7609 25.7689ZM23.7993 27.1267C23.7993 27.1267 24.7801 26.1772 24.7605 24.9879C24.5884 25.4684 24.2471 25.8711 23.7993 26.1221C23.5404 25.9376 23.3489 25.675 23.2533 25.3735C23.1408 26.0109 23.3439 26.663 23.7993 27.1267ZM25.6366 24.4467C25.6366 24.4305 26.2905 23.3384 25.9113 22.7292C25.4928 22.8232 25.6464 24.4532 25.6366 24.4467ZM25.6039 26.3133C25.2214 26.8253 25.1103 27.9854 24.9926 28.3743C25.1299 28.2511 25.8328 26.6017 25.6039 26.3133ZM21.1707 31.9227C21.38 31.2908 21.3342 30.5292 21.0596 30.1955C20.8605 30.7625 20.9005 31.3853 21.1707 31.9227ZM21.7919 33.5689C22.0077 33.018 21.9913 32.3277 21.7559 32.0328C21.5585 32.5287 21.5714 33.0826 21.7919 33.5689ZM22.606 33.0407C22.9992 32.3704 23.1888 31.6019 23.1519 30.8274C22.74 31.2357 22.5635 32.5157 22.606 33.0407ZM20.0755 32.0037C19.9774 31.6796 19.8074 30.6524 19.4216 30.2019C19.2614 30.9602 19.7486 31.6829 20.0755 32.0037ZM25.0612 32.9143C25.0618 32.7691 25.0246 32.6263 24.9533 32.4995C24.8716 32.8754 24.3681 33.6661 24.4826 34.5896C24.7082 33.7665 25.3522 33.598 25.5189 32.8365C25.6392 32.9184 25.779 32.9675 25.9243 32.9791C25.7496 32.5803 25.6223 32.1627 25.5451 31.7347C25.4732 31.9454 25.3914 32.5643 25.0612 32.9143ZM18.3199 34.5346C18.4343 33.6142 17.9308 32.8203 17.8491 32.4444C17.7783 32.5712 17.7422 32.7142 17.7445 32.8592C17.4175 32.5092 17.3293 31.887 17.2573 31.6829C17.1788 32.1102 17.0527 32.5275 16.8814 32.9272C17.0255 32.9123 17.1637 32.8622 17.2835 32.7814C17.4502 33.5462 18.0943 33.7147 18.3199 34.5346ZM13.2655 25.9374C13.0794 25.8861 12.9117 25.7839 12.7816 25.6425C12.8919 26.0384 13.1597 26.373 13.5238 26.5693C13.5238 26.5693 14.0174 25.393 12.8895 23.7111C13.5042 25.4805 13.2655 25.9374 13.2655 25.9374ZM12.6116 27.7035C12.4377 27.6291 12.2866 27.5106 12.1735 27.36C12.2394 27.7733 12.4956 28.1326 12.8666 28.3321C13.0889 27.6257 13.2263 27.0651 12.2128 24.9879C12.9026 27.0262 12.6051 27.7002 12.6051 27.7002L12.6116 27.7035ZM8.48573 26.7281C8.48573 26.7281 8.19802 26.2873 8.13917 25.1078C7.96873 25.7857 8.05238 26.502 8.37457 27.1234C8.57056 26.9912 8.69184 26.7749 8.70151 26.5401C8.64489 26.6184 8.5739 26.6855 8.49227 26.7378L8.48573 26.7281ZM9.11344 26.1318C9.11344 26.1318 8.81266 25.6652 8.6917 24.3203C8.53087 25.0943 8.65742 25.8998 9.04806 26.5887C9.25841 26.4279 9.37963 26.178 9.37498 25.9147C9.33575 26.0151 9.10363 26.1253 9.10363 26.1253L9.11344 26.1318ZM11.8303 22.5413C11.5556 22.2399 11.1241 21.783 10.686 20.1595C10.735 21.5432 11.4379 22.8297 11.9512 23.2672C12.1964 22.9172 12.2422 21.8932 11.8924 21.1381C11.9317 21.6066 11.9108 22.0781 11.8303 22.5413ZM11.1077 23.6787C10.8625 23.3547 10.3885 22.6579 10.1269 21.002C10.0387 22.3857 10.7089 23.8731 11.1764 24.3463C11.4543 24.0222 11.536 23.3741 11.2647 22.5996C11.2847 22.965 11.2359 23.331 11.1208 23.6787H11.1077ZM10.4342 24.5407C10.2119 24.2004 9.89154 23.7435 9.60711 21.7473C9.53846 23.5653 10.0223 24.6444 10.4637 25.1499C10.7374 24.8038 10.8405 24.3544 10.7448 23.925C10.6796 24.1503 10.5684 24.3599 10.4179 24.5407H10.4342ZM9.76404 25.3994C9.57442 25.0754 9.4371 24.7222 9.24421 22.9399C9.11671 24.5601 9.38152 25.5323 9.75749 26.0087C10.0184 25.7119 10.129 25.3137 10.0583 24.9263C9.99733 25.104 9.89676 25.2657 9.76404 25.3994ZM34.3298 26.4753C34.3395 26.7101 34.4607 26.9264 34.6567 27.0586C34.9789 26.4372 35.0626 25.7209 34.8921 25.043C34.8333 26.2323 34.5652 26.6633 34.5652 26.6633C34.4823 26.6113 34.4102 26.5443 34.3527 26.4656L34.3298 26.4753ZM33.6694 25.8466C33.6652 26.1098 33.7864 26.3595 33.9963 26.5207C34.3889 25.8325 34.5156 25.0262 34.3527 24.2523C34.2317 25.5971 33.9309 26.0638 33.9309 26.0638C33.9309 26.0638 33.6988 25.9536 33.6596 25.8531L33.6694 25.8466ZM31.2043 22.4797C31.1237 22.0165 31.1028 21.545 31.1422 21.0765C30.7956 21.8316 30.8381 22.8556 31.0866 23.2023C31.5966 22.7681 32.2995 21.4816 32.3486 20.0979C31.9105 21.7182 31.4789 22.1783 31.2043 22.4797ZM31.9301 23.6171C31.8131 23.2698 31.7632 22.9037 31.783 22.538C31.5116 23.3158 31.5934 23.9574 31.8712 24.2847C32.3388 23.8083 33.009 22.3242 32.9207 20.9404C32.6461 22.5964 32.172 23.2931 31.9399 23.6171H31.9301ZM33.4536 21.6728C33.1659 23.669 32.8455 24.1259 32.6232 24.4662C32.4728 24.2853 32.3615 24.0758 32.2963 23.8505C32.2 24.2804 32.3045 24.7304 32.5807 25.0754C33.0188 24.5699 33.5026 23.4908 33.4373 21.6728H33.4536ZM33.7936 22.8653C33.6073 24.6476 33.4667 25.0171 33.2705 25.3249C33.1391 25.1901 33.0387 25.0287 32.9763 24.8518C32.9055 25.2391 33.0162 25.6373 33.2771 25.9341C33.653 25.4675 33.9309 24.4791 33.7936 22.8653ZM29.7593 25.8758C29.7593 25.8758 29.5206 25.4189 30.1352 23.6463C29.0073 25.3314 29.501 26.5077 29.501 26.5077C29.8655 26.3112 30.1344 25.9769 30.2464 25.5809C30.1153 25.7227 29.9464 25.825 29.7593 25.8758ZM30.8643 27.2984C30.7996 27.7112 30.5446 28.0707 30.1745 28.2706C29.9489 27.5641 29.8148 27.0035 30.8283 24.9296C30.1385 26.9646 30.4393 27.6419 30.4393 27.6419C30.6123 27.566 30.7622 27.4464 30.8741 27.2952" fill="#0A0203"/>
</svg>
