<svg width="32" height="32" viewBox="0 0 32 32" fill="none" xmlns="http://www.w3.org/2000/svg">
<path d="M16 32C24.8366 32 32 24.8366 32 16C32 7.16345 24.8366 1.09389e-08 16 7.04694e-09C7.16344 3.15502e-09 3.18151e-09 7.16344 7.10611e-09 16C1.10307e-08 24.8366 7.16344 32 16 32Z" fill="#56A8DB"/>
<g clip-path="url(#clip0)">
<path d="M18.1378 11.9282L10.8346 11.9282C10.1661 11.9282 9.62415 12.4416 9.62415 13.075L9.62415 19.9938C9.62415 20.6271 10.1661 21.1405 10.8346 21.1405L18.1378 21.1405C18.8063 21.1405 19.3482 20.6271 19.3482 19.9938L19.3482 13.075C19.3482 12.4416 18.8063 11.9282 18.1378 11.9282ZM22.934 12.8327L20.1586 14.6463L20.1586 18.4224L22.934 20.2337C23.4709 20.584 24.2103 20.2265 24.2103 19.6147L24.2103 13.4516C24.2103 12.8423 23.4734 12.4824 22.934 12.8327Z" fill="white"/>
</g>
<defs>
<clipPath id="clip0">
<rect x="9.62415" y="10.3928" width="14.5862" height="12.2831" fill="white"/>
</clipPath>
</defs>
</svg>
